<?xml version="1.0" standalone="no"?>
<!DOCTYPE svg PUBLIC "-//W3C//DTD SVG 1.1//EN" "http://www.w3.org/Graphics/SVG/1.1/DTD/svg11.dtd" >
<svg xmlns="http://www.w3.org/2000/svg">
<metadata></metadata>
<defs>
<font id="alsschlangesans-buploadedfile" horiz-adv-x="554" >
<font-face units-per-em="1000" ascent="769" descent="-231" />
<missing-glyph horiz-adv-x="240" />
<glyph unicode="&#xfb01;" horiz-adv-x="472" d="M299 58v336h-126v-536q0 -25 -15 -41.5t-42 -16.5t-41.5 16.5t-14.5 41.5v631q0 105 40 155q43 56 142 56q76 0 120 -24q35 -21 24 -59q-11 -36 -62 -26q-48 13 -77 13q-74 0 -74 -80v-34h181q29 0 43.5 -17t14.5 -42v-373q0 -25 -15 -41.5t-42 -16.5t-41.5 16.5 t-14.5 41.5z" />
<glyph unicode="&#xfb02;" horiz-adv-x="472" d="M299 58v541q-25 9 -54 9q-72 0 -72 -82v-36h33q54 0 54 -48t-54 -48h-33v-536q0 -25 -15 -41.5t-42 -16.5t-41.5 16.5t-14.5 41.5v633q0 113 45 161t135 48q83 0 131 -25q27 -14 34 -34.5t7 -55.5v-527q0 -25 -15 -41.5t-42 -16.5t-41.5 16.5t-14.5 41.5z" />
<glyph horiz-adv-x="0" />
<glyph unicode="&#xd;" horiz-adv-x="333" />
<glyph unicode=" "  horiz-adv-x="240" />
<glyph unicode="&#x09;" horiz-adv-x="240" />
<glyph unicode="&#xa0;" horiz-adv-x="240" />
<glyph unicode="!" horiz-adv-x="239" d="M50 64q0 29 18 47t51 18t51.5 -18t18.5 -47t-18.5 -46.5t-51.5 -17.5q-34 0 -51.5 17.5t-17.5 46.5zM62 259v378q0 24 15 41t42 17t41.5 -16.5t14.5 -41.5v-378q0 -26 -14.5 -42.5t-41.5 -16.5t-42 16.5t-15 42.5z" />
<glyph unicode="&#x22;" horiz-adv-x="338" d="M55 514v135q0 22 12 36.5t35 14.5t35 -14.5t12 -36.5v-135q0 -22 -12 -36t-35 -14t-35 14t-12 36zM188 514v135q0 22 12.5 36.5t35.5 14.5t35 -14.5t12 -36.5v-135q0 -22 -12 -36t-35 -14t-35.5 14t-12.5 36z" />
<glyph unicode="#" horiz-adv-x="634" d="M267 56l48 137h-115l-55 -158q-20 -56 -61 -43q-21 6 -25 26.5t5 37.5l48 137h-33q-46 0 -46 42q0 41 46 41h63l46 131h-50q-46 0 -46 42q0 41 46 41h80l61 173q16 47 58 34q38 -12 20 -61l-52 -146h116l61 173q16 47 58 34q38 -12 20 -61l-52 -146h48q45 0 45 -41 q0 -20 -12 -31t-33 -11h-77l-46 -131h63q45 0 45 -41q0 -20 -12 -31t-33 -11h-93l-55 -158q-20 -56 -61 -43q-21 6 -25 26.5t5 37.5zM276 407l-46 -131h115l46 131h-115z" />
<glyph unicode="$" d="M308 600q-48 0 -73 -19.5t-25 -52.5q0 -37 33 -64t80 -47.5t94.5 -45.5t80.5 -70.5t33 -109.5q0 -71 -42.5 -124.5t-125.5 -69.5v-52q0 -25 -13.5 -42t-40.5 -17t-40 17t-13 42v46q-81 6 -130 36q-65 41 -37 89q22 37 77 8q66 -35 134 -35q55 0 85 24.5t30 68.5 q0 35 -24 62.5t-59 43.5l-77 36q-42 21 -77.5 43t-59.5 61.5t-24 91.5q0 69 39.5 116.5t122.5 59.5v49q0 25 13 41.5t40 16.5t40.5 -16.5t13.5 -41.5v-49q61 -10 102 -33q29 -16 38 -38.5t-2 -40.5q-21 -41 -86 -11q-59 27 -107 27z" />
<glyph unicode="%" horiz-adv-x="835" d="M23 509q0 89 42.5 140t119.5 51t119.5 -51t42.5 -140q0 -88 -42.5 -138.5t-119.5 -50.5t-119.5 50.5t-42.5 138.5zM249 509q0 108 -64 108t-64 -108q0 -106 64 -106t64 106zM488 179q0 89 42.5 140t119.5 51t119.5 -51t42.5 -140q0 -88 -42.5 -138.5t-119.5 -50.5 t-119.5 50.5t-42.5 138.5zM714 179q0 108 -64 108t-64 -108q0 -106 64 -106t64 106zM574 666l-231 -662q-20 -56 -64 -41q-38 13 -18 71l233 661q19 58 62 42q38 -13 18 -71z" />
<glyph unicode="&#x26;" horiz-adv-x="663" d="M534 27l-56 48q-92 -85 -217 -85q-94 0 -155 46.5t-61 137.5q0 63 34.5 110t106.5 99q-61 84 -61 156q0 71 47 116t129 45q80 0 120.5 -37.5t40.5 -92.5q0 -50 -31.5 -95t-103.5 -99q41 -50 143 -150q22 37 42 112q13 53 55 49q43 -4 38 -58q-8 -88 -62 -174 q38 -37 65 -58q49 -41 20 -79q-33 -44 -94 9zM268 86q82 0 139 54q-74 68 -165 174q-47 -37 -65 -66.5t-18 -65.5q0 -39 29.5 -67.5t79.5 -28.5zM237 545q0 -44 39 -100q91 67 91 118q0 24 -16.5 38.5t-45.5 14.5t-48.5 -19t-19.5 -52z" />
<glyph unicode="'" horiz-adv-x="204" d="M55 514v135q0 22 12 36.5t35 14.5t35 -14.5t12 -36.5v-135q0 -22 -12 -36t-35 -14t-35 14t-12 36z" />
<glyph unicode="(" horiz-adv-x="307" d="M45 345q0 123 39.5 226.5t98.5 164.5q56 58 96 20q31 -29 -10 -85q-113 -151 -110 -326q-3 -173 110 -326q41 -55 10 -85q-40 -39 -96 20q-59 62 -98.5 165t-39.5 226z" />
<glyph unicode=")" horiz-adv-x="307" d="M291 345q0 -123 -39.5 -226t-98.5 -165q-56 -59 -96 -20q-31 30 10 85q113 153 110 326q3 175 -110 326q-41 56 -10 85q40 38 96 -20q59 -61 98.5 -164.5t39.5 -226.5z" />
<glyph unicode="*" horiz-adv-x="365" d="M281 551l37 -20q34 -18 16 -56q-10 -21 -28.5 -23t-30.5 9l-34 25l2 -41q0 -42 -42 -42q-22 0 -33 12t-10 30l2 41l-34 -25q-13 -11 -31 -8.5t-29 22.5q-18 35 17 56l36 20l-36 21q-35 21 -17 56q10 20 28.5 22t31.5 -9l34 -24l-2 41q0 42 43 42q44 0 42 -42l-2 -41 l34 24q12 11 30 8.5t29 -21.5q20 -36 -16 -56z" />
<glyph unicode="+" horiz-adv-x="515" d="M205 168v107h-107q-53 0 -53 48q0 23 14.5 35.5t38.5 12.5h107v107q0 59 52 59t52 -59v-107h108q24 0 38.5 -12.5t14.5 -35.5q0 -48 -53 -48h-108v-107q0 -58 -52 -58t-52 58z" />
<glyph unicode="," horiz-adv-x="234" d="M201 55l-80 -151q-28 -54 -73 -30q-41 22 -13 74l80 150q27 53 71 30q21 -11 24 -34t-9 -39z" />
<glyph unicode="-" horiz-adv-x="362" d="M303 217h-244q-24 0 -39 13t-15 37q0 23 15 36.5t39 13.5h244q24 0 39 -13.5t15 -36.5q0 -24 -15 -37t-39 -13z" />
<glyph unicode="." horiz-adv-x="240" d="M50 69q0 29 18.5 49.5t50.5 20.5t51 -20.5t19 -49.5q0 -30 -18.5 -49.5t-51.5 -19.5t-51 19.5t-18 49.5z" />
<glyph unicode="/" horiz-adv-x="330" d="M353 720l-278 -785q-20 -56 -66 -42q-22 7 -27.5 29.5t3.5 43.5l279 791q18 55 65 40q45 -15 24 -77z" />
<glyph unicode="0" d="M27 345q0 163 62.5 259t187.5 96t187 -96t62 -259q0 -164 -62 -259.5t-187 -95.5t-187.5 95.5t-62.5 259.5zM136 345q0 -123 36.5 -191t104.5 -68t104 68t36 191t-36 191t-104 68q-141 0 -141 -259z" />
<glyph unicode="1" d="M267 58v479l-88 -86q-16 -17 -35.5 -22.5t-39.5 7.5q-17 16 -14 37.5t22 40.5l146 146q15 15 21 20.5t20.5 12.5t30.5 7q45 0 45 -67v-575q0 -26 -14 -42t-41 -16q-26 0 -39.5 16t-13.5 42z" />
<glyph unicode="2" d="M149 568q-55 -25 -74 5q-11 14 -6.5 35t25.5 37q36 26 87 40.5t97 14.5q102 0 153.5 -49t51.5 -130q0 -52 -22.5 -95.5t-56 -71.5t-73.5 -58l-75 -56q-35 -25 -60 -62.5t-29 -81.5h280q54 0 54 -48q0 -23 -15 -35.5t-39 -12.5h-328q-31 0 -46 17t-15 45q0 54 17.5 100.5 t45.5 79t61.5 60.5t67 52.5t61.5 48t45.5 52.5t17.5 61q0 36 -26.5 59.5t-77.5 23.5q-53 0 -121 -31z" />
<glyph unicode="3" horiz-adv-x="564" d="M229 324q-59 0 -59 45q0 30 22 53l162 172h-193q-53 0 -53 48t53 48h277q42 0 51.5 -33t-17.5 -60l-177 -185q107 -5 163 -58t56 -143q0 -100 -64.5 -160.5t-174.5 -60.5q-124 0 -181 49q-40 35 -17 72q21 33 67 10q70 -35 129 -35q64 0 95.5 33t31.5 91q0 114 -171 114z " />
<glyph unicode="4" d="M523 258q0 -47 -45 -47h-35v-155q0 -56 -52 -56q-26 0 -39.5 15.5t-13.5 40.5v155h-248q-41 0 -51.5 32t13.5 59l289 367q22 31 51 31q26 0 38.5 -16.5t12.5 -42.5v-339h35q20 0 32.5 -12t12.5 -32zM158 302h180v225z" />
<glyph unicode="5" d="M271 -10q-124 0 -181 49q-40 35 -17 72q21 33 67 10q71 -35 129 -35q61 0 95 37t34 98q0 55 -31 89t-88 34q-27 0 -62.5 -6.5t-47.5 -6.5q-25 0 -38.5 15t-11.5 43l16 230q5 71 68 71h221q60 0 60 -53t-60 -53h-196l-11 -154q43 10 82 10q58 0 101 -19t66.5 -51.5 t34.5 -68t11 -74.5q0 -108 -66 -172.5t-175 -64.5z" />
<glyph unicode="6" d="M394 592q-38 12 -76 12q-82 0 -125.5 -63t-45.5 -160q55 74 159 74q95 0 151 -61.5t56 -158.5q0 -99 -61 -172t-172 -73t-174 78t-63 226q0 406 278 406q73 0 115 -23q45 -23 31 -64q-9 -25 -32 -27.5t-41 6.5zM153 241q0 -63 32 -109t96 -46q58 0 90.5 42t32.5 103 q0 55 -34.5 91t-86.5 36q-50 0 -90 -32t-40 -85z" />
<glyph unicode="7" d="M107 690h336q40 0 53 -26t-5 -65l-246 -549q-29 -65 -79 -46q-22 8 -27.5 31t7.5 53l226 496h-265q-59 0 -59 53t59 53z" />
<glyph unicode="8" horiz-adv-x="541" d="M57 528q0 78 60 125t153 47q94 0 153 -45t59 -126q0 -97 -102 -167q69 -37 99.5 -78.5t30.5 -100.5q0 -83 -66 -138t-172 -55t-174 47.5t-68 141.5q0 114 130 191q-54 34 -78.5 70.5t-24.5 87.5zM136 186q0 -46 37.5 -73t97.5 -27t96 27t36 69q0 80 -168 141 q-99 -54 -99 -137zM164 523q0 -68 141 -121q73 53 73 118q0 41 -30 62.5t-79 21.5q-45 0 -75 -21.5t-30 -59.5z" />
<glyph unicode="9" d="M158 98q38 -12 76 -12q82 0 125.5 63t45.5 160q-55 -74 -159 -74q-95 0 -151 61.5t-56 158.5q0 99 61 172t172 73t174 -78t63 -226q0 -406 -278 -406q-73 0 -115 23q-45 23 -31 64q9 25 32 27.5t41 -6.5zM399 449q0 63 -32 109t-96 46q-58 0 -90.5 -42t-32.5 -103 q0 -55 34.5 -91t86.5 -36q50 0 90 32t40 85z" />
<glyph unicode=":" horiz-adv-x="240" d="M50 430q0 29 18.5 49.5t50.5 20.5t51 -20.5t19 -49.5q0 -30 -18.5 -49.5t-51.5 -19.5t-51 19.5t-18 49.5zM50 69q0 29 18.5 49.5t50.5 20.5t51 -20.5t19 -49.5q0 -30 -18.5 -49.5t-51.5 -19.5t-51 19.5t-18 49.5z" />
<glyph unicode=";" horiz-adv-x="246" d="M201 55l-80 -151q-28 -54 -73 -30q-41 22 -13 74l80 150q27 53 71 30q21 -11 24 -34t-9 -39zM84 430q0 29 18.5 49.5t50.5 20.5t51 -20.5t19 -49.5q0 -30 -18.5 -49.5t-51.5 -19.5t-51 19.5t-18 49.5z" />
<glyph unicode="&#x3c;" horiz-adv-x="515" d="M127 384l200 152q13 11 27.5 16.5t30 2t25.5 -18.5q24 -39 -29 -78l-161 -120l172 -136q45 -37 15 -75q-14 -16 -36 -16t-43 17l-202 157q-26 21 -26 49.5t27 49.5z" />
<glyph unicode="=" horiz-adv-x="515" d="M419 171h-323q-53 0 -53 48q0 23 14.5 35.5t38.5 12.5h323q24 0 38.5 -12.5t14.5 -35.5q0 -48 -53 -48zM419 316h-323q-53 0 -53 48q0 23 14.5 35.5t38.5 12.5h323q24 0 38.5 -12.5t14.5 -35.5q0 -48 -53 -48z" />
<glyph unicode="&#x3e;" horiz-adv-x="515" d="M416 280l-200 -152q-13 -11 -27.5 -16.5t-30 -2t-25.5 18.5q-24 39 29 78l161 120l-172 136q-45 37 -15 75q14 16 36 16t43 -17l202 -157q26 -21 26 -49.5t-27 -49.5z" />
<glyph unicode="?" horiz-adv-x="412" d="M211 700q90 0 136.5 -45t46.5 -108q0 -37 -15 -70t-31 -52t-47 -48q-37 -35 -52.5 -59.5t-15.5 -61.5q0 -56 -51 -56q-50 0 -50 56q0 49 19.5 85.5t56.5 73.5q26 26 38 40t21.5 35t9.5 45q0 29 -20.5 49t-58.5 20q-35 0 -92 -25q-49 -22 -68 12q-10 15 -3 35.5t32 35.5 q63 38 144 38zM114 64q0 29 18 47t51 18t51.5 -18t18.5 -47t-18.5 -46.5t-51.5 -17.5t-51 17.5t-18 46.5z" />
<glyph unicode="@" horiz-adv-x="951" d="M674 435v-344h1h14q118 0 118 213q0 135 -81.5 214.5t-235.5 79.5q-163 0 -254.5 -93t-91.5 -274q0 -169 94.5 -260t254.5 -91q27 0 46.5 2t37.5 5.5t21 3.5q45 7 54 -25q10 -39 -38 -59q-42 -17 -120 -17q-210 0 -329.5 119t-119.5 322q0 209 119.5 333.5t327.5 124.5 q200 0 307 -104.5t107 -282.5q0 -154 -64 -228t-195 -74q-42 0 -59 15t-17 46v15q-25 -46 -60.5 -66t-88.5 -20q-82 0 -129 65t-47 176q0 129 54.5 199t159.5 70q78 0 119 -25q18 15 47 15q48 0 48 -55zM451 81q120 0 120 223v87q-58 18 -97 18q-66 0 -93.5 -45t-27.5 -137 q0 -146 98 -146z" />
<glyph unicode="A" horiz-adv-x="611" d="M509 47l-56 148h-257l-52 -141q-25 -72 -82 -49q-44 19 -20 82l225 564q19 49 61 49q40 0 58 -43l232 -569q11 -22 4.5 -48t-31.5 -35q-28 -10 -49.5 1.5t-32.5 40.5zM322 541l-94 -252h191z" />
<glyph unicode="B" horiz-adv-x="623" d="M75 70v546q0 57 57 67q71 12 161 12q252 0 252 -181q0 -46 -24.5 -86t-66.5 -59q58 -18 91 -60.5t33 -101.5q0 -212 -277 -212q-99 0 -170 11q-56 8 -56 64zM305 308h-115v-208q48 -6 116 -6q74 0 111.5 25t37.5 83q0 106 -150 106zM282 595q-44 0 -92 -5v-192h102 q130 0 130 104q0 93 -140 93z" />
<glyph unicode="C" horiz-adv-x="629" d="M368 593q-92 0 -144.5 -67.5t-52.5 -179.5q0 -116 56.5 -182.5t143.5 -66.5q69 0 142 43q51 29 76 -7q13 -17 7.5 -41t-30.5 -43q-80 -59 -204 -59q-157 0 -237 95.5t-80 259.5q0 162 85 258.5t236 96.5q119 0 185 -46q44 -30 24 -73q-17 -38 -76 -16q-73 28 -131 28z " />
<glyph unicode="D" horiz-adv-x="696" d="M75 69v543q0 59 55 69q66 14 168 14q175 0 264 -88t89 -259q0 -165 -90 -259t-262 -94q-109 0 -168 10q-56 10 -56 64zM299 102q226 0 226 246q0 240 -227 240q-45 0 -103 -6v-475q44 -5 104 -5z" />
<glyph unicode="E" horiz-adv-x="561" d="M75 62v566q0 27 16 44.5t45 17.5h338q26 0 41.5 -14.5t15.5 -39.5q0 -24 -15.5 -38.5t-41.5 -14.5h-279v-175h223q27 0 42.5 -14t15.5 -39q0 -24 -15.5 -39t-42.5 -15h-223v-194h289q26 0 41.5 -14.5t15.5 -39.5q0 -24 -15.5 -38.5t-41.5 -14.5h-347q-29 0 -45.5 17.5 t-16.5 44.5z" />
<glyph unicode="F" horiz-adv-x="532" d="M75 61v567q0 27 15.5 44.5t44.5 17.5h320q26 0 41.5 -14.5t15.5 -39.5q0 -24 -15.5 -38.5t-41.5 -14.5h-260v-174h208q26 0 41.5 -14t15.5 -39q0 -24 -15.5 -39t-41.5 -15h-208v-241q0 -27 -16 -44t-44 -17q-29 0 -44.5 17t-15.5 44z" />
<glyph unicode="G" horiz-adv-x="667" d="M373 700q118 0 183 -44q47 -32 25 -73q-20 -37 -77 -16q-68 26 -130 26q-97 0 -150 -68.5t-53 -181.5q0 -118 53.5 -182t151.5 -64q92 0 148 39v134h-113q-53 0 -53 46t53 46h151q60 0 60 -52v-190q0 -43 -32 -66q-36 -27 -95.5 -45.5t-126.5 -18.5q-164 0 -243.5 94.5 t-79.5 261.5q0 161 88 257.5t240 96.5z" />
<glyph unicode="H" horiz-adv-x="708" d="M513 61v238h-318v-238q0 -27 -16 -44t-44 -17q-29 0 -44.5 17t-15.5 44v567q0 27 15.5 44.5t44.5 17.5q28 0 44 -17.5t16 -44.5v-222h318v222q0 27 15.5 44.5t44.5 17.5q28 0 44 -17.5t16 -44.5v-567q0 -27 -16 -44t-44 -17q-29 0 -44.5 17t-15.5 44z" />
<glyph unicode="I" horiz-adv-x="270" d="M75 61v567q0 27 15.5 44.5t44.5 17.5q28 0 44 -17.5t16 -44.5v-567q0 -27 -16 -44t-44 -17q-29 0 -44.5 17t-15.5 44z" />
<glyph unicode="J" horiz-adv-x="388" d="M2 97q17 39 70 19q46 -19 73 -19q69 0 69 74v457q0 27 15.5 44.5t44.5 17.5q28 0 44 -17.5t16 -44.5v-459q0 -85 -43 -132t-127 -47q-81 0 -125 25q-58 32 -37 82z" />
<glyph unicode="K" horiz-adv-x="571" d="M75 61v567q0 27 15.5 44.5t44.5 17.5q28 0 44 -17.5t16 -44.5v-252l245 281q48 55 89 18q20 -20 16.5 -44t-23.5 -45l-213 -230l228 -241q23 -24 27 -49.5t-15 -46.5q-44 -43 -97 13l-257 283v-254q0 -27 -16 -44t-44 -17q-29 0 -44.5 17t-15.5 44z" />
<glyph unicode="L" horiz-adv-x="533" d="M471 0h-338q-28 0 -43 17.5t-15 43.5v567q0 27 15.5 44.5t44.5 17.5q28 0 44 -17.5t16 -44.5v-521h276q26 0 41.5 -14.5t15.5 -38.5q0 -25 -15.5 -39.5t-41.5 -14.5z" />
<glyph unicode="M" horiz-adv-x="787" d="M193 651l204 -322l200 323q24 38 59 38q27 0 41.5 -17t14.5 -45v-567q0 -27 -15.5 -44t-44.5 -17q-28 0 -44 17t-16 44v407l-146 -236q-22 -36 -55 -36q-34 0 -56 35l-148 232v-402q0 -61 -56 -61t-56 61v566q0 32 15.5 47.5t40.5 15.5q38 0 62 -39z" />
<glyph unicode="N" horiz-adv-x="708" d="M522 213v415q0 62 54 62q55 0 55 -62v-567q0 -27 -15.5 -44t-41.5 -17q-30 0 -54 30l-334 443v-412q0 -61 -55 -61q-54 0 -54 61v566q0 63 56 63q35 0 59 -33z" />
<glyph unicode="O" horiz-adv-x="747" d="M45 345q0 155 85.5 255t242.5 100t243 -100t86 -255q0 -156 -86 -255.5t-243 -99.5t-242.5 99.5t-85.5 255.5zM171 345q0 -109 52.5 -178.5t149.5 -69.5q98 0 150.5 69.5t52.5 178.5t-52.5 178.5t-150.5 69.5q-97 0 -149.5 -69.5t-52.5 -178.5z" />
<glyph unicode="P" horiz-adv-x="579" d="M75 61v551q0 59 56 70q66 13 154 13q123 0 193.5 -53.5t70.5 -167.5q0 -116 -74 -175t-193 -59q-57 0 -87 5v-184q0 -27 -16 -44t-44 -17q-29 0 -44.5 17t-15.5 44zM275 344q148 0 148 127q0 119 -141 119q-43 0 -87 -6v-236q29 -4 80 -4z" />
<glyph unicode="Q" horiz-adv-x="747" d="M45 345q0 155 85.5 255t242.5 100t243 -100t86 -255q0 -175 -103 -273q28 -25 79 -62q44 -31 19 -68q-21 -31 -67 -8q-51 27 -114 83q-65 -27 -143 -27q-157 0 -242.5 99.5t-85.5 255.5zM171 345q0 -109 52.5 -178.5t149.5 -69.5q32 0 61 8q-35 45 -49 79 q-10 21 -5.5 39.5t21.5 27.5q35 18 63 -21q38 -54 53 -72q59 68 59 187q0 109 -52.5 178.5t-150.5 69.5q-97 0 -149.5 -69.5t-52.5 -178.5z" />
<glyph unicode="R" horiz-adv-x="612" d="M75 61v552q0 57 56 69q59 13 150 13q259 0 259 -208q0 -71 -34 -120t-92 -69l127 -193q18 -27 15 -54.5t-26 -41.5q-53 -30 -91 33l-142 234q-13 -2 -43 -2q-32 0 -59 4v-217q0 -27 -16 -44t-44 -17q-29 0 -44.5 17t-15.5 44zM263 364q77 0 114 27.5t37 88.5 q0 108 -143 108q-26 0 -76 -6v-214q31 -4 68 -4z" />
<glyph unicode="S" horiz-adv-x="551" d="M280 590q-99 0 -99 -72q0 -32 26 -54.5t64.5 -34.5t84 -30t84 -38t64.5 -61t26 -98q0 -97 -61 -154.5t-184 -57.5q-110 0 -190 41q-34 18 -45.5 43t2.5 51q20 39 86 12q80 -37 150 -37q56 0 88.5 22t32.5 65q0 42 -36 68t-87 42t-102.5 36.5t-87.5 65.5t-36 115 q0 86 58.5 136t170.5 50q101 0 174 -42q61 -33 35 -84q-22 -43 -95 -11q-64 27 -123 27z" />
<glyph unicode="T" horiz-adv-x="599" d="M62 690h474q27 0 42.5 -14t15.5 -39q0 -24 -15.5 -39t-42.5 -15h-177v-522q0 -27 -15.5 -44t-44.5 -17t-44.5 17t-15.5 44v522h-177q-26 0 -41.5 15t-15.5 39q0 25 15.5 39t41.5 14z" />
<glyph unicode="U" horiz-adv-x="679" d="M489 276v352q0 27 14.5 44.5t42.5 17.5t43 -17.5t15 -44.5v-347q0 -62 -13 -112t-42 -91.5t-82 -64.5t-126 -23q-141 0 -203.5 79.5t-62.5 209.5v349q0 27 15.5 44.5t43.5 17.5q29 0 45 -17.5t16 -44.5v-354q0 -177 147 -177t147 179z" />
<glyph unicode="V" horiz-adv-x="608" d="M134 639l186 -469l171 464q26 74 83 51q47 -19 21 -83l-221 -566q-18 -46 -61 -46q-39 0 -58 44l-231 560q-12 23 -6 51.5t33 38.5q56 23 83 -45z" />
<glyph unicode="W" horiz-adv-x="826" d="M558 40l-122 374l-128 -375q-16 -49 -57 -49q-46 0 -60 51l-147 536q-25 95 33 110q36 9 54 -12.5t29 -64.5l105 -420l117 355q15 52 60 52q44 0 58 -50l115 -358l105 415q12 50 29 71t52 13q33 -8 37.5 -37.5t-9.5 -68.5l-154 -541q-15 -51 -58 -51q-42 0 -59 50z" />
<glyph unicode="X" horiz-adv-x="603" d="M150 655l155 -213l154 212q39 56 84 24q41 -29 3 -83l-176 -233l197 -261q16 -21 15 -47t-22 -42q-25 -16 -47.5 -10t-39.5 29l-178 242l-168 -236q-40 -58 -86 -27q-21 18 -21 40t16 43l194 262l-177 232q-16 22 -16 47.5t21 42.5q29 18 52 10.5t40 -32.5z" />
<glyph unicode="Y" horiz-adv-x="566" d="M267 62v237l-197 282q-42 65 6 99q30 17 53 7t41 -38l161 -242l156 242q17 26 38 36t51 -5q22 -18 21.5 -40t-16.5 -46l-194 -290v-242q0 -27 -16 -44t-44 -17q-29 0 -44.5 17t-15.5 44z" />
<glyph unicode="Z" horiz-adv-x="574" d="M96 0q-46 0 -57.5 35.5t12.5 64.5l350 483h-293q-27 0 -42.5 15t-15.5 39q0 25 15.5 39t42.5 14h384q45 0 58 -32.5t-12 -64.5l-350 -486h316q27 0 42 -14.5t15 -39.5q0 -24 -15.5 -38.5t-41.5 -14.5h-408z" />
<glyph unicode="[" horiz-adv-x="309" d="M230 -70h-118q-28 0 -42.5 16t-14.5 42v713q0 59 55 59h120q24 0 39 -13t15 -35q0 -48 -54 -48h-67v-638h67q24 0 39 -13t15 -35q0 -48 -54 -48z" />
<glyph unicode="\" horiz-adv-x="330" d="M280 -65l-278 785q-21 62 24 77q47 15 65 -40l279 -791q9 -21 3.5 -43.5t-27.5 -29.5q-46 -14 -66 42z" />
<glyph unicode="]" horiz-adv-x="309" d="M191 -70h-118q-54 0 -54 48q0 22 15 35t39 13h67v638h-67q-54 0 -54 48q0 22 15 35t39 13h120q55 0 55 -59v-713q0 -26 -14.5 -42t-42.5 -16z" />
<glyph unicode="^" horiz-adv-x="565" d="M340 664l171 -235q15 -16 14.5 -40t-20.5 -38q-44 -31 -83 24l-143 203l-143 -207q-37 -51 -78 -23q-18 14 -17 35t16 41l169 240q25 36 57 36q29 0 57 -36z" />
<glyph unicode="_" horiz-adv-x="584" d="M525 -122h-466q-24 0 -39 13t-15 37q0 23 15 36.5t39 13.5h466q24 0 39 -13.5t15 -36.5q0 -24 -15 -37t-39 -13z" />
<glyph unicode="`" horiz-adv-x="519" d="M319 561l-117 77q-46 31 -24 65q22 33 66 4l121 -80q46 -30 20 -65q-23 -32 -66 -1z" />
<glyph unicode="a" horiz-adv-x="503" d="M335 58v18q-49 -86 -160 -86q-75 0 -117.5 40t-42.5 107q0 85 61.5 124.5t153.5 39.5q63 0 105 -7v11q0 48 -21 74.5t-81 26.5q-13 0 -25 -1t-24.5 -4t-20.5 -6l-24 -7q-16 -5 -24 -7q-18 -6 -34.5 0t-22.5 23q-12 35 25 59q55 37 163 37q197 0 197 -186v-256 q0 -26 -13.5 -42t-40.5 -16t-40.5 16.5t-13.5 41.5zM205 78q60 0 95 39.5t35 90.5v17q-32 5 -89 5q-120 0 -120 -84q0 -31 21 -49.5t58 -18.5z" />
<glyph unicode="b" horiz-adv-x="544" d="M60 58v574q0 25 14.5 41.5t41.5 16.5t42 -16.5t15 -41.5v-208q47 76 146 76q92 0 141 -65.5t49 -174.5q0 -122 -56.5 -196t-168.5 -74q-80 0 -126 26q-14 -16 -42 -16q-27 0 -41.5 16.5t-14.5 41.5zM296 404q-123 0 -123 -217v-78q40 -23 99 -23q121 0 121 176 q0 142 -97 142z" />
<glyph unicode="c" horiz-adv-x="461" d="M420 36q-58 -46 -155 -46q-108 0 -169 66t-61 185q0 120 63.5 189.5t173.5 69.5q85 0 129 -28q43 -27 25 -67q-17 -36 -66 -21q-51 15 -85 15q-58 0 -91 -42t-33 -116q0 -70 34.5 -110t90.5 -40q40 0 96 28q48 23 68 -10q23 -38 -20 -73z" />
<glyph unicode="d" horiz-adv-x="544" d="M484 632v-574q0 -25 -14.5 -41.5t-41.5 -16.5t-42 16.5t-15 41.5v8q-45 -76 -146 -76q-92 0 -141 65.5t-49 174.5q0 122 56.5 196t168.5 74q64 0 111 -19v151q0 25 15 41.5t42 16.5t41.5 -16.5t14.5 -41.5zM248 86q123 0 123 217v78q-40 23 -99 23q-121 0 -121 -176 q0 -142 97 -142z" />
<glyph unicode="e" horiz-adv-x="506" d="M402 204h-255q2 -57 37 -90t93 -33q44 0 106 26q44 18 62 -14q9 -15 3.5 -33.5t-24.5 -30.5q-58 -39 -158 -39q-112 0 -171.5 66t-59.5 187q0 117 63 187t170 70q96 0 150.5 -54.5t54.5 -144.5q0 -29 -5 -47q-7 -26 -22 -38t-44 -12zM268 409q-53 0 -84.5 -32.5 t-36.5 -93.5h221q1 10 1 25q0 45 -25.5 73t-75.5 28z" />
<glyph unicode="f" horiz-adv-x="332" d="M60 -142v636q0 106 36 151q44 55 134 55q72 0 109 -23q39 -23 26 -60q-13 -38 -64 -24q-37 11 -66 11q-62 0 -62 -78v-36h85q54 0 54 -48t-54 -48h-85v-536q0 -25 -15 -41.5t-42 -16.5t-41.5 16.5t-14.5 41.5z" />
<glyph unicode="g" horiz-adv-x="513" d="M50 331q0 77 52 123t148 46q40 0 78 -10h138q46 0 46 -40q0 -39 -46 -39h-35q20 -40 20 -80q0 -75 -52.5 -121t-148.5 -46q-54 0 -95 15q-27 -17 -27 -41q0 -22 33 -34t120 -16q101 -4 155.5 -32.5t54.5 -94.5q0 -76 -65 -123.5t-186 -47.5t-173 40.5t-52 100.5 q0 70 72 111q-47 26 -47 79q0 52 54 96q-44 44 -44 114zM249 4q-43 3 -78 9q-54 -25 -54 -69q0 -28 29.5 -47.5t92.5 -19.5q73 0 108.5 21t35.5 54q0 25 -29.5 36t-104.5 16zM151 331q0 -37 26.5 -59t72.5 -22t72.5 22t26.5 59t-26.5 60t-72.5 23t-72.5 -23t-26.5 -60z" />
<glyph unicode="h" horiz-adv-x="552" d="M60 58v574q0 25 14.5 41.5t41.5 16.5t42 -16.5t15 -41.5v-215q22 41 61.5 62t86.5 21q93 0 132 -54t39 -160v-228q0 -25 -15 -41.5t-42 -16.5t-41.5 16.5t-14.5 41.5v230q0 112 -85 112q-35 0 -59.5 -17t-37 -48.5t-18 -66.5t-6.5 -81v-129q0 -25 -15 -41.5t-42 -16.5 t-41.5 16.5t-14.5 41.5z" />
<glyph unicode="i" horiz-adv-x="233" d="M60 58v374q0 25 14.5 41.5t41.5 16.5t42 -16.5t15 -41.5v-374q0 -25 -15 -41.5t-42 -16.5t-41.5 16.5t-14.5 41.5zM51 619q0 28 17.5 44.5t47.5 16.5t48 -16.5t18 -44.5q0 -29 -18 -45t-48 -16t-47.5 15.5t-17.5 45.5z" />
<glyph unicode="j" horiz-adv-x="237" d="M78 -23v455q0 24 15 41t42 17t41.5 -16.5t14.5 -41.5v-466q0 -176 -155 -176q-65 0 -103 19q-46 22 -32 66q11 35 57 26q44 -10 61 -10q35 0 47 21t12 65zM69 619q0 28 17.5 44.5t47.5 16.5t48 -16.5t18 -44.5q0 -29 -18 -45t-48 -16t-47.5 15.5t-17.5 45.5z" />
<glyph unicode="k" horiz-adv-x="462" d="M60 58v574q0 25 14.5 41.5t40.5 16.5q27 0 41.5 -16.5t14.5 -41.5v-365l170 194q45 51 84 14q15 -15 13 -36t-21 -41l-141 -150l158 -150q19 -18 21.5 -40.5t-12.5 -38.5q-39 -42 -87 8l-185 188v-157q0 -25 -14.5 -41.5t-41.5 -16.5t-41 16.5t-14 41.5z" />
<glyph unicode="l" horiz-adv-x="337" d="M60 154v478q0 25 14.5 41.5t41.5 16.5t42 -16.5t15 -41.5v-462q0 -42 13 -61t44 -19q24 0 53 12q19 8 36.5 3t24.5 -22q17 -44 -32 -71q-38 -22 -101 -22q-151 0 -151 164z" />
<glyph unicode="m" horiz-adv-x="833" d="M361 58v212q0 68 -14 101t-59 33q-115 0 -117 -213v-133q0 -25 -14.5 -41.5t-41.5 -16.5t-41 16.5t-14 41.5v374q0 25 14.5 41.5t40.5 16.5q27 0 41.5 -16.5t14.5 -41.5v-16q49 84 152 84q49 0 84 -25t48 -72q21 46 65 71.5t97 25.5q87 0 121.5 -53t34.5 -158v-231 q0 -25 -14.5 -41.5t-41.5 -16.5t-41 16.5t-14 41.5v234q0 55 -15 83.5t-58 28.5q-117 0 -117 -222v-124q0 -25 -14.5 -41.5t-41.5 -16.5t-41 16.5t-14 41.5z" />
<glyph unicode="n" horiz-adv-x="552" d="M60 58v374q0 25 14.5 41.5t41.5 16.5t42 -16.5t15 -41.5v-15q22 41 61.5 62t86.5 21q93 0 132 -54t39 -160v-228q0 -25 -15 -41.5t-42 -16.5t-41.5 16.5t-14.5 41.5v230q0 112 -85 112q-35 0 -59.5 -17t-37 -48.5t-18 -66.5t-6.5 -81v-129q0 -25 -15 -41.5t-42 -16.5 t-41.5 16.5t-14.5 41.5z" />
<glyph unicode="o" horiz-adv-x="549" d="M35 245q0 113 63 184t176 71t176.5 -71.5t63.5 -183.5t-63.5 -183.5t-176.5 -71.5t-176 71t-63 184zM151 245q0 -71 32 -115t91 -44q60 0 92 44t32 115t-32 115t-92 44q-59 0 -91 -44.5t-32 -114.5z" />
<glyph unicode="p" horiz-adv-x="544" d="M60 -142v574q0 25 14.5 41.5t41.5 16.5t42 -16.5t15 -41.5v-8q45 76 146 76q92 0 141 -65.5t49 -174.5q0 -122 -56.5 -196t-168.5 -74q-64 0 -111 19v-151q0 -25 -15 -41.5t-42 -16.5t-41.5 16.5t-14.5 41.5zM296 404q-123 0 -123 -217v-78q40 -23 99 -23q121 0 121 176 q0 142 -97 142z" />
<glyph unicode="q" horiz-adv-x="544" d="M484 432v-574q0 -25 -14.5 -41.5t-41.5 -16.5t-42 16.5t-15 41.5v208q-45 -76 -146 -76q-92 0 -141 65.5t-49 174.5q0 122 56.5 196t168.5 74q80 0 126 -26q14 16 42 16q27 0 41.5 -16.5t14.5 -41.5zM248 86q123 0 123 217v78q-40 23 -99 23q-121 0 -121 -176 q0 -142 97 -142z" />
<glyph unicode="r" horiz-adv-x="367" d="M60 58v374q0 25 14.5 41.5t41.5 16.5t42 -16.5t15 -37.5q16 29 44 46.5t61 17.5q58 0 81.5 -29t9.5 -60q-17 -38 -63 -22q-27 9 -47 9q-86 0 -86 -171v-169q0 -25 -15 -41.5t-42 -16.5t-41.5 16.5t-14.5 41.5z" />
<glyph unicode="s" horiz-adv-x="433" d="M238 500q86 0 143 -33q46 -26 28 -66q-16 -34 -63 -19q-69 27 -104 27q-67 0 -67 -45q0 -25 26 -41.5t63 -28t74 -26.5t63 -47t26 -79q0 -73 -49.5 -112.5t-148.5 -39.5q-98 0 -156 38q-42 30 -23 69q18 37 73 12q63 -28 116 -28q74 0 74 51q0 26 -26 42.5t-63 28.5 t-74 27t-63 48t-26 82q0 68 48 104t129 36z" />
<glyph unicode="t" horiz-adv-x="337" d="M60 159v393q0 25 14.5 41.5t41.5 16.5t42 -16.5t15 -41.5v-62h85q54 0 54 -48t-54 -48h-85v-223q0 -43 13 -62t44 -19q24 0 53 12q19 8 36 3t24 -22q17 -42 -31 -70q-40 -23 -100 -23q-152 0 -152 169z" />
<glyph unicode="u" horiz-adv-x="552" d="M492 432v-374q0 -25 -14.5 -41.5t-41.5 -16.5t-42 16.5t-15 41.5v15q-22 -41 -61.5 -62t-86.5 -21q-93 0 -132 54t-39 160v228q0 25 15 41.5t42 16.5t41.5 -16.5t14.5 -41.5v-230q0 -112 85 -112q35 0 59.5 17t37 48.5t18 66.5t6.5 81v129q0 25 15 41.5t42 16.5 t41.5 -16.5t14.5 -41.5z" />
<glyph unicode="v" horiz-adv-x="466" d="M448 408l-155 -372q-19 -46 -53 -46q-35 0 -53 43l-157 367q-12 22 -6 48.5t31 36.5q26 10 46 -1t30 -39l110 -288l111 285q23 63 74 43q24 -9 28.5 -32.5t-6.5 -44.5z" />
<glyph unicode="w" horiz-adv-x="652" d="M656 410l-111 -359q-10 -31 -23 -46t-39 -15q-24 0 -37 13.5t-23 41.5l-73 226l-68 -223q-9 -29 -22.5 -43.5t-38.5 -14.5t-37.5 14.5t-22.5 44.5l-113 342q-25 78 26 95q30 10 49 -6t32 -60l78 -262l71 225q14 44 49 44q34 0 50 -44l77 -227l78 277q19 68 69 55 q49 -13 29 -78z" />
<glyph unicode="x" horiz-adv-x="464" d="M143 458l99 -133l105 134q15 22 35.5 28.5t42.5 -9.5q34 -29 -5 -78l-115 -142l134 -163q17 -21 17 -43.5t-19 -38.5q-44 -36 -85 18l-119 149l-113 -149q-41 -54 -83 -17q-16 17 -13 37.5t19 40.5l129 156l-115 143q-41 51 0 86q23 17 46 11t40 -30z" />
<glyph unicode="y" horiz-adv-x="465" d="M210 0l-170 401q-12 23 -6 48.5t32 35.5q55 21 79 -41l117 -310l103 306q21 65 74 46q45 -15 22 -78l-156 -413q-44 -118 -84.5 -161.5t-105.5 -43.5q-48 0 -81 18q-50 28 -31 70q15 33 59 20q38 -12 54 -12q32 0 52 28.5t42 85.5z" />
<glyph unicode="z" horiz-adv-x="453" d="M102 490h274q44 0 55 -32t-14 -61l-242 -301h213q53 0 53 -48t-53 -48h-296q-41 0 -52 31.5t13 60.5l246 302h-197q-53 0 -53 48t53 48z" />
<glyph unicode="{" horiz-adv-x="338" d="M139 345q56 -25 56 -99v-171q0 -60 44 -60q8 0 22 3.5t16 3.5q38 7 48 -28q11 -37 -32 -60q-25 -14 -69 -14q-70 0 -102.5 42t-32.5 112v160q0 39 -30 62q-25 22 -25 49t25 48q30 25 30 62v160q0 71 32.5 113t102.5 42q41 0 69 -14q20 -10 28.5 -26.5t3.5 -33.5 q-12 -37 -48 -29q-32 8 -38 8q-44 0 -44 -60v-172q0 -74 -56 -98z" />
<glyph unicode="|" horiz-adv-x="215" d="M60 -60v809q0 22 12.5 36.5t35.5 14.5t35 -14.5t12 -36.5v-809q0 -22 -12 -36t-35 -14t-35.5 14t-12.5 36z" />
<glyph unicode="}" horiz-adv-x="338" d="M204 345q-56 24 -56 98v172q0 60 -44 60q-6 0 -38 -8q-36 -8 -48 29q-5 17 3.5 33.5t28.5 26.5q28 14 69 14q70 0 102.5 -42t32.5 -113v-160q0 -37 30 -62q25 -21 25 -48t-25 -49q-30 -23 -30 -62v-160q0 -70 -32.5 -112t-102.5 -42q-44 0 -69 14q-43 23 -32 60 q10 35 48 28q2 0 16 -3.5t22 -3.5q44 0 44 60v171q0 74 56 99z" />
<glyph unicode="~" horiz-adv-x="495" d="M331 335q27 0 51 19q41 33 68 6q14 -15 10.5 -35t-20.5 -38q-48 -48 -106 -48q-30 0 -87 21t-79 21q-28 0 -55 -20q-39 -30 -64 -6q-14 12 -11.5 34t20.5 40q50 48 106 48q34 0 93 -21t74 -21z" />
<glyph unicode="&#xa1;" horiz-adv-x="239" d="M50 626q0 29 17.5 46.5t51.5 17.5q33 0 51.5 -17.5t18.5 -46.5t-18.5 -47t-51.5 -18t-51 18t-18 47zM62 53v378q0 26 15 42.5t42 16.5t41.5 -16.5t14.5 -42.5v-378q0 -25 -14.5 -41.5t-41.5 -16.5t-42 17t-15 41z" />
<glyph unicode="&#xa2;" d="M459 37q-39 -32 -96 -41v-51q0 -59 -53 -59q-27 0 -40 17t-13 42v49q-87 14 -135 78t-48 169q0 104 48.5 170.5t134.5 83.5v50q0 25 13 41.5t40 16.5q53 0 53 -58v-49q46 -6 77 -24q44 -26 25 -67q-17 -36 -66 -21q-51 15 -85 15q-58 0 -91 -42t-33 -116q0 -70 34.5 -110 t90.5 -40q40 0 96 28q48 23 68 -10q23 -37 -20 -72z" />
<glyph unicode="&#xa3;" d="M101 351h24q-39 82 -39 151q0 92 58.5 145t157.5 53q122 -1 186 -64q28 -28 9 -62q-18 -30 -61 -16q-4 2 -24 10l-27 10q-7 3 -23.5 7.5t-30.5 6.5t-29 2q-46 0 -71.5 -25.5t-25.5 -69.5q0 -45 33 -121l12 -27h118q49 0 49 -46t-49 -46h-89q4 -19 4 -45q0 -74 -41 -113 h223q53 0 53 -51q0 -23 -13.5 -36.5t-39.5 -13.5h-362q-26 0 -40 13.5t-14 36.5q0 51 53 51q33 0 52.5 27.5t19.5 67.5q0 31 -10 63h-63q-49 0 -49 46t49 46z" />
<glyph unicode="&#xa4;" horiz-adv-x="629" d="M99 351q0 75 33 128l-50 52q-20 20 -23.5 43t15.5 43q22 18 43.5 14.5t38.5 -23.5l50 -59q54 31 123 31q70 0 122 -30l50 58q17 20 38.5 23.5t43.5 -14.5q19 -20 15.5 -43t-23.5 -43l-51 -52q34 -53 34 -128q0 -74 -33 -129l50 -51q20 -20 23.5 -43t-15.5 -43 q-22 -18 -43.5 -14.5t-38.5 23.5l-49 57q-54 -30 -123 -30q-68 0 -124 31l-49 -58q-17 -20 -38.5 -23.5t-43.5 14.5q-19 20 -15.5 43t23.5 43l50 51q-33 55 -33 129zM195 350q0 -63 37 -100.5t97 -37.5t96.5 37.5t36.5 100.5t-36.5 101t-96.5 38q-59 0 -96.5 -39.5 t-37.5 -99.5z" />
<glyph unicode="&#xa5;" d="M118 331h83l-165 260q-15 20 -13.5 47t25.5 42q51 32 86 -29l150 -253l144 252q33 60 82 31q21 -12 22.5 -35.5t-13.5 -45.5l-165 -269h89q41 0 41 -35t-41 -35h-103v-56h103q41 0 41 -35t-41 -35h-103v-74q0 -27 -16 -44t-44 -17q-29 0 -44.5 17t-15.5 44v74h-102 q-42 0 -42 35t42 35h102v56h-102q-42 0 -42 35t42 35z" />
<glyph unicode="&#xa6;" horiz-adv-x="215" d="M60 -60v304q0 22 12.5 36.5t35.5 14.5t35 -14.5t12 -36.5v-304q0 -22 -12 -36t-35 -14t-35.5 14t-12.5 36zM60 445v304q0 22 12.5 36.5t35.5 14.5t35 -14.5t12 -36.5v-304q0 -22 -12 -36t-35 -14t-35.5 14t-12.5 36z" />
<glyph unicode="&#xa7;" horiz-adv-x="562" d="M92 525q0 81 54 128t156 47q95 0 153 -36q48 -29 30 -70q-10 -20 -28.5 -22t-36.5 6q-80 26 -116 26q-49 0 -73.5 -22t-24.5 -58q0 -10 2.5 -19t5 -16.5t9.5 -14.5t11.5 -12t15 -11t15.5 -9.5t18 -8.5l18 -8q5 -2 20 -7.5t19 -7.5q80 -32 123.5 -76t43.5 -109 q0 -58 -31.5 -99t-75.5 -63q70 -51 70 -140q0 -78 -54 -126.5t-156 -48.5q-95 0 -153 36q-48 29 -30 70q10 20 28.5 22t36.5 -6q80 -26 116 -26q49 0 73.5 22t24.5 58q0 10 -2.5 19t-5 16.5t-9.5 14.5t-11.5 12t-15 11t-15.5 9.5t-18 9.5l-18 7q-5 2 -20 7.5t-19 7.5 q-82 32 -124.5 74.5t-42.5 110.5q0 106 107 162q-70 51 -70 140zM169 240q0 -40 23.5 -64t69.5 -44q10 -5 30.5 -13t29.5 -12q71 34 71 101q0 40 -23.5 64t-69.5 44l-61 24q-70 -33 -70 -100z" />
<glyph unicode="&#xa8;" horiz-adv-x="519" d="M101 618q0 28 16.5 44.5t46.5 16.5q29 0 46 -17t17 -44q0 -28 -17 -44.5t-46 -16.5q-30 0 -46.5 16t-16.5 45zM292 618q0 28 16.5 44.5t45.5 16.5t46 -17t17 -44q0 -28 -17 -44.5t-46 -16.5q-30 0 -46 16t-16 45z" />
<glyph unicode="&#xa9;" horiz-adv-x="776" d="M405 456q-41 0 -63.5 -28.5t-22.5 -82.5q0 -53 22 -80.5t61 -27.5q22 0 63 18q36 16 57 -9q23 -30 -9 -61q-19 -17 -51.5 -28t-64.5 -11q-92 0 -139.5 52.5t-47.5 146.5q0 96 52 149t138 53q65 0 101 -28q30 -23 16 -54t-54 -19q-32 10 -58 10zM37 345q0 156 94 255.5 t256 99.5t257 -99.5t95 -255.5t-95 -255.5t-257 -99.5t-256 99.5t-94 255.5zM122 345q0 -125 71.5 -199.5t193.5 -74.5q123 0 195 74.5t72 199.5q0 124 -72.5 199t-194.5 75t-193.5 -75t-71.5 -199z" />
<glyph unicode="&#xaa;" horiz-adv-x="401" d="M108 601q-13 -4 -26.5 1t-18.5 21q-11 34 31 53q50 24 114 24q159 0 159 -134v-183q0 -53 -51 -53q-41 0 -50 39q-34 -49 -108 -49q-57 0 -90 31t-33 86q0 62 43.5 96t114.5 34q30 0 73 -9v6q0 29 -14.5 42.5t-49.5 13.5q-18 0 -94 -19zM188 395q43 0 60.5 28.5 t17.5 63.5v11q-27 8 -59 8q-33 0 -50 -18t-17 -47q0 -21 14.5 -33.5t33.5 -12.5z" />
<glyph unicode="&#xab;" horiz-adv-x="552" d="M324 295l137 138q19 20 40.5 22.5t39.5 -15.5q31 -35 -12 -78l-115 -113l118 -118q20 -20 22.5 -42t-14.5 -39q-18 -15 -39 -12t-39 20l-140 140q-48 49 2 97zM108 295l137 138q19 20 40.5 22.5t39.5 -15.5q31 -35 -12 -78l-115 -113l118 -118q20 -20 22.5 -42t-14.5 -39 q-18 -15 -39 -12t-39 20l-140 140q-48 49 2 97z" />
<glyph unicode="&#xac;" horiz-adv-x="515" d="M363 209v71h-265q-53 0 -53 48q0 23 14.5 35.5t38.5 12.5h318q26 0 40 -14t14 -40v-113q0 -25 -13.5 -41.5t-40.5 -16.5t-40 16.5t-13 41.5z" />
<glyph unicode="&#xad;" horiz-adv-x="358" d="M301 217h-244q-24 0 -39 13t-15 37q0 23 15 36.5t39 13.5h244q24 0 39 -13.5t15 -36.5q0 -24 -15 -37t-39 -13z" />
<glyph unicode="&#xae;" horiz-adv-x="666" d="M245 339v185q0 21 5.5 29t20.5 13q25 7 58 7q44 0 71 -20t27 -59q0 -54 -47 -73l44 -66q17 -28 -4 -40q-23 -12 -41 17l-47 77h-18q-16 0 -22 1v-71q0 -28 -23 -28q-24 0 -24 28zM75 440q0 115 70.5 187.5t187.5 72.5q118 0 188 -72.5t70 -187.5t-70 -187.5t-188 -72.5 q-117 0 -187.5 72.5t-70.5 187.5zM157 440q0 -82 48 -132t128 -50t127.5 50t47.5 132t-47.5 131.5t-127.5 49.5t-128 -49.5t-48 -131.5zM321 450q31 0 43.5 9.5t12.5 33.5q0 38 -53 38q-18 0 -32 -4v-76q7 -1 29 -1z" />
<glyph unicode="&#xaf;" horiz-adv-x="519" d="M374 568h-229q-47 0 -47 40t47 40h229q47 0 47 -40t-47 -40z" />
<glyph unicode="&#xb0;" horiz-adv-x="550" d="M116 541q0 72 42.5 115.5t116.5 43.5q73 0 115.5 -43.5t42.5 -115.5q0 -73 -42.5 -116.5t-115.5 -43.5q-74 0 -116.5 43.5t-42.5 116.5zM201 541q0 -38 19.5 -58t54.5 -20t54 20t19 58q0 77 -73 77q-35 0 -54.5 -19.5t-19.5 -57.5z" />
<glyph unicode="&#xb1;" horiz-adv-x="515" d="M205 281v19h-107q-53 0 -53 48q0 23 14.5 35.5t38.5 12.5h107v97q0 59 52 59t52 -59v-97h108q24 0 38.5 -12.5t14.5 -35.5q0 -48 -53 -48h-108v-19q0 -58 -52 -58t-52 58zM417 115h-319q-53 0 -53 48q0 23 14.5 35.5t38.5 12.5h319q24 0 38.5 -12.5t14.5 -35.5 q0 -48 -53 -48z" />
<glyph unicode="&#xb2;" horiz-adv-x="311" d="M248 415q50 0 50 -42q0 -43 -50 -43h-182q-42 0 -42 44q0 38 16.5 68t40 49t47.5 34.5t40.5 31t16.5 31.5q0 25 -33 25q-22 0 -72 -20q-36 -14 -52 13q-8 15 -3 31t20 27q46 36 116 36q60 0 93 -28t33 -75q0 -31 -14.5 -55t-35.5 -39.5t-42.5 -28.5t-39 -28t-21.5 -31 h114z" />
<glyph unicode="&#xb3;" horiz-adv-x="331" d="M162 406q55 0 55 42t-77 42q-32 0 -37.5 24t13.5 38l70 57h-87q-50 0 -50 41q0 40 50 40h165q34 0 40.5 -30t-19.5 -49l-79 -62q52 -4 82.5 -30.5t30.5 -72.5q0 -62 -42 -94t-113 -32q-72 0 -107 27q-32 24 -18 57q12 27 45 18q54 -16 78 -16z" />
<glyph unicode="&#xb4;" horiz-adv-x="519" d="M365 636l-116 -76q-43 -31 -66 2q-26 36 21 67l120 78q43 28 65 -5q21 -35 -24 -66z" />
<glyph unicode="&#xb5;" horiz-adv-x="552" d="M60 -142v574q0 25 15 41.5t42 16.5t41.5 -16.5t14.5 -41.5v-230q0 -112 85 -112q35 0 59.5 17t37 48.5t18 66.5t6.5 81v129q0 25 15 41.5t42 16.5t41.5 -16.5t14.5 -41.5v-374q0 -25 -14.5 -41.5t-41.5 -16.5t-42 16.5t-15 41.5v15q-33 -83 -118 -83q-55 0 -88 35v-167 q0 -25 -15 -41.5t-42 -16.5t-41.5 16.5t-14.5 41.5z" />
<glyph unicode="&#xb6;" horiz-adv-x="456" d="M146 -60v350q-61 4 -101 60.5t-40 139.5q0 85 50.5 142.5t128.5 57.5q30 0 43 -13.5t13 -41.5v-695q0 -22 -12 -36t-35 -14t-35 14t-12 36zM285 -60v699q0 22 12.5 36.5t35.5 14.5t35.5 -14.5t12.5 -36.5v-699q0 -22 -12.5 -36t-35.5 -14t-35.5 14t-12.5 36z" />
<glyph unicode="&#xb7;" horiz-adv-x="239" d="M50 329q0 29 18.5 49.5t50.5 20.5t51 -20.5t19 -49.5q0 -30 -18.5 -49.5t-51.5 -19.5t-51 19.5t-18 49.5z" />
<glyph unicode="&#xb8;" horiz-adv-x="405" d="M132 -164q36 -9 53 -9q43 0 43 32q0 18 -13.5 26.5t-45.5 13.5q-16 2 -21.5 12t-2.5 23l16 70q9 36 43 31t26 -42l-7 -36q55 -3 79 -31t24 -66q0 -43 -31 -71.5t-94 -28.5q-58 0 -90 17q-14 7 -19 20t1 25q9 22 39 14z" />
<glyph unicode="&#xb9;" horiz-adv-x="281" d="M129 382v184l-50 -45q-11 -11 -26 -14t-31 10q-12 11 -10.5 27.5t16.5 31.5l100 99q23 25 52 25q44 0 44 -53v-265q0 -52 -48 -52q-47 0 -47 52z" />
<glyph unicode="&#xba;" horiz-adv-x="370" d="M23 509q0 89 42.5 140t119.5 51t119.5 -51t42.5 -140q0 -88 -42.5 -138.5t-119.5 -50.5t-119.5 50.5t-42.5 138.5zM249 509q0 108 -64 108t-64 -108q0 -106 64 -106t64 106z" />
<glyph unicode="&#xbb;" horiz-adv-x="552" d="M507 198l-137 -138q-19 -20 -40.5 -22.5t-39.5 15.5q-31 35 12 78l115 113l-118 118q-20 20 -22.5 42t14.5 39q18 15 39 12t39 -20l140 -140q48 -49 -2 -97zM291 198l-137 -138q-19 -20 -40.5 -22.5t-39.5 15.5q-31 35 12 78l115 113l-118 118q-20 20 -22.5 42t14.5 39 q18 15 39 12t39 -20l140 -140q48 -49 -2 -97z" />
<glyph unicode="&#xbc;" horiz-adv-x="724" d="M652 91v-43q0 -48 -44 -48q-43 0 -43 48v43h-124q-35 0 -44 27.5t12 52.5l147 174q25 30 52 30q44 0 44 -53v-159h15q38 0 38 -36t-38 -36h-15zM568 251l-78 -88h78v88zM510 666l-231 -662q-20 -56 -64 -41q-38 13 -18 71l233 661q19 58 62 42q38 -13 18 -71zM129 382 v184l-50 -45q-11 -11 -26 -14t-31 10q-12 11 -10.5 27.5t16.5 31.5l100 99q23 25 52 25q44 0 44 -53v-265q0 -52 -48 -52q-47 0 -47 52z" />
<glyph unicode="&#xbd;" horiz-adv-x="755" d="M689 85q50 0 50 -42q0 -43 -50 -43h-182q-42 0 -42 44q0 38 16.5 68t40 49t47.5 34.5t40.5 31t16.5 31.5q0 25 -33 25q-22 0 -72 -20q-36 -14 -52 13q-8 15 -3 31t20 27q46 36 116 36q60 0 93 -28t33 -75q0 -31 -14.5 -55t-35.5 -39.5t-42.5 -28.5t-39 -28t-21.5 -31h114 zM506 666l-231 -662q-20 -56 -64 -41q-38 13 -18 71l233 661q19 58 62 42q38 -13 18 -71zM129 382v184l-50 -45q-11 -11 -26 -14t-31 10q-12 11 -10.5 27.5t16.5 31.5l100 99q23 25 52 25q44 0 44 -53v-265q0 -52 -48 -52q-47 0 -47 52z" />
<glyph unicode="&#xbe;" horiz-adv-x="763" d="M704 91v-43q0 -48 -44 -48q-43 0 -43 48v43h-124q-35 0 -44 27.5t12 52.5l147 174q25 30 52 30q44 0 44 -53v-159h15q38 0 38 -36t-38 -36h-15zM620 251l-78 -88h78v88zM162 406q55 0 55 42t-77 42q-32 0 -37.5 24t13.5 38l70 57h-87q-50 0 -50 41q0 40 50 40h165 q34 0 40.5 -30t-19.5 -49l-79 -62q52 -4 82.5 -30.5t30.5 -72.5q0 -62 -42 -94t-113 -32q-72 0 -107 27q-32 24 -18 57q12 27 45 18q54 -16 78 -16zM565 666l-231 -662q-20 -56 -64 -41q-38 13 -18 71l233 661q19 58 62 42q38 -13 18 -71z" />
<glyph unicode="&#xbf;" horiz-adv-x="412" d="M202 -10q-90 0 -136.5 45t-46.5 108q0 37 15 70t31 52t47 48q37 35 52.5 59.5t15.5 61.5q0 56 51 56q50 0 50 -56q0 -49 -19.5 -85.5t-56.5 -73.5q-26 -26 -38 -40t-21.5 -35t-9.5 -45q0 -29 20.5 -49t58.5 -20q35 0 92 25q49 22 68 -12q10 -15 3 -35.5t-32 -35.5 q-63 -38 -144 -38zM299 626q0 -29 -18 -47t-51 -18t-51.5 18t-18.5 47t18.5 46.5t51.5 17.5t51 -17.5t18 -46.5z" />
<glyph unicode="&#xc0;" horiz-adv-x="611" d="M509 47l-56 148h-257l-52 -141q-25 -72 -82 -49q-44 19 -20 82l225 564q19 49 61 49q40 0 58 -43l232 -569q11 -22 4.5 -48t-31.5 -35q-28 -10 -49.5 1.5t-32.5 40.5zM322 541l-94 -252h191zM327 741l-139 64q-52 26 -33 65q17 35 67 12l143 -67q53 -24 31 -64 q-18 -34 -69 -10z" />
<glyph unicode="&#xc1;" horiz-adv-x="611" d="M509 47l-56 148h-257l-52 -141q-25 -72 -82 -49q-44 19 -20 82l225 564q19 49 61 49q40 0 58 -43l232 -569q11 -22 4.5 -48t-31.5 -35q-28 -10 -49.5 1.5t-32.5 40.5zM322 541l-94 -252h191zM488 805l-139 -64q-53 -24 -69 10q-21 40 31 64l143 67q50 23 67 -12 q19 -39 -33 -65z" />
<glyph unicode="&#xc2;" horiz-adv-x="611" d="M509 47l-56 148h-257l-52 -141q-25 -72 -82 -49q-44 19 -20 82l225 564q19 49 61 49q40 0 58 -43l232 -569q11 -22 4.5 -48t-31.5 -35q-28 -10 -49.5 1.5t-32.5 40.5zM322 541l-94 -252h191zM181 811l109 62q32 18 65 0l120 -65q44 -23 23 -62q-18 -35 -61 -11l-116 64 l-108 -61q-20 -11 -36.5 -8t-24.5 20q-16 36 29 61z" />
<glyph unicode="&#xc3;" horiz-adv-x="611" d="M509 47l-56 148h-257l-52 -141q-25 -72 -82 -49q-44 19 -20 82l225 564q19 49 61 49q40 0 58 -43l232 -569q11 -22 4.5 -48t-31.5 -35q-28 -10 -49.5 1.5t-32.5 40.5zM322 541l-94 -252h191zM401 812q18 0 44 21q32 29 58 7q27 -24 -6 -63q-40 -46 -96 -46q-32 0 -76 22 t-59 22q-20 0 -48 -23q-31 -24 -53 -7q-14 11 -12 30t17 34q41 46 95 46q31 0 77 -21.5t59 -21.5z" />
<glyph unicode="&#xc4;" horiz-adv-x="611" d="M509 47l-56 148h-257l-52 -141q-25 -72 -82 -49q-44 19 -20 82l225 564q19 49 61 49q40 0 58 -43l232 -569q11 -22 4.5 -48t-31.5 -35q-28 -10 -49.5 1.5t-32.5 40.5zM322 541l-94 -252h191zM149 796q0 28 20.5 44t51.5 16q33 0 53.5 -16t20.5 -44t-20.5 -43t-53.5 -15 q-32 0 -52 15t-20 43zM357 796q0 28 20 44t53 16q32 0 52.5 -16t20.5 -44t-20.5 -43t-52.5 -15q-33 0 -53 15t-20 43z" />
<glyph unicode="&#xc5;" horiz-adv-x="611" d="M357 674q5 -7 9 -17l232 -568q11 -22 4.5 -47.5t-30.5 -35.5q-28 -12 -50 -0.5t-33 40.5l-56 149h-258l-51 -141q-10 -30 -31.5 -45.5t-51.5 -3.5q-21 9 -25.5 33t6.5 49l225 564q6 14 12 23q-70 18 -70 88q0 43 31 68t88 25t88 -25t31 -68q0 -33 -18.5 -56.5 t-51.5 -31.5zM302 541l-94 -252h191zM263 762q0 -19 12 -31.5t33 -12.5t33.5 12.5t12.5 31.5q0 18 -13 30.5t-33 12.5q-21 0 -33 -12t-12 -31z" />
<glyph unicode="&#xc6;" horiz-adv-x="867" d="M397 63v112h-201l-86 -133q-10 -16 -23.5 -27.5t-32.5 -14.5t-37 11q-21 19 -19.5 41.5t16.5 45.5l380 554q24 38 65 38h323q26 0 41.5 -14.5t15.5 -39.5q0 -24 -15.5 -38.5t-41.5 -14.5h-271v-175h215q27 0 42.5 -14t15.5 -39q0 -24 -15.5 -39t-42.5 -15h-215v-194h281 q26 0 41.5 -14.5t15.5 -39.5q0 -24 -15.5 -38.5t-41.5 -14.5h-331q-28 0 -46 18t-18 45zM397 490l-145 -223h145v223z" />
<glyph unicode="&#xc7;" horiz-adv-x="634" d="M368 593q-92 0 -144.5 -67.5t-52.5 -179.5q0 -116 56.5 -182.5t143.5 -66.5q69 0 142 43q51 29 76 -7q13 -17 7.5 -41t-30.5 -43q-77 -56 -191 -59l-6 -33q55 -3 79 -31t24 -66q0 -43 -31 -71.5t-94 -28.5q-58 0 -90 17q-14 7 -19 20t1 25q9 22 39 14q36 -9 53 -9 q43 0 43 32q0 18 -13.5 26.5t-45.5 13.5q-16 2 -21.5 12t-2.5 23l13 60q-128 17 -193.5 110t-65.5 241q0 162 85 258.5t236 96.5q119 0 185 -46q44 -30 24 -73q-17 -38 -76 -16q-73 28 -131 28z" />
<glyph unicode="&#xc8;" horiz-adv-x="561" d="M75 62v566q0 27 16 44.5t45 17.5h338q26 0 41.5 -14.5t15.5 -39.5q0 -24 -15.5 -38.5t-41.5 -14.5h-279v-175h223q27 0 42.5 -14t15.5 -39q0 -24 -15.5 -39t-42.5 -15h-223v-194h289q26 0 41.5 -14.5t15.5 -39.5q0 -24 -15.5 -38.5t-41.5 -14.5h-347q-29 0 -45.5 17.5 t-16.5 44.5zM316 741l-139 64q-52 26 -33 65q17 35 67 12l143 -67q53 -24 31 -64q-18 -34 -69 -10z" />
<glyph unicode="&#xc9;" horiz-adv-x="561" d="M75 62v566q0 27 16 44.5t45 17.5h338q26 0 41.5 -14.5t15.5 -39.5q0 -24 -15.5 -38.5t-41.5 -14.5h-279v-175h223q27 0 42.5 -14t15.5 -39q0 -24 -15.5 -39t-42.5 -15h-223v-194h289q26 0 41.5 -14.5t15.5 -39.5q0 -24 -15.5 -38.5t-41.5 -14.5h-347q-29 0 -45.5 17.5 t-16.5 44.5zM447 805l-139 -64q-53 -24 -69 10q-21 40 31 64l143 67q50 23 67 -12q19 -39 -33 -65z" />
<glyph unicode="&#xca;" horiz-adv-x="561" d="M75 62v566q0 27 16 44.5t45 17.5h338q26 0 41.5 -14.5t15.5 -39.5q0 -24 -15.5 -38.5t-41.5 -14.5h-279v-175h223q27 0 42.5 -14t15.5 -39q0 -24 -15.5 -39t-42.5 -15h-223v-194h289q26 0 41.5 -14.5t15.5 -39.5q0 -24 -15.5 -38.5t-41.5 -14.5h-347q-29 0 -45.5 17.5 t-16.5 44.5zM156 811l109 62q32 18 65 0l120 -65q44 -23 23 -62q-18 -35 -61 -11l-116 64l-108 -61q-20 -11 -36.5 -8t-24.5 20q-16 36 29 61z" />
<glyph unicode="&#xcb;" horiz-adv-x="561" d="M75 62v566q0 27 16 44.5t45 17.5h338q26 0 41.5 -14.5t15.5 -39.5q0 -24 -15.5 -38.5t-41.5 -14.5h-279v-175h223q27 0 42.5 -14t15.5 -39q0 -24 -15.5 -39t-42.5 -15h-223v-194h289q26 0 41.5 -14.5t15.5 -39.5q0 -24 -15.5 -38.5t-41.5 -14.5h-347q-29 0 -45.5 17.5 t-16.5 44.5zM115 796q0 28 20.5 44t51.5 16q33 0 53.5 -16t20.5 -44t-20.5 -43t-53.5 -15q-32 0 -52 15t-20 43zM323 796q0 28 20 44t53 16q32 0 52.5 -16t20.5 -44t-20.5 -43t-52.5 -15q-33 0 -53 15t-20 43z" />
<glyph unicode="&#xcc;" horiz-adv-x="270" d="M137 741l-139 64q-52 26 -33 65q17 35 67 12l143 -67q53 -24 31 -64q-18 -34 -69 -10zM94 61v567q0 27 15.5 44.5t44.5 17.5q28 0 44 -17.5t16 -44.5v-567q0 -27 -16 -44t-44 -17q-29 0 -44.5 17t-15.5 44z" />
<glyph unicode="&#xcd;" horiz-adv-x="270" d="M304 805l-139 -64q-53 -24 -69 10q-21 40 31 64l143 67q50 23 67 -12q19 -39 -33 -65zM95 61v567q0 27 15.5 44.5t44.5 17.5q28 0 44 -17.5t16 -44.5v-567q0 -27 -16 -44t-44 -17q-29 0 -44.5 17t-15.5 44z" />
<glyph unicode="&#xce;" horiz-adv-x="270" d="M5 811l109 62q32 18 65 0l120 -65q44 -23 23 -62q-18 -35 -61 -11l-116 64l-108 -61q-20 -11 -36.5 -8t-24.5 20q-16 36 29 61zM91 61v567q0 27 15.5 44.5t44.5 17.5q28 0 44 -17.5t16 -44.5v-567q0 -27 -16 -44t-44 -17q-29 0 -44.5 17t-15.5 44z" />
<glyph unicode="&#xcf;" horiz-adv-x="270" d="M75 61v567q0 27 15.5 44.5t44.5 17.5q28 0 44 -17.5t16 -44.5v-567q0 -27 -16 -44t-44 -17q-29 0 -44.5 17t-15.5 44zM-42 796q0 28 20.5 44t51.5 16q33 0 53.5 -16t20.5 -44t-20.5 -43t-53.5 -15q-32 0 -52 15t-20 43zM166 796q0 28 20 44t53 16q32 0 52.5 -16t20.5 -44 t-20.5 -43t-52.5 -15q-33 0 -53 15t-20 43z" />
<glyph unicode="&#xd0;" horiz-adv-x="711" d="M90 69v248h-44q-41 0 -41 38q0 39 41 39h44v218q0 59 55 69q66 14 168 14q353 0 353 -347q0 -166 -89.5 -259.5t-262.5 -93.5q-109 0 -168 10q-56 10 -56 64zM314 102q226 0 226 246q0 240 -227 240q-45 0 -103 -6v-188h133q41 0 41 -39q0 -38 -41 -38h-133v-210 q44 -5 104 -5z" />
<glyph unicode="&#xd1;" horiz-adv-x="708" d="M522 213v415q0 62 54 62q55 0 55 -62v-567q0 -27 -15.5 -44t-41.5 -17q-30 0 -54 30l-334 443v-412q0 -61 -55 -61q-54 0 -54 61v566q0 63 56 63q35 0 59 -33zM425 812q18 0 44 21q32 29 58 7q27 -24 -6 -63q-40 -46 -96 -46q-32 0 -76 22t-59 22q-20 0 -48 -23 q-31 -24 -53 -7q-14 11 -12 30t17 34q41 46 95 46q31 0 77 -21.5t59 -21.5z" />
<glyph unicode="&#xd2;" horiz-adv-x="747" d="M45 345q0 155 85.5 255t242.5 100t243 -100t86 -255q0 -156 -86 -255.5t-243 -99.5t-242.5 99.5t-85.5 255.5zM171 345q0 -109 52.5 -178.5t149.5 -69.5q98 0 150.5 69.5t52.5 178.5t-52.5 178.5t-150.5 69.5q-97 0 -149.5 -69.5t-52.5 -178.5zM390 741l-139 64 q-52 26 -33 65q17 35 67 12l143 -67q53 -24 31 -64q-18 -34 -69 -10z" />
<glyph unicode="&#xd3;" horiz-adv-x="747" d="M45 345q0 155 85.5 255t242.5 100t243 -100t86 -255q0 -156 -86 -255.5t-243 -99.5t-242.5 99.5t-85.5 255.5zM171 345q0 -109 52.5 -178.5t149.5 -69.5q98 0 150.5 69.5t52.5 178.5t-52.5 178.5t-150.5 69.5q-97 0 -149.5 -69.5t-52.5 -178.5zM516 805l-139 -64 q-53 -24 -69 10q-21 40 31 64l143 67q50 23 67 -12q19 -39 -33 -65z" />
<glyph unicode="&#xd4;" horiz-adv-x="747" d="M227 811l109 62q32 18 65 0l120 -65q44 -23 23 -62q-18 -35 -61 -11l-116 64l-108 -61q-20 -11 -36.5 -8t-24.5 20q-16 36 29 61zM45 345q0 155 85.5 255t242.5 100t243 -100t86 -255q0 -156 -86 -255.5t-243 -99.5t-242.5 99.5t-85.5 255.5zM171 345q0 -109 52.5 -178.5 t149.5 -69.5q98 0 150.5 69.5t52.5 178.5t-52.5 178.5t-150.5 69.5q-97 0 -149.5 -69.5t-52.5 -178.5z" />
<glyph unicode="&#xd5;" horiz-adv-x="747" d="M45 345q0 155 85.5 255t242.5 100t243 -100t86 -255q0 -156 -86 -255.5t-243 -99.5t-242.5 99.5t-85.5 255.5zM171 345q0 -109 52.5 -178.5t149.5 -69.5q98 0 150.5 69.5t52.5 178.5t-52.5 178.5t-150.5 69.5q-97 0 -149.5 -69.5t-52.5 -178.5zM445 812q18 0 44 21 q32 29 58 7q27 -24 -6 -63q-40 -46 -96 -46q-32 0 -76 22t-59 22q-20 0 -48 -23q-31 -24 -53 -7q-14 11 -12 30t17 34q41 46 95 46q31 0 77 -21.5t59 -21.5z" />
<glyph unicode="&#xd6;" horiz-adv-x="747" d="M45 345q0 155 85.5 255t242.5 100t243 -100t86 -255q0 -156 -86 -255.5t-243 -99.5t-242.5 99.5t-85.5 255.5zM171 345q0 -109 52.5 -178.5t149.5 -69.5q98 0 150.5 69.5t52.5 178.5t-52.5 178.5t-150.5 69.5q-97 0 -149.5 -69.5t-52.5 -178.5zM192 796q0 28 20.5 44 t51.5 16q33 0 53.5 -16t20.5 -44t-20.5 -43t-53.5 -15q-32 0 -52 15t-20 43zM400 796q0 28 20 44t53 16q32 0 52.5 -16t20.5 -44t-20.5 -43t-52.5 -15q-33 0 -53 15t-20 43z" />
<glyph unicode="&#xd7;" horiz-adv-x="515" d="M363 327l76 -75q40 -40 6 -78q-20 -19 -40 -16.5t-39 19.5l-76 75l-76 -76q-17 -18 -36 -20.5t-36 14.5q-34 34 3 72l76 77l-76 75q-41 41 -7 79q33 39 80 -4l76 -75l75 76q38 39 71 6q34 -35 -4 -73z" />
<glyph unicode="&#xd8;" horiz-adv-x="747" d="M45 345q0 155 85.5 255t242.5 100q35 0 69 -8l13 35q19 54 65 39q40 -13 22 -69l-12 -32q83 -41 127.5 -126t44.5 -194q0 -156 -86 -255.5t-243 -99.5q-42 0 -80 8l-13 -35q-8 -23 -25 -34t-39 -4q-43 13 -22 70l12 35q-78 43 -119.5 126t-41.5 189zM576 345 q0 70 -23.5 126.5t-67.5 87.5l-163 -456q24 -6 51 -6q98 0 150.5 69.5t52.5 178.5zM171 345q0 -65 22 -121.5t60 -86.5l159 452q-17 4 -39 4q-95 0 -148.5 -68.5t-53.5 -179.5z" />
<glyph unicode="&#xd9;" horiz-adv-x="679" d="M489 276v352q0 27 14.5 44.5t42.5 17.5t43 -17.5t15 -44.5v-347q0 -62 -13 -112t-42 -91.5t-82 -64.5t-126 -23q-141 0 -203.5 79.5t-62.5 209.5v349q0 27 15.5 44.5t43.5 17.5q29 0 45 -17.5t16 -44.5v-354q0 -177 147 -177t147 179zM375 741l-139 64q-52 26 -33 65 q17 35 67 12l143 -67q53 -24 31 -64q-18 -34 -69 -10z" />
<glyph unicode="&#xda;" horiz-adv-x="679" d="M489 276v352q0 27 14.5 44.5t42.5 17.5t43 -17.5t15 -44.5v-347q0 -62 -13 -112t-42 -91.5t-82 -64.5t-126 -23q-141 0 -203.5 79.5t-62.5 209.5v349q0 27 15.5 44.5t43.5 17.5q29 0 45 -17.5t16 -44.5v-354q0 -177 147 -177t147 179zM501 805l-139 -64q-53 -24 -69 10 q-21 40 31 64l143 67q50 23 67 -12q19 -39 -33 -65z" />
<glyph unicode="&#xdb;" horiz-adv-x="679" d="M199 811l109 62q32 18 65 0l120 -65q44 -23 23 -62q-18 -35 -61 -11l-116 64l-108 -61q-20 -11 -36.5 -8t-24.5 20q-16 36 29 61zM489 276v352q0 27 14.5 44.5t42.5 17.5t43 -17.5t15 -44.5v-347q0 -62 -13 -112t-42 -91.5t-82 -64.5t-126 -23q-141 0 -203.5 79.5 t-62.5 209.5v349q0 27 15.5 44.5t43.5 17.5q29 0 45 -17.5t16 -44.5v-354q0 -177 147 -177t147 179z" />
<glyph unicode="&#xdc;" horiz-adv-x="679" d="M489 276v352q0 27 14.5 44.5t42.5 17.5t43 -17.5t15 -44.5v-347q0 -62 -13 -112t-42 -91.5t-82 -64.5t-126 -23q-141 0 -203.5 79.5t-62.5 209.5v349q0 27 15.5 44.5t43.5 17.5q29 0 45 -17.5t16 -44.5v-354q0 -177 147 -177t147 179zM164 796q0 28 20.5 44t51.5 16 q33 0 53.5 -16t20.5 -44t-20.5 -43t-53.5 -15q-32 0 -52 15t-20 43zM372 796q0 28 20 44t53 16q32 0 52.5 -16t20.5 -44t-20.5 -43t-52.5 -15q-33 0 -53 15t-20 43z" />
<glyph unicode="&#xdd;" horiz-adv-x="566" d="M267 62v237l-197 282q-42 65 6 99q30 17 53 7t41 -38l161 -242l156 242q17 26 38 36t51 -5q22 -18 21.5 -40t-16.5 -46l-194 -290v-242q0 -27 -16 -44t-44 -17q-29 0 -44.5 17t-15.5 44zM479 805l-139 -64q-53 -24 -69 10q-21 40 31 64l143 67q50 23 67 -12 q19 -39 -33 -65z" />
<glyph unicode="&#xde;" horiz-adv-x="579" d="M75 61v567q0 27 15.5 44.5t44.5 17.5q28 0 44 -17.5t16 -44.5v-11q53 7 91 7q263 0 263 -219q0 -78 -37.5 -131t-96 -75.5t-134.5 -22.5q-58 0 -86 4v-119q0 -27 -16 -44t-44 -17q-29 0 -44.5 17t-15.5 44zM282 519q-33 0 -87 -6v-230q25 -3 78 -3q150 2 150 124 q0 115 -141 115z" />
<glyph unicode="&#xdf;" d="M60 -142v618q0 110 48 167t156 57q94 0 147.5 -38t53.5 -107q0 -34 -16 -65t-35.5 -50t-35.5 -38.5t-16 -33.5t17 -29.5t41.5 -31.5t49.5 -36t42 -52.5t17 -72.5q0 -67 -43.5 -111.5t-133.5 -44.5q-68 0 -108 22q-22 12 -30 32t1 38q15 30 62 14q47 -15 74 -15 q32 0 48 17.5t16 44.5q0 30 -26 56t-57 43t-57 46.5t-26 65.5q0 29 16 56t35 44t35 41.5t16 49.5q0 29 -22.5 44t-62.5 15q-53 0 -73 -34t-20 -111v-601q0 -25 -15 -41.5t-42 -16.5t-41.5 16.5t-14.5 41.5z" />
<glyph unicode="&#xe0;" horiz-adv-x="503" d="M335 58v18q-49 -86 -160 -86q-75 0 -117.5 40t-42.5 107q0 85 61.5 124.5t153.5 39.5q63 0 105 -7v11q0 48 -21 74.5t-81 26.5q-13 0 -25 -1t-24.5 -4t-20.5 -6l-24 -7q-16 -5 -24 -7q-18 -6 -34.5 0t-22.5 23q-12 35 25 59q55 37 163 37q197 0 197 -186v-256 q0 -26 -13.5 -42t-40.5 -16t-40.5 16.5t-13.5 41.5zM205 78q60 0 95 39.5t35 90.5v17q-32 5 -89 5q-120 0 -120 -84q0 -31 21 -49.5t58 -18.5zM238 561l-117 77q-46 31 -24 65q22 33 66 4l121 -80q46 -30 20 -65q-23 -32 -66 -1z" />
<glyph unicode="&#xe1;" horiz-adv-x="503" d="M335 58v18q-49 -86 -160 -86q-75 0 -117.5 40t-42.5 107q0 85 61.5 124.5t153.5 39.5q63 0 105 -7v11q0 48 -21 74.5t-81 26.5q-13 0 -25 -1t-24.5 -4t-20.5 -6l-24 -7q-16 -5 -24 -7q-18 -6 -34.5 0t-22.5 23q-12 35 25 59q55 37 163 37q197 0 197 -186v-256 q0 -26 -13.5 -42t-40.5 -16t-40.5 16.5t-13.5 41.5zM205 78q60 0 95 39.5t35 90.5v17q-32 5 -89 5q-120 0 -120 -84q0 -31 21 -49.5t58 -18.5zM364 636l-116 -76q-43 -31 -66 2q-26 36 21 67l120 78q43 28 65 -5q21 -35 -24 -66z" />
<glyph unicode="&#xe2;" horiz-adv-x="503" d="M335 58v18q-49 -86 -160 -86q-75 0 -117.5 40t-42.5 107q0 85 61.5 124.5t153.5 39.5q63 0 105 -7v11q0 48 -21 74.5t-81 26.5q-13 0 -25 -1t-24.5 -4t-20.5 -6l-24 -7q-16 -5 -24 -7q-18 -6 -34.5 0t-22.5 23q-12 35 25 59q55 37 163 37q197 0 197 -186v-256 q0 -26 -13.5 -42t-40.5 -16t-40.5 16.5t-13.5 41.5zM205 78q60 0 95 39.5t35 90.5v17q-32 5 -89 5q-120 0 -120 -84q0 -31 21 -49.5t58 -18.5zM342 557l-102 75l-92 -71q-38 -28 -59 1q-21 31 16 58l105 77q33 25 68 0l110 -79q18 -13 20 -31t-8 -28q-22 -28 -58 -2z" />
<glyph unicode="&#xe3;" horiz-adv-x="503" d="M335 58v18q-49 -86 -160 -86q-75 0 -117.5 40t-42.5 107q0 85 61.5 124.5t153.5 39.5q63 0 105 -7v11q0 48 -21 74.5t-81 26.5q-13 0 -25 -1t-24.5 -4t-20.5 -6l-24 -7q-16 -5 -24 -7q-18 -6 -34.5 0t-22.5 23q-12 35 25 59q55 37 163 37q197 0 197 -186v-256 q0 -26 -13.5 -42t-40.5 -16t-40.5 16.5t-13.5 41.5zM205 78q60 0 95 39.5t35 90.5v17q-32 5 -89 5q-120 0 -120 -84q0 -31 21 -49.5t58 -18.5zM298 633q14 0 39 21q31 27 58 4q12 -12 10.5 -29t-14.5 -33q-38 -48 -94 -48q-31 0 -69.5 21.5t-53.5 21.5q-17 0 -42 -22 q-30 -24 -54 -4q-13 11 -11.5 29t15.5 35q42 47 92 47q32 0 72 -21.5t52 -21.5z" />
<glyph unicode="&#xe4;" horiz-adv-x="503" d="M335 58v18q-49 -86 -160 -86q-75 0 -117.5 40t-42.5 107q0 85 61.5 124.5t153.5 39.5q63 0 105 -7v11q0 48 -21 74.5t-81 26.5q-13 0 -25 -1t-24.5 -4t-20.5 -6l-24 -7q-16 -5 -24 -7q-18 -6 -34.5 0t-22.5 23q-12 35 25 59q55 37 163 37q197 0 197 -186v-256 q0 -26 -13.5 -42t-40.5 -16t-40.5 16.5t-13.5 41.5zM205 78q60 0 95 39.5t35 90.5v17q-32 5 -89 5q-120 0 -120 -84q0 -31 21 -49.5t58 -18.5zM86 618q0 28 17 44.5t46 16.5t46 -17t17 -44q0 -28 -17 -44.5t-46 -16.5q-30 0 -46.5 16t-16.5 45zM277 618q0 28 16.5 44.5 t45.5 16.5t46 -17t17 -44q0 -28 -17 -44.5t-46 -16.5q-30 0 -46 16t-16 45z" />
<glyph unicode="&#xe5;" horiz-adv-x="503" d="M335 58v18q-49 -86 -160 -86q-75 0 -117.5 40t-42.5 107q0 85 61.5 124.5t153.5 39.5q63 0 105 -7v11q0 48 -21 74.5t-81 26.5q-13 0 -25 -1t-24.5 -4t-20.5 -6l-24 -7q-16 -5 -24 -7q-18 -6 -34.5 0t-22.5 23q-12 35 25 59q55 37 163 37q197 0 197 -186v-256 q0 -26 -13.5 -42t-40.5 -16t-40.5 16.5t-13.5 41.5zM205 78q60 0 95 39.5t35 90.5v17q-32 5 -89 5q-120 0 -120 -84q0 -31 21 -49.5t58 -18.5zM240 729q50 0 79.5 -26.5t29.5 -70.5q0 -45 -29.5 -71t-79.5 -26t-79.5 26t-29.5 71q0 44 29.5 70.5t79.5 26.5zM193 632 q0 -20 13.5 -32.5t33.5 -12.5t33.5 12.5t13.5 32.5t-13.5 32.5t-33.5 12.5t-33.5 -12.5t-13.5 -32.5z" />
<glyph unicode="&#xe6;" horiz-adv-x="788" d="M10 133q0 158 219 158h99v27q0 40 -24 64t-76 24q-15 0 -31.5 -2t-26.5 -4.5l-30 -7.5l-29 -9q-47 -11 -58 21q-14 43 40 68q63 28 148 28q123 0 152 -84q57 84 174 84q88 0 138 -51.5t50 -129.5q0 -49 -15.5 -74t-63.5 -25h-247q4 -139 130 -139q47 0 111 26 q40 16 56 -15q10 -18 2.5 -36.5t-28.5 -31.5q-56 -34 -146 -34q-136 0 -189 112q-56 -112 -195 -112q-75 0 -117.5 38.5t-42.5 104.5zM201 78q60 0 93.5 38.5t33.5 90.5v13h-88q-58 0 -88.5 -16.5t-30.5 -60.5q0 -31 22 -48t58 -17zM552 409q-50 0 -82.5 -30t-37.5 -88h217 q3 16 3 37q0 36 -25.5 58.5t-74.5 22.5z" />
<glyph unicode="&#xe7;" horiz-adv-x="461" d="M420 37q-56 -44 -144 -47l-7 -33q55 -3 79 -31t24 -66q0 -42 -32.5 -71t-92.5 -29q-58 0 -90 17q-14 7 -19 20t1 25q9 22 39 14q36 -9 53 -9q43 0 43 32q0 18 -13.5 26.5t-45.5 13.5q-16 2 -21.5 12t-2.5 23l14 62q-81 17 -125.5 80.5t-44.5 164.5q0 120 63.5 189.5 t173.5 69.5q81 0 129 -28q44 -26 25 -67q-17 -36 -66 -21q-51 15 -85 15q-58 0 -91 -42t-33 -116q0 -70 34.5 -110t90.5 -40q40 0 96 28q48 23 68 -10q23 -37 -20 -72z" />
<glyph unicode="&#xe8;" horiz-adv-x="506" d="M402 204h-255q2 -57 37 -90t93 -33q44 0 106 26q44 18 62 -14q9 -15 3.5 -33.5t-24.5 -30.5q-58 -39 -158 -39q-112 0 -171.5 66t-59.5 187q0 117 63 187t170 70q96 0 150.5 -54.5t54.5 -144.5q0 -29 -5 -47q-7 -26 -22 -38t-44 -12zM268 409q-53 0 -84.5 -32.5 t-36.5 -93.5h221q1 10 1 25q0 45 -25.5 73t-75.5 28zM273 561l-117 77q-46 31 -24 65q22 33 66 4l121 -80q46 -30 20 -65q-23 -32 -66 -1z" />
<glyph unicode="&#xe9;" horiz-adv-x="506" d="M402 204h-255q2 -57 37 -90t93 -33q44 0 106 26q44 18 62 -14q9 -15 3.5 -33.5t-24.5 -30.5q-58 -39 -158 -39q-112 0 -171.5 66t-59.5 187q0 117 63 187t170 70q96 0 150.5 -54.5t54.5 -144.5q0 -29 -5 -47q-7 -26 -22 -38t-44 -12zM268 409q-53 0 -84.5 -32.5 t-36.5 -93.5h221q1 10 1 25q0 45 -25.5 73t-75.5 28zM389 636l-116 -76q-43 -31 -66 2q-26 36 21 67l120 78q43 28 65 -5q21 -35 -24 -66z" />
<glyph unicode="&#xea;" horiz-adv-x="506" d="M402 204h-255q2 -57 37 -90t93 -33q44 0 106 26q44 18 62 -14q9 -15 3.5 -33.5t-24.5 -30.5q-58 -39 -158 -39q-112 0 -171.5 66t-59.5 187q0 117 63 187t170 70q96 0 150.5 -54.5t54.5 -144.5q0 -29 -5 -47q-7 -26 -22 -38t-44 -12zM268 409q-53 0 -84.5 -32.5 t-36.5 -93.5h221q1 10 1 25q0 45 -25.5 73t-75.5 28zM367 557l-102 75l-92 -71q-38 -28 -59 1q-21 31 16 58l105 77q33 25 68 0l110 -79q18 -13 20 -31t-8 -28q-22 -28 -58 -2z" />
<glyph unicode="&#xeb;" horiz-adv-x="506" d="M402 204h-255q2 -57 37 -90t93 -33q44 0 106 26q44 18 62 -14q9 -15 3.5 -33.5t-24.5 -30.5q-58 -39 -158 -39q-112 0 -171.5 66t-59.5 187q0 117 63 187t170 70q96 0 150.5 -54.5t54.5 -144.5q0 -29 -5 -47q-7 -26 -22 -38t-44 -12zM268 409q-53 0 -84.5 -32.5 t-36.5 -93.5h221q1 10 1 25q0 45 -25.5 73t-75.5 28zM109 618q0 28 16.5 44.5t46.5 16.5q29 0 46 -17t17 -44q0 -28 -17 -44.5t-46 -16.5q-30 0 -46.5 16t-16.5 45zM300 618q0 28 16.5 44.5t45.5 16.5t46 -17t17 -44q0 -28 -17 -44.5t-46 -16.5q-30 0 -46 16t-16 45z" />
<glyph unicode="&#xec;" horiz-adv-x="233" d="M139 561l-117 77q-46 31 -24 65q22 33 66 4l121 -80q46 -30 20 -65q-23 -32 -66 -1zM82 58v374q0 25 14.5 41.5t41.5 16.5t42 -16.5t15 -41.5v-374q0 -25 -15 -41.5t-42 -16.5t-41.5 16.5t-14.5 41.5z" />
<glyph unicode="&#xed;" horiz-adv-x="233" d="M268 636l-116 -76q-43 -31 -66 2q-26 36 21 67l120 78q43 28 65 -5q21 -35 -24 -66zM84 58v374q0 25 14.5 41.5t41.5 16.5t42 -16.5t15 -41.5v-374q0 -25 -15 -41.5t-42 -16.5t-41.5 16.5t-14.5 41.5z" />
<glyph unicode="&#xee;" horiz-adv-x="233" d="M234 557l-102 75l-92 -71q-38 -28 -59 1q-21 31 16 58l105 77q33 25 68 0l110 -79q18 -13 20 -31t-8 -28q-22 -28 -58 -2zM81 58v374q0 25 14.5 41.5t41.5 16.5t42 -16.5t15 -41.5v-374q0 -25 -15 -41.5t-42 -16.5t-41.5 16.5t-14.5 41.5z" />
<glyph unicode="&#xef;" horiz-adv-x="233" d="M-41 618q0 28 16.5 44.5t46.5 16.5q29 0 46 -17t17 -44q0 -28 -17 -44.5t-46 -16.5q-30 0 -46.5 16t-16.5 45zM150 618q0 28 16.5 44.5t45.5 16.5t46 -17t17 -44q0 -28 -17 -44.5t-46 -16.5q-30 0 -46 16t-16 45zM60 58v374q0 25 14.5 41.5t41.5 16.5t42 -16.5t15 -41.5 v-374q0 -25 -15 -41.5t-42 -16.5t-41.5 16.5t-14.5 41.5z" />
<glyph unicode="&#xf0;" horiz-adv-x="541" d="M384 664l-27 -23q79 -50 114 -129t35 -194q0 -150 -59 -239t-176 -89q-113 0 -174.5 67t-61.5 184q0 109 53 178.5t156 69.5q104 0 156 -70q-6 48 -36.5 90t-73.5 63l-52 -46q-10 -10 -22.5 -12t-25.5 8q-21 21 7 47l32 27q-24 6 -79 16q-49 10 -43 51q7 43 71 36 q72 -7 123 -30l42 37q25 23 46 3q9 -12 6.5 -24t-11.5 -21zM270 86q37 0 61.5 16.5t37.5 48.5t18 69t5 87q-36 86 -121 86q-60 0 -90 -39t-30 -112q0 -70 32 -113t87 -43z" />
<glyph unicode="&#xf1;" horiz-adv-x="552" d="M60 58v374q0 25 14.5 41.5t41.5 16.5t42 -16.5t15 -41.5v-15q22 41 61.5 62t86.5 21q93 0 132 -54t39 -160v-228q0 -25 -15 -41.5t-42 -16.5t-41.5 16.5t-14.5 41.5v230q0 112 -85 112q-35 0 -59.5 -17t-37 -48.5t-18 -66.5t-6.5 -81v-129q0 -25 -15 -41.5t-42 -16.5 t-41.5 16.5t-14.5 41.5zM340 633q14 0 39 21q31 27 58 4q12 -12 10.5 -29t-14.5 -33q-38 -48 -94 -48q-31 0 -69.5 21.5t-53.5 21.5q-17 0 -42 -22q-30 -24 -54 -4q-13 11 -11.5 29t15.5 35q42 47 92 47q32 0 72 -21.5t52 -21.5z" />
<glyph unicode="&#xf2;" horiz-adv-x="549" d="M35 245q0 113 63 184t176 71t176.5 -71.5t63.5 -183.5t-63.5 -183.5t-176.5 -71.5t-176 71t-63 184zM151 245q0 -71 32 -115t91 -44q60 0 92 44t32 115t-32 115t-92 44q-59 0 -91 -44.5t-32 -114.5zM272 561l-117 77q-46 31 -24 65q22 33 66 4l121 -80q46 -30 20 -65 q-23 -32 -66 -1z" />
<glyph unicode="&#xf3;" horiz-adv-x="549" d="M35 245q0 113 63 184t176 71t176.5 -71.5t63.5 -183.5t-63.5 -183.5t-176.5 -71.5t-176 71t-63 184zM151 245q0 -71 32 -115t91 -44q60 0 92 44t32 115t-32 115t-92 44q-59 0 -91 -44.5t-32 -114.5zM404 636l-116 -76q-43 -31 -66 2q-26 36 21 67l120 78q43 28 65 -5 q21 -35 -24 -66z" />
<glyph unicode="&#xf4;" horiz-adv-x="549" d="M372 557l-102 75l-92 -71q-38 -28 -59 1q-21 31 16 58l105 77q33 25 68 0l110 -79q18 -13 20 -31t-8 -28q-22 -28 -58 -2zM35 245q0 113 63 184t176 71t176.5 -71.5t63.5 -183.5t-63.5 -183.5t-176.5 -71.5t-176 71t-63 184zM151 245q0 -71 32 -115t91 -44q60 0 92 44 t32 115t-32 115t-92 44q-59 0 -91 -44.5t-32 -114.5z" />
<glyph unicode="&#xf5;" horiz-adv-x="549" d="M35 245q0 113 63 184t176 71t176.5 -71.5t63.5 -183.5t-63.5 -183.5t-176.5 -71.5t-176 71t-63 184zM151 245q0 -71 32 -115t91 -44q60 0 92 44t32 115t-32 115t-92 44q-59 0 -91 -44.5t-32 -114.5zM336 633q14 0 39 21q31 27 58 4q12 -12 10.5 -29t-14.5 -33 q-38 -48 -94 -48q-31 0 -69.5 21.5t-53.5 21.5q-17 0 -42 -22q-30 -24 -54 -4q-13 11 -11.5 29t15.5 35q42 47 92 47q32 0 72 -21.5t52 -21.5z" />
<glyph unicode="&#xf6;" horiz-adv-x="549" d="M35 245q0 113 63 184t176 71t176.5 -71.5t63.5 -183.5t-63.5 -183.5t-176.5 -71.5t-176 71t-63 184zM151 245q0 -71 32 -115t91 -44q60 0 92 44t32 115t-32 115t-92 44q-59 0 -91 -44.5t-32 -114.5zM116 618q0 28 17 44.5t46 16.5t46 -17t17 -44q0 -28 -17 -44.5 t-46 -16.5q-30 0 -46.5 16t-16.5 45zM307 618q0 28 16.5 44.5t45.5 16.5t46 -17t17 -44q0 -28 -17 -44.5t-46 -16.5q-30 0 -46 16t-16 45z" />
<glyph unicode="&#xf7;" horiz-adv-x="515" d="M188 495q0 30 18 49t51 19t51.5 -19t18.5 -49q0 -29 -18.5 -47.5t-51.5 -18.5t-51 18.5t-18 47.5zM188 150q0 30 18 49t51 19t51.5 -19t18.5 -49q0 -29 -18.5 -47.5t-51.5 -18.5t-51 18.5t-18 47.5zM417 275h-319q-53 0 -53 48q0 23 14.5 35.5t38.5 12.5h319 q24 0 38.5 -12.5t14.5 -35.5q0 -48 -53 -48z" />
<glyph unicode="&#xf8;" horiz-adv-x="549" d="M35 245q0 113 63 184t176 71q15 0 39 -4l14 37q19 54 65 39q40 -13 22 -69l-13 -36q54 -31 83.5 -89.5t29.5 -132.5q0 -112 -63.5 -183.5t-176.5 -71.5q-15 0 -43 4l-13 -38q-8 -23 -25.5 -34.5t-38.5 -3.5q-41 14 -22 70l12 36q-53 32 -81 90t-28 131zM398 245 q0 87 -45 129l-103 -286q7 -2 24 -2q60 0 92 44t32 115zM151 245q0 -86 43 -127l100 284q-10 2 -20 2q-60 0 -91.5 -44.5t-31.5 -114.5z" />
<glyph unicode="&#xf9;" horiz-adv-x="552" d="M492 432v-374q0 -25 -14.5 -41.5t-41.5 -16.5t-42 16.5t-15 41.5v15q-22 -41 -61.5 -62t-86.5 -21q-93 0 -132 54t-39 160v228q0 25 15 41.5t42 16.5t41.5 -16.5t14.5 -41.5v-230q0 -112 85 -112q35 0 59.5 17t37 48.5t18 66.5t6.5 81v129q0 25 15 41.5t42 16.5 t41.5 -16.5t14.5 -41.5zM282 561l-117 77q-46 31 -24 65q22 33 66 4l121 -80q46 -30 20 -65q-23 -32 -66 -1z" />
<glyph unicode="&#xfa;" horiz-adv-x="552" d="M492 432v-374q0 -25 -14.5 -41.5t-41.5 -16.5t-42 16.5t-15 41.5v15q-22 -41 -61.5 -62t-86.5 -21q-93 0 -132 54t-39 160v228q0 25 15 41.5t42 16.5t41.5 -16.5t14.5 -41.5v-230q0 -112 85 -112q35 0 59.5 17t37 48.5t18 66.5t6.5 81v129q0 25 15 41.5t42 16.5 t41.5 -16.5t14.5 -41.5zM415 636l-116 -76q-43 -31 -66 2q-26 36 21 67l120 78q43 28 65 -5q21 -35 -24 -66z" />
<glyph unicode="&#xfb;" horiz-adv-x="552" d="M376 557l-102 75l-92 -71q-38 -28 -59 1q-21 31 16 58l105 77q33 25 68 0l110 -79q18 -13 20 -31t-8 -28q-22 -28 -58 -2zM492 432v-374q0 -25 -14.5 -41.5t-41.5 -16.5t-42 16.5t-15 41.5v15q-22 -41 -61.5 -62t-86.5 -21q-93 0 -132 54t-39 160v228q0 25 15 41.5 t42 16.5t41.5 -16.5t14.5 -41.5v-230q0 -112 85 -112q35 0 59.5 17t37 48.5t18 66.5t6.5 81v129q0 25 15 41.5t42 16.5t41.5 -16.5t14.5 -41.5z" />
<glyph unicode="&#xfc;" horiz-adv-x="552" d="M492 432v-374q0 -25 -14.5 -41.5t-41.5 -16.5t-42 16.5t-15 41.5v15q-22 -41 -61.5 -62t-86.5 -21q-93 0 -132 54t-39 160v228q0 25 15 41.5t42 16.5t41.5 -16.5t14.5 -41.5v-230q0 -112 85 -112q35 0 59.5 17t37 48.5t18 66.5t6.5 81v129q0 25 15 41.5t42 16.5 t41.5 -16.5t14.5 -41.5zM119 618q0 28 16.5 44.5t46.5 16.5q29 0 46 -17t17 -44q0 -28 -17 -44.5t-46 -16.5q-30 0 -46.5 16t-16.5 45zM310 618q0 28 16.5 44.5t45.5 16.5t46 -17t17 -44q0 -28 -17 -44.5t-46 -16.5q-30 0 -46 16t-16 45z" />
<glyph unicode="&#xfd;" horiz-adv-x="465" d="M210 0l-170 401q-12 23 -6 48.5t32 35.5q55 21 79 -41l117 -310l103 306q21 65 74 46q45 -15 22 -78l-156 -413q-44 -118 -84.5 -161.5t-105.5 -43.5q-48 0 -81 18q-50 28 -31 70q15 33 59 20q38 -12 54 -12q32 0 52 28.5t42 85.5zM384 636l-116 -76q-43 -31 -66 2 q-26 36 21 67l120 78q43 28 65 -5q21 -35 -24 -66z" />
<glyph unicode="&#xfe;" horiz-adv-x="544" d="M60 -142v774q0 25 14.5 41.5t41.5 16.5t42 -16.5t15 -41.5v-208q45 76 146 76q92 0 141 -65.5t49 -174.5q0 -122 -56.5 -196t-168.5 -74q-64 0 -111 19v-151q0 -25 -15 -41.5t-42 -16.5t-41.5 16.5t-14.5 41.5zM296 404q-123 0 -123 -217v-78q40 -23 99 -23 q121 0 121 176q0 142 -97 142z" />
<glyph unicode="&#xff;" horiz-adv-x="465" d="M210 0l-170 401q-12 23 -6 48.5t32 35.5q55 21 79 -41l117 -310l103 306q21 65 74 46q45 -15 22 -78l-156 -413q-44 -118 -84.5 -161.5t-105.5 -43.5q-48 0 -81 18q-50 28 -31 70q15 33 59 20q38 -12 54 -12q32 0 52 28.5t42 85.5zM98 618q0 28 16.5 44.5t46.5 16.5 q29 0 46 -17t17 -44q0 -28 -17 -44.5t-46 -16.5q-30 0 -46.5 16t-16.5 45zM289 618q0 28 16.5 44.5t45.5 16.5t46 -17t17 -44q0 -28 -17 -44.5t-46 -16.5q-30 0 -46 16t-16 45z" />
<glyph unicode="&#x100;" horiz-adv-x="611" d="M509 47l-56 148h-257l-52 -141q-25 -72 -82 -49q-44 19 -20 82l225 564q19 49 61 49q40 0 58 -43l232 -569q11 -22 4.5 -48t-31.5 -35q-28 -10 -49.5 1.5t-32.5 40.5zM322 541l-94 -252h191zM448 748h-245q-48 0 -48 39q0 40 48 40h245q48 0 48 -40q0 -39 -48 -39z" />
<glyph unicode="&#x101;" horiz-adv-x="503" d="M335 58v18q-49 -86 -160 -86q-75 0 -117.5 40t-42.5 107q0 85 61.5 124.5t153.5 39.5q63 0 105 -7v11q0 48 -21 74.5t-81 26.5q-13 0 -25 -1t-24.5 -4t-20.5 -6l-24 -7q-16 -5 -24 -7q-18 -6 -34.5 0t-22.5 23q-12 35 25 59q55 37 163 37q197 0 197 -186v-256 q0 -26 -13.5 -42t-40.5 -16t-40.5 16.5t-13.5 41.5zM205 78q60 0 95 39.5t35 90.5v17q-32 5 -89 5q-120 0 -120 -84q0 -31 21 -49.5t58 -18.5zM358 568h-229q-47 0 -47 40t47 40h229q47 0 47 -40t-47 -40z" />
<glyph unicode="&#x102;" horiz-adv-x="611" d="M509 47l-56 148h-257l-52 -141q-25 -72 -82 -49q-44 19 -20 82l225 564q19 49 61 49q40 0 58 -43l232 -569q11 -22 4.5 -48t-31.5 -35q-28 -10 -49.5 1.5t-32.5 40.5zM322 541l-94 -252h191zM329 734q-54 0 -96 18.5t-62 45.5q-27 36 0 61q27 26 65 -10q39 -38 93 -38 t92 37q36 36 65 11q27 -23 -1 -61q-20 -28 -61 -46t-95 -18z" />
<glyph unicode="&#x103;" horiz-adv-x="503" d="M335 58v18q-49 -86 -160 -86q-75 0 -117.5 40t-42.5 107q0 85 61.5 124.5t153.5 39.5q63 0 105 -7v11q0 48 -21 74.5t-81 26.5q-13 0 -25 -1t-24.5 -4t-20.5 -6l-24 -7q-16 -5 -24 -7q-18 -6 -34.5 0t-22.5 23q-12 35 25 59q55 37 163 37q197 0 197 -186v-256 q0 -26 -13.5 -42t-40.5 -16t-40.5 16.5t-13.5 41.5zM205 78q60 0 95 39.5t35 90.5v17q-32 5 -89 5q-120 0 -120 -84q0 -31 21 -49.5t58 -18.5zM243 548q-52 0 -89 21t-55 52q-9 16 -7 33t15 26q32 21 62 -16q34 -41 74 -41q24 0 40.5 10.5t34.5 31.5q29 36 62 15 q28 -19 6 -58q-44 -74 -143 -74z" />
<glyph unicode="&#x104;" horiz-adv-x="611" d="M572 -17q-55 -55 -55 -101q0 -44 39 -44q12 0 35 7q25 8 36 -11q8 -12 2.5 -28.5t-21.5 -26.5q-30 -19 -75 -19q-55 0 -88.5 29t-33.5 80q0 93 87 155l-65 171h-258l-51 -141q-10 -30 -31.5 -45.5t-51.5 -3.5q-22 8 -26 32.5t7 49.5l225 564q19 49 61 49q40 0 58 -43 l232 -572q12 -22 9.5 -41.5t-9.5 -30.5t-26 -30zM302 541l-94 -252h191z" />
<glyph unicode="&#x105;" horiz-adv-x="498" d="M330 17v59q-49 -86 -160 -86q-75 0 -117.5 40t-42.5 107q0 85 61.5 124.5t153.5 39.5q63 0 105 -7v11q0 48 -21 74.5t-81 26.5q-37 0 -118 -24q-44 -13 -57 22q-13 34 25 59q56 37 163 37q197 0 197 -186v-268q0 -35 -23 -59q-56 -62 -56 -109q0 -40 39 -40q12 0 35 7 q25 8 36 -11q8 -12 2.5 -28.5t-21.5 -26.5q-30 -19 -75 -19q-56 0 -89 28t-33 80q0 83 77 149zM200 78q60 0 95 39.5t35 90.5v17q-32 5 -89 5q-120 0 -120 -84q0 -31 21 -49.5t58 -18.5z" />
<glyph unicode="&#x106;" horiz-adv-x="629" d="M368 593q-92 0 -144.5 -67.5t-52.5 -179.5q0 -116 56.5 -182.5t143.5 -66.5q69 0 142 43q51 29 76 -7q13 -17 7.5 -41t-30.5 -43q-80 -59 -204 -59q-157 0 -237 95.5t-80 259.5q0 162 85 258.5t236 96.5q119 0 185 -46q44 -30 24 -73q-17 -38 -76 -16q-73 28 -131 28z M506 805l-139 -64q-53 -24 -69 10q-21 40 31 64l143 67q50 23 67 -12q19 -39 -33 -65z" />
<glyph unicode="&#x107;" horiz-adv-x="461" d="M420 36q-58 -46 -155 -46q-108 0 -169 66t-61 185q0 120 63.5 189.5t173.5 69.5q85 0 129 -28q43 -27 25 -67q-17 -36 -66 -21q-51 15 -85 15q-58 0 -91 -42t-33 -116q0 -70 34.5 -110t90.5 -40q40 0 96 28q48 23 68 -10q23 -38 -20 -73zM388 636l-116 -76q-43 -31 -66 2 q-26 36 21 67l120 78q43 28 65 -5q21 -35 -24 -66z" />
<glyph unicode="&#x108;" horiz-adv-x="629" d="M214 811l109 62q32 18 65 0l120 -65q44 -23 23 -62q-18 -35 -61 -11l-116 64l-108 -61q-20 -11 -36.5 -8t-24.5 20q-16 36 29 61zM368 593q-92 0 -144.5 -67.5t-52.5 -179.5q0 -116 56.5 -182.5t143.5 -66.5q69 0 142 43q51 29 76 -7q13 -17 7.5 -41t-30.5 -43 q-80 -59 -204 -59q-157 0 -237 95.5t-80 259.5q0 162 85 258.5t236 96.5q119 0 185 -46q44 -30 24 -73q-17 -38 -76 -16q-73 28 -131 28z" />
<glyph unicode="&#x109;" horiz-adv-x="461" d="M363 557l-102 75l-92 -71q-38 -28 -59 1q-21 31 16 58l105 77q33 25 68 0l110 -79q18 -13 20 -31t-8 -28q-22 -28 -58 -2zM420 36q-58 -46 -155 -46q-108 0 -169 66t-61 185q0 120 63.5 189.5t173.5 69.5q85 0 129 -28q43 -27 25 -67q-17 -36 -66 -21q-51 15 -85 15 q-58 0 -91 -42t-33 -116q0 -70 34.5 -110t90.5 -40q40 0 96 28q48 23 68 -10q23 -38 -20 -73z" />
<glyph unicode="&#x10a;" horiz-adv-x="629" d="M368 593q-92 0 -144.5 -67.5t-52.5 -179.5q0 -116 56.5 -182.5t143.5 -66.5q69 0 142 43q51 29 76 -7q13 -17 7.5 -41t-30.5 -43q-80 -59 -204 -59q-157 0 -237 95.5t-80 259.5q0 162 85 258.5t236 96.5q119 0 185 -46q44 -30 24 -73q-17 -38 -76 -16q-73 28 -131 28z M284 804q0 32 22.5 48t57.5 16q34 0 57 -16t23 -48t-23 -47.5t-57 -15.5q-35 0 -57.5 15.5t-22.5 47.5z" />
<glyph unicode="&#x10b;" horiz-adv-x="461" d="M420 36q-58 -46 -155 -46q-108 0 -169 66t-61 185q0 120 63.5 189.5t173.5 69.5q85 0 129 -28q43 -27 25 -67q-17 -36 -66 -21q-51 15 -85 15q-58 0 -91 -42t-33 -116q0 -70 34.5 -110t90.5 -40q40 0 96 28q48 23 68 -10q23 -38 -20 -73zM195 619q0 28 18 44.5t48 16.5 t48 -16.5t18 -44.5q0 -29 -18 -45t-48 -16q-31 0 -48.5 16t-17.5 45z" />
<glyph unicode="&#x10c;" horiz-adv-x="629" d="M510 801l-109 -62q-32 -18 -65 0l-120 65q-21 11 -27.5 29t4.5 35q19 32 61 9l118 -66l106 63q20 11 36.5 8t24.5 -20q18 -35 -29 -61zM368 593q-92 0 -144.5 -67.5t-52.5 -179.5q0 -116 56.5 -182.5t143.5 -66.5q69 0 142 43q51 29 76 -7q13 -17 7.5 -41t-30.5 -43 q-80 -59 -204 -59q-157 0 -237 95.5t-80 259.5q0 162 85 258.5t236 96.5q119 0 185 -46q44 -30 24 -73q-17 -38 -76 -16q-73 28 -131 28z" />
<glyph unicode="&#x10d;" horiz-adv-x="461" d="M169 699l101 -75l93 70q37 27 59 -1q10 -11 6 -27.5t-22 -29.5l-105 -78q-33 -25 -68 0l-108 78q-38 28 -15 59q11 14 28 14.5t31 -10.5zM420 36q-58 -46 -155 -46q-108 0 -169 66t-61 185q0 120 63.5 189.5t173.5 69.5q85 0 129 -28q43 -27 25 -67q-17 -36 -66 -21 q-51 15 -85 15q-58 0 -91 -42t-33 -116q0 -70 34.5 -110t90.5 -40q40 0 96 28q48 23 68 -10q23 -38 -20 -73z" />
<glyph unicode="&#x10e;" horiz-adv-x="696" d="M460 801l-109 -62q-32 -18 -65 0l-120 65q-21 11 -27.5 29t4.5 35q19 32 61 9l118 -66l106 63q20 11 36.5 8t24.5 -20q18 -35 -29 -61zM75 69v543q0 59 55 69q66 14 168 14q175 0 264 -88t89 -259q0 -165 -90 -259t-262 -94q-109 0 -168 10q-56 10 -56 64zM299 102 q226 0 226 246q0 240 -227 240q-45 0 -103 -6v-475q44 -5 104 -5z" />
<glyph unicode="&#x10f;" horiz-adv-x="656" d="M547 538q27 26 27 52q0 18 -28 31q-37 18 -21 54q14 33 63 22q34 -8 52.5 -32t18.5 -56q0 -66 -54 -108q-18 -15 -38 -19t-33 9q-14 19 13 47zM484 632v-574q0 -25 -14.5 -41.5t-41.5 -16.5t-42 16.5t-15 41.5v8q-45 -76 -146 -76q-92 0 -141 65.5t-49 174.5 q0 122 56.5 196t168.5 74q64 0 111 -19v151q0 25 15 41.5t42 16.5t41.5 -16.5t14.5 -41.5zM248 86q123 0 123 217v78q-40 23 -99 23q-121 0 -121 -176q0 -142 97 -142z" />
<glyph unicode="&#x110;" horiz-adv-x="711" d="M90 69v248h-44q-41 0 -41 38q0 39 41 39h44v218q0 59 55 69q66 14 168 14q353 0 353 -347q0 -166 -89.5 -259.5t-262.5 -93.5q-109 0 -168 10q-56 10 -56 64zM314 102q226 0 226 246q0 240 -227 240q-45 0 -103 -6v-188h133q41 0 41 -39q0 -38 -41 -38h-133v-210 q44 -5 104 -5z" />
<glyph unicode="&#x111;" horiz-adv-x="564" d="M484 632v-14h44q41 0 41 -34q0 -35 -41 -35h-44v-491q0 -25 -14.5 -41.5t-41.5 -16.5t-42 16.5t-15 41.5v8q-45 -76 -146 -76q-92 0 -141 65.5t-49 174.5q0 122 56.5 196t168.5 74q64 0 111 -19v68h-126q-41 0 -41 35q0 34 41 34h126v14q0 25 15 41.5t42 16.5t41.5 -16.5 t14.5 -41.5zM248 86q123 0 123 217v78q-40 23 -99 23q-121 0 -121 -176q0 -142 97 -142z" />
<glyph unicode="&#x112;" horiz-adv-x="561" d="M75 62v566q0 27 16 44.5t45 17.5h338q26 0 41.5 -14.5t15.5 -39.5q0 -24 -15.5 -38.5t-41.5 -14.5h-279v-175h223q27 0 42.5 -14t15.5 -39q0 -24 -15.5 -39t-42.5 -15h-223v-194h289q26 0 41.5 -14.5t15.5 -39.5q0 -24 -15.5 -38.5t-41.5 -14.5h-347q-29 0 -45.5 17.5 t-16.5 44.5zM421 748h-245q-48 0 -48 39q0 40 48 40h245q48 0 48 -40q0 -39 -48 -39z" />
<glyph unicode="&#x113;" horiz-adv-x="506" d="M402 204h-255q2 -57 37 -90t93 -33q44 0 106 26q44 18 62 -14q9 -15 3.5 -33.5t-24.5 -30.5q-58 -39 -158 -39q-112 0 -171.5 66t-59.5 187q0 117 63 187t170 70q96 0 150.5 -54.5t54.5 -144.5q0 -29 -5 -47q-7 -26 -22 -38t-44 -12zM268 409q-53 0 -84.5 -32.5 t-36.5 -93.5h221q1 10 1 25q0 45 -25.5 73t-75.5 28zM384 568h-229q-47 0 -47 40t47 40h229q47 0 47 -40t-47 -40z" />
<glyph unicode="&#x116;" horiz-adv-x="561" d="M75 62v566q0 27 16 44.5t45 17.5h338q26 0 41.5 -14.5t15.5 -39.5q0 -24 -15.5 -38.5t-41.5 -14.5h-279v-175h223q27 0 42.5 -14t15.5 -39q0 -24 -15.5 -39t-42.5 -15h-223v-194h289q26 0 41.5 -14.5t15.5 -39.5q0 -24 -15.5 -38.5t-41.5 -14.5h-347q-29 0 -45.5 17.5 t-16.5 44.5zM214 804q0 32 22.5 48t57.5 16q34 0 57 -16t23 -48t-23 -47.5t-57 -15.5q-35 0 -57.5 15.5t-22.5 47.5z" />
<glyph unicode="&#x117;" horiz-adv-x="506" d="M402 204h-255q2 -57 37 -90t93 -33q44 0 106 26q44 18 62 -14q9 -15 3.5 -33.5t-24.5 -30.5q-58 -39 -158 -39q-112 0 -171.5 66t-59.5 187q0 117 63 187t170 70q96 0 150.5 -54.5t54.5 -144.5q0 -29 -5 -47q-7 -26 -22 -38t-44 -12zM268 409q-53 0 -84.5 -32.5 t-36.5 -93.5h221q1 10 1 25q0 45 -25.5 73t-75.5 28zM200 619q0 28 18 44.5t48 16.5t48 -16.5t18 -44.5q0 -29 -18 -45t-48 -16q-31 0 -48.5 16t-17.5 45z" />
<glyph unicode="&#x118;" horiz-adv-x="561" d="M75 62v566q0 27 16 44.5t45 17.5h338q26 0 41.5 -14.5t15.5 -39.5q0 -24 -15.5 -38.5t-41.5 -14.5h-279v-175h223q27 0 42.5 -14t15.5 -39q0 -24 -15.5 -39t-42.5 -15h-223v-194h289q26 0 41.5 -14.5t15.5 -39.5q0 -24 -15.5 -38.5t-41.5 -14.5h-32q-67 -62 -67 -121 q0 -41 39 -41q12 0 35 7q25 8 36 -11q7 -14 2 -29t-21 -26q-30 -19 -75 -19q-53 0 -87.5 30.5t-34.5 79.5q0 73 54 130h-196q-29 0 -45.5 17.5t-16.5 44.5z" />
<glyph unicode="&#x119;" horiz-adv-x="506" d="M402 204h-255q2 -57 37 -90t93 -33q46 0 106 25q43 18 61 -13q9 -15 4 -34t-24 -31l-21 -11q-26 -22 -50 -59t-24 -78q0 -21 12 -31.5t30 -10.5q12 0 35 7q25 8 36 -11q8 -12 2.5 -28.5t-21.5 -26.5q-30 -19 -75 -19q-54 0 -88 30t-34 81q0 67 46 119q-118 0 -177.5 65 t-59.5 188q0 117 63 187t170 70q96 0 150.5 -54.5t54.5 -144.5q0 -29 -5 -47q-7 -26 -22 -38t-44 -12zM268 409q-53 0 -84.5 -32.5t-36.5 -93.5h221q1 10 1 25q0 45 -25.5 73t-75.5 28z" />
<glyph unicode="&#x11a;" horiz-adv-x="561" d="M451 801l-109 -62q-32 -18 -65 0l-120 65q-21 11 -27.5 29t4.5 35q19 32 61 9l118 -66l106 63q20 11 36.5 8t24.5 -20q18 -35 -29 -61zM75 62v566q0 27 16 44.5t45 17.5h338q26 0 41.5 -14.5t15.5 -39.5q0 -24 -15.5 -38.5t-41.5 -14.5h-279v-175h223q27 0 42.5 -14 t15.5 -39q0 -24 -15.5 -39t-42.5 -15h-223v-194h289q26 0 41.5 -14.5t15.5 -39.5q0 -24 -15.5 -38.5t-41.5 -14.5h-347q-29 0 -45.5 17.5t-16.5 44.5z" />
<glyph unicode="&#x11b;" horiz-adv-x="506" d="M402 204h-255q2 -57 37 -90t93 -33q44 0 106 26q44 18 62 -14q9 -15 3.5 -33.5t-24.5 -30.5q-58 -39 -158 -39q-112 0 -171.5 66t-59.5 187q0 117 63 187t170 70q96 0 150.5 -54.5t54.5 -144.5q0 -29 -5 -47q-7 -26 -22 -38t-44 -12zM268 409q-53 0 -84.5 -32.5 t-36.5 -93.5h221q1 10 1 25q0 45 -25.5 73t-75.5 28zM173 699l101 -75l93 70q37 27 59 -1q10 -11 6 -27.5t-22 -29.5l-105 -78q-33 -25 -68 0l-108 78q-38 28 -15 59q11 14 28 14.5t31 -10.5z" />
<glyph unicode="&#x11c;" horiz-adv-x="667" d="M373 700q118 0 183 -44q47 -32 25 -73q-20 -37 -77 -16q-68 26 -130 26q-97 0 -150 -68.5t-53 -181.5q0 -118 53.5 -182t151.5 -64q92 0 148 39v134h-113q-53 0 -53 46t53 46h151q60 0 60 -52v-190q0 -43 -32 -66q-36 -27 -95.5 -45.5t-126.5 -18.5q-164 0 -243.5 94.5 t-79.5 261.5q0 161 88 257.5t240 96.5zM220 811l109 62q32 18 65 0l120 -65q44 -23 23 -62q-18 -35 -61 -11l-116 64l-108 -61q-20 -11 -36.5 -8t-24.5 20q-16 36 29 61z" />
<glyph unicode="&#x11d;" horiz-adv-x="513" d="M50 331q0 77 52 123t148 46q40 0 78 -10h138q46 0 46 -40q0 -39 -46 -39h-35q20 -40 20 -80q0 -75 -52.5 -121t-148.5 -46q-54 0 -95 15q-27 -17 -27 -41q0 -22 33 -34t120 -16q101 -4 155.5 -32.5t54.5 -94.5q0 -76 -65 -123.5t-186 -47.5t-173 40.5t-52 100.5 q0 70 72 111q-47 26 -47 79q0 52 54 96q-44 44 -44 114zM249 4q-43 3 -78 9q-54 -25 -54 -69q0 -28 29.5 -47.5t92.5 -19.5q73 0 108.5 21t35.5 54q0 25 -29.5 36t-104.5 16zM151 331q0 -37 26.5 -59t72.5 -22t72.5 22t26.5 59t-26.5 60t-72.5 23t-72.5 -23t-26.5 -60z M351 557l-102 75l-92 -71q-38 -28 -59 1q-21 31 16 58l105 77q33 25 68 0l110 -79q18 -13 20 -31t-8 -28q-22 -28 -58 -2z" />
<glyph unicode="&#x11e;" horiz-adv-x="667" d="M373 700q118 0 183 -44q47 -32 25 -73q-20 -37 -77 -16q-68 26 -130 26q-97 0 -150 -68.5t-53 -181.5q0 -118 53.5 -182t151.5 -64q92 0 148 39v134h-113q-53 0 -53 46t53 46h151q60 0 60 -52v-190q0 -43 -32 -66q-36 -27 -95.5 -45.5t-126.5 -18.5q-164 0 -243.5 94.5 t-79.5 261.5q0 161 88 257.5t240 96.5zM364 734q-54 0 -96 18.5t-62 45.5q-27 36 0 61q27 26 65 -10q39 -38 93 -38t92 37q36 36 65 11q27 -23 -1 -61q-20 -28 -61 -46t-95 -18z" />
<glyph unicode="&#x11f;" horiz-adv-x="513" d="M50 331q0 77 52 123t148 46q40 0 78 -10h138q46 0 46 -40q0 -39 -46 -39h-35q20 -40 20 -80q0 -75 -52.5 -121t-148.5 -46q-54 0 -95 15q-27 -17 -27 -41q0 -22 33 -34t120 -16q101 -4 155.5 -32.5t54.5 -94.5q0 -76 -65 -123.5t-186 -47.5t-173 40.5t-52 100.5 q0 70 72 111q-47 26 -47 79q0 52 54 96q-44 44 -44 114zM249 4q-43 3 -78 9q-54 -25 -54 -69q0 -28 29.5 -47.5t92.5 -19.5q73 0 108.5 21t35.5 54q0 25 -29.5 36t-104.5 16zM151 331q0 -37 26.5 -59t72.5 -22t72.5 22t26.5 59t-26.5 60t-72.5 23t-72.5 -23t-26.5 -60z M253 548q-52 0 -89 21t-55 52q-9 16 -7 33t15 26q32 21 62 -16q34 -41 74 -41q24 0 40.5 10.5t34.5 31.5q29 36 62 15q28 -19 6 -58q-44 -74 -143 -74z" />
<glyph unicode="&#x120;" horiz-adv-x="667" d="M373 700q118 0 183 -44q47 -32 25 -73q-20 -37 -77 -16q-68 26 -130 26q-97 0 -150 -68.5t-53 -181.5q0 -118 53.5 -182t151.5 -64q92 0 148 39v134h-113q-53 0 -53 46t53 46h151q60 0 60 -52v-190q0 -43 -32 -66q-36 -27 -95.5 -45.5t-126.5 -18.5q-164 0 -243.5 94.5 t-79.5 261.5q0 161 88 257.5t240 96.5zM280 804q0 32 22.5 48t57.5 16q34 0 57 -16t23 -48t-23 -47.5t-57 -15.5q-35 0 -57.5 15.5t-22.5 47.5z" />
<glyph unicode="&#x121;" horiz-adv-x="513" d="M50 331q0 77 52 123t148 46q40 0 78 -10h138q46 0 46 -40q0 -39 -46 -39h-35q20 -40 20 -80q0 -75 -52.5 -121t-148.5 -46q-54 0 -95 15q-27 -17 -27 -41q0 -22 33 -34t120 -16q101 -4 155.5 -32.5t54.5 -94.5q0 -76 -65 -123.5t-186 -47.5t-173 40.5t-52 100.5 q0 70 72 111q-47 26 -47 79q0 52 54 96q-44 44 -44 114zM249 4q-43 3 -78 9q-54 -25 -54 -69q0 -28 29.5 -47.5t92.5 -19.5q73 0 108.5 21t35.5 54q0 25 -29.5 36t-104.5 16zM151 331q0 -37 26.5 -59t72.5 -22t72.5 22t26.5 59t-26.5 60t-72.5 23t-72.5 -23t-26.5 -60z M186 619q0 28 18 44.5t48 16.5t48 -16.5t18 -44.5q0 -29 -18 -45t-48 -16q-31 0 -48.5 16t-17.5 45z" />
<glyph unicode="&#x122;" horiz-adv-x="667" d="M333 -216q34 34 34 63q0 23 -30 35q-37 19 -23 55q13 34 62 24q37 -7 58 -33.5t21 -63.5q0 -72 -62 -120q-20 -14 -40 -19t-35 8q-14 18 15 51zM373 700q118 0 183 -44q47 -32 25 -73q-20 -37 -77 -16q-68 26 -130 26q-97 0 -150 -68.5t-53 -181.5q0 -118 53.5 -182 t151.5 -64q92 0 148 39v134h-113q-53 0 -53 46t53 46h151q60 0 60 -52v-190q0 -43 -32 -66q-36 -27 -95.5 -45.5t-126.5 -18.5q-164 0 -243.5 94.5t-79.5 261.5q0 161 88 257.5t240 96.5z" />
<glyph unicode="&#x123;" horiz-adv-x="513" d="M287 717q-35 -32 -35 -60q0 -25 31 -35q35 -19 23 -52q-15 -33 -62 -22q-33 7 -53.5 31t-20.5 59q0 71 61 116q18 14 38 18t32 -9q13 -19 -14 -46zM50 331q0 77 52 123t148 46q40 0 78 -10h138q46 0 46 -40q0 -39 -46 -39h-35q20 -40 20 -80q0 -75 -52.5 -121t-148.5 -46 q-54 0 -95 15q-27 -17 -27 -41q0 -22 33 -34t120 -16q101 -4 155.5 -32.5t54.5 -94.5q0 -76 -65 -123.5t-186 -47.5t-173 40.5t-52 100.5q0 70 72 111q-47 26 -47 79q0 52 54 96q-44 44 -44 114zM249 4q-43 3 -78 9q-54 -25 -54 -69q0 -28 29.5 -47.5t92.5 -19.5 q73 0 108.5 21t35.5 54q0 25 -29.5 36t-104.5 16zM151 331q0 -37 26.5 -59t72.5 -22t72.5 22t26.5 59t-26.5 60t-72.5 23t-72.5 -23t-26.5 -60z" />
<glyph unicode="&#x124;" horiz-adv-x="708" d="M208 811l109 62q32 18 65 0l120 -65q44 -23 23 -62q-18 -35 -61 -11l-116 64l-108 -61q-20 -11 -36.5 -8t-24.5 20q-16 36 29 61zM513 61v238h-318v-238q0 -27 -16 -44t-44 -17q-29 0 -44.5 17t-15.5 44v567q0 27 15.5 44.5t44.5 17.5q28 0 44 -17.5t16 -44.5v-222h318 v222q0 27 15.5 44.5t44.5 17.5q28 0 44 -17.5t16 -44.5v-567q0 -27 -16 -44t-44 -17q-29 0 -44.5 17t-15.5 44z" />
<glyph unicode="&#x125;" horiz-adv-x="552" d="M76 58v574q0 25 14.5 41.5t41.5 16.5t42 -16.5t15 -41.5v-215q22 41 61.5 62t86.5 21q93 0 132 -54t39 -160v-228q0 -25 -15 -41.5t-42 -16.5t-41.5 16.5t-14.5 41.5v230q0 112 -85 112q-35 0 -59.5 -17t-37 -48.5t-18 -66.5t-6.5 -81v-129q0 -25 -15 -41.5t-42 -16.5 t-41.5 16.5t-14.5 41.5zM-8 811l109 62q32 18 65 0l120 -65q44 -23 23 -62q-18 -35 -61 -11l-116 64l-108 -61q-20 -11 -36.5 -8t-24.5 20q-16 36 29 61z" />
<glyph unicode="&#x126;" horiz-adv-x="722" d="M520 61v238h-318v-238q0 -27 -16 -44t-44 -17q-29 0 -44.5 17t-15.5 44v447h-36q-41 0 -41 37q0 38 41 38h36v45q0 27 15.5 44.5t44.5 17.5q28 0 44 -17.5t16 -44.5v-45h318v45q0 27 15.5 44.5t44.5 17.5q28 0 44 -17.5t16 -44.5v-45h36q41 0 41 -38q0 -37 -41 -37h-36 v-447q0 -27 -16 -44t-44 -17q-29 0 -44.5 17t-15.5 44zM202 406h318v102h-318v-102z" />
<glyph unicode="&#x127;" horiz-adv-x="578" d="M86 58v482h-50q-41 0 -41 35q0 34 41 34h50v23q0 25 14.5 41.5t41.5 16.5t42 -16.5t15 -41.5v-23h140q42 0 42 -34q0 -35 -42 -35h-140v-123q22 41 61.5 62t86.5 21q93 0 132 -54t39 -160v-228q0 -25 -15 -41.5t-42 -16.5t-41.5 16.5t-14.5 41.5v230q0 112 -85 112 q-35 0 -59.5 -17t-37 -48.5t-18 -66.5t-6.5 -81v-129q0 -25 -15 -41.5t-42 -16.5t-41.5 16.5t-14.5 41.5z" />
<glyph unicode="&#x12a;" horiz-adv-x="270" d="M75 61v567q0 27 15.5 44.5t44.5 17.5q28 0 44 -17.5t16 -44.5v-567q0 -27 -16 -44t-44 -17q-29 0 -44.5 17t-15.5 44zM257 748h-245q-48 0 -48 39q0 40 48 40h245q48 0 48 -40q0 -39 -48 -39z" />
<glyph unicode="&#x12b;" horiz-adv-x="233" d="M60 58v374q0 25 14.5 41.5t41.5 16.5t42 -16.5t15 -41.5v-374q0 -25 -15 -41.5t-42 -16.5t-41.5 16.5t-14.5 41.5zM231 568h-229q-47 0 -47 40t47 40h229q47 0 47 -40t-47 -40z" />
<glyph unicode="&#x12e;" horiz-adv-x="274" d="M170 -13q-59 -65 -59 -109q0 -40 39 -40q12 0 35 7q25 8 36 -11q8 -12 2.5 -28.5t-21.5 -26.5q-30 -19 -75 -19q-56 0 -89 28t-33 80q0 88 72 149v611q0 27 15.5 44.5t44.5 17.5q28 0 44 -17.5t16 -44.5v-577q0 -35 -27 -64z" />
<glyph unicode="&#x12f;" horiz-adv-x="237" d="M152 -13q-59 -65 -59 -109q0 -40 39 -40q12 0 35 7q25 8 36 -11q8 -12 2.5 -28.5t-21.5 -26.5q-30 -19 -75 -19q-56 0 -89 28t-33 80q0 85 75 149v415q0 25 14.5 41.5t41.5 16.5t42 -16.5t15 -41.5v-386q0 -35 -23 -59zM53 619q0 28 17.5 44.5t47.5 16.5t48 -16.5 t18 -44.5q0 -29 -18 -45t-48 -16t-47.5 15.5t-17.5 45.5z" />
<glyph unicode="&#x130;" horiz-adv-x="270" d="M75 61v567q0 27 15.5 44.5t44.5 17.5q28 0 44 -17.5t16 -44.5v-567q0 -27 -16 -44t-44 -17q-29 0 -44.5 17t-15.5 44zM53 804q0 32 22.5 48t57.5 16q34 0 57 -16t23 -48t-23 -47.5t-57 -15.5q-35 0 -57.5 15.5t-22.5 47.5z" />
<glyph unicode="&#x131;" horiz-adv-x="233" d="M60 58v374q0 25 14.5 41.5t41.5 16.5t42 -16.5t15 -41.5v-374q0 -25 -15 -41.5t-42 -16.5t-41.5 16.5t-14.5 41.5z" />
<glyph unicode="&#x134;" horiz-adv-x="388" d="M125 811l109 62q32 18 65 0l120 -65q44 -23 23 -62q-18 -35 -61 -11l-116 64l-108 -61q-20 -11 -36.5 -8t-24.5 20q-16 36 29 61zM2 97q17 39 70 19q46 -19 73 -19q69 0 69 74v457q0 27 15.5 44.5t44.5 17.5q28 0 44 -17.5t16 -44.5v-459q0 -85 -43 -132t-127 -47 q-81 0 -125 25q-58 32 -37 82z" />
<glyph unicode="&#x135;" horiz-adv-x="237" d="M76 -23v455q0 24 15 41t42 17t41.5 -16.5t14.5 -41.5v-466q0 -176 -155 -176q-65 0 -103 19q-46 22 -32 66q11 35 57 26q44 -10 61 -10q35 0 47 21t12 65zM231 557l-102 75l-92 -71q-38 -28 -59 1q-21 31 16 58l105 77q33 25 68 0l110 -79q18 -13 20 -31t-8 -28 q-22 -28 -58 -2z" />
<glyph unicode="&#x136;" horiz-adv-x="571" d="M256 -216q34 34 34 63q0 23 -30 35q-38 20 -24 55q15 34 62 24q37 -7 58 -33.5t21 -63.5t-18 -68.5t-44 -51.5q-19 -14 -39.5 -19t-34.5 8q-15 19 15 51zM75 61v567q0 27 15.5 44.5t44.5 17.5q28 0 44 -17.5t16 -44.5v-252l245 281q48 55 89 18q20 -20 16.5 -44 t-23.5 -45l-213 -230l228 -241q23 -24 27 -49.5t-15 -46.5q-44 -43 -97 13l-257 283v-254q0 -27 -16 -44t-44 -17q-29 0 -44.5 17t-15.5 44z" />
<glyph unicode="&#x137;" horiz-adv-x="462" d="M203 -213q35 33 35 63q0 20 -31 34q-37 17 -23 53q14 35 63 23q35 -8 55.5 -32.5t20.5 -60.5q0 -71 -62 -117q-19 -15 -39.5 -19.5t-33.5 9.5q-13 19 15 47zM60 58v574q0 25 14.5 41.5t40.5 16.5q27 0 41.5 -16.5t14.5 -41.5v-365l170 194q45 51 84 14q15 -15 13 -36 t-21 -41l-141 -150l158 -150q19 -18 21.5 -40.5t-12.5 -38.5q-39 -42 -87 8l-185 188v-157q0 -25 -14.5 -41.5t-41.5 -16.5t-41 16.5t-14 41.5z" />
<glyph unicode="&#x139;" horiz-adv-x="533" d="M304 805l-139 -64q-53 -24 -69 10q-21 40 31 64l143 67q50 23 67 -12q19 -39 -33 -65zM477 0h-338q-28 0 -43 17.5t-15 43.5v567q0 27 15.5 44.5t44.5 17.5q28 0 44 -17.5t16 -44.5v-521h276q26 0 41.5 -14.5t15.5 -38.5q0 -25 -15.5 -39.5t-41.5 -14.5z" />
<glyph unicode="&#x13a;" horiz-adv-x="340" d="M60 154v478q0 25 14.5 41.5t41.5 16.5t42 -16.5t15 -41.5v-462q0 -42 13 -61t44 -19q24 0 53 12q19 8 36.5 3t24.5 -22q17 -44 -32 -71q-38 -22 -101 -22q-151 0 -151 164zM291 805l-139 -64q-53 -24 -69 10q-21 40 31 64l143 67q50 23 67 -12q19 -39 -33 -65z" />
<glyph unicode="&#x13b;" horiz-adv-x="533" d="M244 -216q34 34 34 63q0 23 -30 35q-38 20 -24 55q15 34 62 24q37 -7 58 -33.5t21 -63.5t-18 -68.5t-44 -51.5q-19 -14 -39.5 -19t-34.5 8q-15 19 15 51zM471 0h-338q-28 0 -43 17.5t-15 43.5v567q0 27 15.5 44.5t44.5 17.5q28 0 44 -17.5t16 -44.5v-521h276 q26 0 41.5 -14.5t15.5 -38.5q0 -25 -15.5 -39.5t-41.5 -14.5z" />
<glyph unicode="&#x13c;" horiz-adv-x="340" d="M153 -213q35 33 35 63q0 20 -31 34q-37 17 -23 53q14 35 63 23q35 -8 55.5 -32.5t20.5 -60.5q0 -71 -62 -117q-19 -15 -39.5 -19.5t-33.5 9.5q-13 19 15 47zM60 154v478q0 25 14.5 41.5t41.5 16.5t42 -16.5t15 -41.5v-462q0 -42 13 -61t44 -19q24 0 53 12q19 8 36.5 3 t24.5 -22q17 -44 -32 -71q-38 -22 -101 -22q-151 0 -151 164z" />
<glyph unicode="&#x13d;" horiz-adv-x="533" d="M328 518q33 33 33 61q0 20 -29 34q-38 17 -23 55q14 33 61 23q36 -8 57 -33.5t21 -60.5q0 -71 -61 -118q-19 -14 -39 -19t-35 8q-14 19 15 50zM471 0h-338q-28 0 -43 17.5t-15 43.5v567q0 27 15.5 44.5t44.5 17.5q28 0 44 -17.5t16 -44.5v-521h276q26 0 41.5 -14.5 t15.5 -38.5q0 -25 -15.5 -39.5t-41.5 -14.5z" />
<glyph unicode="&#x13e;" horiz-adv-x="353" d="M238 538q26 26 26 52q0 20 -27 31q-36 19 -22 54q14 33 63 22q35 -8 53 -32t18 -56q0 -65 -53 -108q-19 -15 -39 -19t-33 9q-14 19 14 47zM55 154v478q0 25 14.5 41.5t41.5 16.5t42 -16.5t15 -41.5v-462q0 -42 13 -61t44 -19q24 0 53 12q19 8 36.5 3t24.5 -22 q17 -44 -32 -71q-39 -22 -101 -22q-151 0 -151 164z" />
<glyph unicode="&#x13f;" horiz-adv-x="533" d="M471 0h-338q-28 0 -43 17.5t-15 43.5v567q0 27 15.5 44.5t44.5 17.5q28 0 44 -17.5t16 -44.5v-521h276q26 0 41.5 -14.5t15.5 -38.5q0 -25 -15.5 -39.5t-41.5 -14.5zM309 392q0 29 18.5 49.5t50.5 20.5t51 -20.5t19 -49.5q0 -30 -18.5 -49.5t-51.5 -19.5t-51 19.5 t-18 49.5z" />
<glyph unicode="&#x140;" horiz-adv-x="360" d="M219 369q0 31 18 48.5t49 17.5t49.5 -17.5t18.5 -48.5t-18.5 -48.5t-49.5 -17.5q-32 0 -49.5 17.5t-17.5 48.5zM55 154v478q0 25 14.5 41.5t41.5 16.5t42 -16.5t15 -41.5v-462q0 -42 13 -61t44 -19q24 0 53 12q19 8 36.5 3t24.5 -22q17 -44 -32 -71q-39 -22 -101 -22 q-151 0 -151 164z" />
<glyph unicode="&#x141;" horiz-adv-x="546" d="M491 0h-338q-28 0 -43 17.5t-15 43.5v205l-13 -9q-18 -13 -37.5 -13.5t-33.5 17.5q-12 20 -5.5 38.5t24.5 31.5l65 45v252q0 27 15.5 44.5t44.5 17.5q28 0 44 -17.5t16 -44.5v-170l40 28q19 14 40.5 14t33.5 -18q12 -21 5 -40t-27 -31l-92 -63v-241h276q26 0 41.5 -14.5 t15.5 -38.5q0 -25 -15.5 -39.5t-41.5 -14.5z" />
<glyph unicode="&#x142;" horiz-adv-x="348" d="M77 154v95l-3 -2q-18 -13 -37 -13.5t-34 17.5q-13 21 -6.5 39t25.5 31l55 38v273q0 25 14.5 41.5t41.5 16.5t42 -16.5t15 -41.5v-196l43 30q46 33 71 -4q13 -21 6.5 -40t-25.5 -31l-95 -65v-156q0 -42 13 -61t44 -19q24 0 53 12q19 8 36.5 3t24.5 -22q17 -44 -32 -71 q-38 -22 -101 -22q-151 0 -151 164z" />
<glyph unicode="&#x143;" horiz-adv-x="708" d="M522 213v415q0 62 54 62q55 0 55 -62v-567q0 -27 -15.5 -44t-41.5 -17q-30 0 -54 30l-334 443v-412q0 -61 -55 -61q-54 0 -54 61v566q0 63 56 63q35 0 59 -33zM481 805l-139 -64q-53 -24 -69 10q-21 40 31 64l143 67q50 23 67 -12q19 -39 -33 -65z" />
<glyph unicode="&#x144;" horiz-adv-x="552" d="M60 58v374q0 25 14.5 41.5t41.5 16.5t42 -16.5t15 -41.5v-15q22 41 61.5 62t86.5 21q93 0 132 -54t39 -160v-228q0 -25 -15 -41.5t-42 -16.5t-41.5 16.5t-14.5 41.5v230q0 112 -85 112q-35 0 -59.5 -17t-37 -48.5t-18 -66.5t-6.5 -81v-129q0 -25 -15 -41.5t-42 -16.5 t-41.5 16.5t-14.5 41.5zM403 636l-116 -76q-43 -31 -66 2q-26 36 21 67l120 78q43 28 65 -5q21 -35 -24 -66z" />
<glyph unicode="&#x145;" horiz-adv-x="708" d="M301 -216q34 34 34 63q0 21 -30 35q-37 17 -24 55q13 35 62 25q36 -7 57.5 -34t21.5 -64t-18 -68.5t-44 -51.5q-19 -14 -39.5 -19t-34.5 8q-15 19 15 51zM522 213v415q0 62 54 62q55 0 55 -62v-567q0 -27 -15.5 -44t-41.5 -17q-30 0 -54 30l-334 443v-412q0 -61 -55 -61 q-54 0 -54 61v566q0 63 56 63q35 0 59 -33z" />
<glyph unicode="&#x146;" horiz-adv-x="552" d="M219 -213q35 33 35 63q0 22 -31 34q-36 19 -23 53q14 35 63 23q35 -8 55.5 -32.5t20.5 -60.5q0 -71 -62 -117q-19 -15 -39.5 -19.5t-33.5 9.5q-13 19 15 47zM60 58v374q0 25 14.5 41.5t41.5 16.5t42 -16.5t15 -41.5v-15q22 41 61.5 62t86.5 21q93 0 132 -54t39 -160v-228 q0 -25 -15 -41.5t-42 -16.5t-41.5 16.5t-14.5 41.5v230q0 112 -85 112q-35 0 -59.5 -17t-37 -48.5t-18 -66.5t-6.5 -81v-129q0 -25 -15 -41.5t-42 -16.5t-41.5 16.5t-14.5 41.5z" />
<glyph unicode="&#x147;" horiz-adv-x="708" d="M501 801l-109 -62q-32 -18 -65 0l-120 65q-21 11 -27.5 29t4.5 35q19 32 61 9l118 -66l106 63q20 11 36.5 8t24.5 -20q18 -35 -29 -61zM522 213v415q0 62 54 62q55 0 55 -62v-567q0 -27 -15.5 -44t-41.5 -17q-30 0 -54 30l-334 443v-412q0 -61 -55 -61q-54 0 -54 61v566 q0 63 56 63q35 0 59 -33z" />
<glyph unicode="&#x148;" horiz-adv-x="552" d="M183 699l101 -75l93 70q37 27 59 -1q10 -11 6 -27.5t-22 -29.5l-105 -78q-33 -25 -68 0l-108 78q-38 28 -15 59q11 14 28 14.5t31 -10.5zM60 58v374q0 25 14.5 41.5t41.5 16.5t42 -16.5t15 -41.5v-15q22 41 61.5 62t86.5 21q93 0 132 -54t39 -160v-228q0 -25 -15 -41.5 t-42 -16.5t-41.5 16.5t-14.5 41.5v230q0 112 -85 112q-35 0 -59.5 -17t-37 -48.5t-18 -66.5t-6.5 -81v-129q0 -25 -15 -41.5t-42 -16.5t-41.5 16.5t-14.5 41.5z" />
<glyph unicode="&#x14c;" horiz-adv-x="747" d="M45 345q0 155 85.5 255t242.5 100t243 -100t86 -255q0 -156 -86 -255.5t-243 -99.5t-242.5 99.5t-85.5 255.5zM171 345q0 -109 52.5 -178.5t149.5 -69.5q98 0 150.5 69.5t52.5 178.5t-52.5 178.5t-150.5 69.5q-97 0 -149.5 -69.5t-52.5 -178.5zM496 748h-245 q-48 0 -48 39q0 40 48 40h245q48 0 48 -40q0 -39 -48 -39z" />
<glyph unicode="&#x14d;" horiz-adv-x="549" d="M35 245q0 113 63 184t176 71t176.5 -71.5t63.5 -183.5t-63.5 -183.5t-176.5 -71.5t-176 71t-63 184zM151 245q0 -71 32 -115t91 -44q60 0 92 44t32 115t-32 115t-92 44q-59 0 -91 -44.5t-32 -114.5zM389 568h-229q-47 0 -47 40t47 40h229q47 0 47 -40t-47 -40z" />
<glyph unicode="&#x14e;" horiz-adv-x="747" d="M45 345q0 155 85.5 255t242.5 100t243 -100t86 -255q0 -156 -86 -255.5t-243 -99.5t-242.5 99.5t-85.5 255.5zM171 345q0 -109 52.5 -178.5t149.5 -69.5q98 0 150.5 69.5t52.5 178.5t-52.5 178.5t-150.5 69.5q-97 0 -149.5 -69.5t-52.5 -178.5zM374 734q-54 0 -96 18.5 t-62 45.5q-27 36 0 61q27 26 65 -10q39 -38 93 -38t92 37q36 36 65 11q27 -23 -1 -61q-20 -28 -61 -46t-95 -18z" />
<glyph unicode="&#x14f;" horiz-adv-x="549" d="M35 245q0 113 63 184t176 71t176.5 -71.5t63.5 -183.5t-63.5 -183.5t-176.5 -71.5t-176 71t-63 184zM151 245q0 -71 32 -115t91 -44q60 0 92 44t32 115t-32 115t-92 44q-59 0 -91 -44.5t-32 -114.5zM273 548q-52 0 -89 21t-55 52q-9 16 -7 33t15 26q32 21 62 -16 q34 -41 74 -41q24 0 40.5 10.5t34.5 31.5q29 36 62 15q28 -19 6 -58q-44 -74 -143 -74z" />
<glyph unicode="&#x150;" horiz-adv-x="747" d="M410 805l-139 -64q-53 -24 -69 10q-21 40 31 64l143 67q50 23 67 -12q20 -41 -33 -65zM636 805l-139 -64q-53 -24 -69 10q-21 40 31 64l143 67q50 23 67 -12q20 -41 -33 -65zM45 345q0 155 85.5 255t242.5 100t243 -100t86 -255q0 -156 -86 -255.5t-243 -99.5 t-242.5 99.5t-85.5 255.5zM171 345q0 -109 52.5 -178.5t149.5 -69.5q98 0 150.5 69.5t52.5 178.5t-52.5 178.5t-150.5 69.5q-97 0 -149.5 -69.5t-52.5 -178.5z" />
<glyph unicode="&#x151;" horiz-adv-x="549" d="M317 643l-108 -72q-40 -27 -62 1q-11 13 -7 30t26 31l112 75q42 27 63 -4q20 -31 -24 -61zM484 643l-108 -72q-40 -27 -62 1q-11 13 -7 30t26 31l112 75q42 27 63 -4q20 -31 -24 -61zM35 245q0 113 63 184t176 71t176.5 -71.5t63.5 -183.5t-63.5 -183.5t-176.5 -71.5 t-176 71t-63 184zM151 245q0 -71 32 -115t91 -44q60 0 92 44t32 115t-32 115t-92 44q-59 0 -91 -44.5t-32 -114.5z" />
<glyph unicode="&#x152;" horiz-adv-x="964" d="M542 0q-26 0 -42 13q-59 -23 -127 -23q-157 0 -242.5 99.5t-85.5 255.5q0 155 85.5 255t242.5 100q71 0 128 -23q16 13 40 13h336q26 0 41.5 -14.5t15.5 -39.5q0 -24 -15.5 -38.5t-41.5 -14.5h-277v-175h221q27 0 42.5 -14t15.5 -39q0 -24 -15.5 -39t-42.5 -15h-221v-194 h287q26 0 41.5 -14.5t15.5 -39.5q0 -24 -15.5 -38.5t-41.5 -14.5h-345zM373 97q61 0 107 24v448q-45 24 -107 24q-97 0 -149.5 -69.5t-52.5 -178.5t52.5 -178.5t149.5 -69.5z" />
<glyph unicode="&#x153;" horiz-adv-x="809" d="M705 204h-253q2 -57 36 -90t92 -33q46 0 106 25q43 18 61 -13q9 -15 4 -34t-24 -31q-58 -38 -158 -38q-96 0 -154 49q-63 -49 -146 -49q-113 0 -173.5 70t-60.5 185q0 113 62 184t175 71q88 0 148 -52q61 52 151 52q96 0 150.5 -54.5t54.5 -144.5q0 -29 -5 -47 q-7 -26 -22 -38t-44 -12zM276 86q49 0 87 25q-23 57 -23 132q0 72 25 130q-36 31 -89 31q-60 0 -92.5 -43t-32.5 -116t32.5 -116t92.5 -43zM571 409q-53 0 -83.5 -32.5t-35.5 -93.5h219q1 10 1 25q0 45 -25.5 73t-75.5 28z" />
<glyph unicode="&#x154;" horiz-adv-x="612" d="M75 61v552q0 57 56 69q59 13 150 13q259 0 259 -208q0 -71 -34 -120t-92 -69l127 -193q18 -27 15 -54.5t-26 -41.5q-53 -30 -91 33l-142 234q-13 -2 -43 -2q-32 0 -59 4v-217q0 -27 -16 -44t-44 -17q-29 0 -44.5 17t-15.5 44zM263 364q77 0 114 27.5t37 88.5 q0 108 -143 108q-26 0 -76 -6v-214q31 -4 68 -4zM417 805l-139 -64q-53 -24 -69 10q-21 40 31 64l143 67q50 23 67 -12q19 -39 -33 -65z" />
<glyph unicode="&#x155;" horiz-adv-x="367" d="M60 432v-374q0 -25 14.5 -41.5t41.5 -16.5t42 16.5t15 41.5v169q0 171 86 171q20 0 47 -9q46 -16 63 22q14 31 -9.5 60t-81.5 29q-33 0 -61 -17.5t-44 -46.5q0 21 -15 37.5t-42 16.5t-41.5 -16.5t-14.5 -41.5zM344 636l-116 -76q-43 -31 -66 2q-26 36 21 67l120 78 q43 28 65 -5q21 -35 -24 -66z" />
<glyph unicode="&#x156;" horiz-adv-x="612" d="M276 -216q34 34 34 63q0 23 -30 35q-38 20 -24 55q15 34 62 24q37 -7 58 -33.5t21 -63.5t-18 -68.5t-44 -51.5q-19 -14 -39.5 -19t-34.5 8q-15 19 15 51zM75 61v552q0 57 56 69q59 13 150 13q259 0 259 -208q0 -71 -34 -120t-92 -69l127 -193q18 -27 15 -54.5t-26 -41.5 q-53 -30 -91 33l-142 234q-13 -2 -43 -2q-32 0 -59 4v-217q0 -27 -16 -44t-44 -17q-29 0 -44.5 17t-15.5 44zM263 364q77 0 114 27.5t37 88.5q0 108 -143 108q-26 0 -76 -6v-214q31 -4 68 -4z" />
<glyph unicode="&#x157;" horiz-adv-x="367" d="M91 -213q36 34 36 63q0 22 -32 34q-35 19 -23 53q15 34 63 23q36 -8 56.5 -32.5t20.5 -60.5q0 -72 -63 -117q-19 -15 -39 -19.5t-33 9.5q-13 18 14 47zM68 58v374q0 25 14.5 41.5t41.5 16.5t42 -16.5t15 -37.5q16 29 44 46.5t61 17.5q58 0 81.5 -29t9.5 -60 q-17 -38 -63 -22q-27 9 -47 9q-86 0 -86 -171v-169q0 -25 -15 -41.5t-42 -16.5t-41.5 16.5t-14.5 41.5z" />
<glyph unicode="&#x158;" horiz-adv-x="612" d="M75 61v552q0 57 56 69q59 13 150 13q259 0 259 -208q0 -71 -34 -120t-92 -69l127 -193q18 -27 15 -54.5t-26 -41.5q-53 -30 -91 33l-142 234q-13 -2 -43 -2q-32 0 -59 4v-217q0 -27 -16 -44t-44 -17q-29 0 -44.5 17t-15.5 44zM263 364q77 0 114 27.5t37 88.5 q0 108 -143 108q-26 0 -76 -6v-214q31 -4 68 -4zM425 801l-109 -62q-32 -18 -65 0l-120 65q-21 11 -27.5 29t4.5 35q19 32 61 9l118 -66l106 63q20 11 36.5 8t24.5 -20q18 -35 -29 -61z" />
<glyph unicode="&#x159;" horiz-adv-x="367" d="M83 432v-374q0 -25 14.5 -41.5t41.5 -16.5t42 16.5t15 41.5v169q0 171 86 171q20 0 47 -9q46 -16 63 22q14 31 -9.5 60t-81.5 29q-33 0 -61 -17.5t-44 -46.5q0 21 -15 37.5t-42 16.5t-41.5 -16.5t-14.5 -41.5zM137 699l101 -75l93 70q37 27 59 -1q10 -11 6 -27.5 t-22 -29.5l-105 -78q-33 -25 -68 0l-108 78q-38 28 -15 59q11 14 28 14.5t31 -10.5z" />
<glyph unicode="&#x15a;" horiz-adv-x="551" d="M280 590q-99 0 -99 -72q0 -32 26 -54.5t64.5 -34.5t84 -30t84 -38t64.5 -61t26 -98q0 -97 -61 -154.5t-184 -57.5q-110 0 -190 41q-34 18 -45.5 43t2.5 51q20 39 86 12q80 -37 150 -37q56 0 88.5 22t32.5 65q0 42 -36 68t-87 42t-102.5 36.5t-87.5 65.5t-36 115 q0 86 58.5 136t170.5 50q101 0 174 -42q61 -33 35 -84q-22 -43 -95 -11q-64 27 -123 27zM418 805l-139 -64q-53 -24 -69 10q-21 40 31 64l143 67q50 23 67 -12q19 -39 -33 -65z" />
<glyph unicode="&#x15b;" horiz-adv-x="433" d="M238 500q86 0 143 -33q46 -26 28 -66q-16 -34 -63 -19q-69 27 -104 27q-67 0 -67 -45q0 -25 26 -41.5t63 -28t74 -26.5t63 -47t26 -79q0 -73 -49.5 -112.5t-148.5 -39.5q-98 0 -156 38q-42 30 -23 69q18 37 73 12q63 -28 116 -28q74 0 74 51q0 26 -26 42.5t-63 28.5 t-74 27t-63 48t-26 82q0 68 48 104t129 36zM358 636l-116 -76q-43 -31 -66 2q-26 36 21 67l120 78q43 28 65 -5q21 -35 -24 -66z" />
<glyph unicode="&#x15c;" horiz-adv-x="551" d="M280 590q-99 0 -99 -72q0 -32 26 -54.5t64.5 -34.5t84 -30t84 -38t64.5 -61t26 -98q0 -97 -61 -154.5t-184 -57.5q-110 0 -190 41q-34 18 -45.5 43t2.5 51q20 39 86 12q80 -37 150 -37q56 0 88.5 22t32.5 65q0 42 -36 68t-87 42t-102.5 36.5t-87.5 65.5t-36 115 q0 86 58.5 136t170.5 50q101 0 174 -42q61 -33 35 -84q-22 -43 -95 -11q-64 27 -123 27zM148 811l109 62q32 18 65 0l120 -65q44 -23 23 -62q-18 -35 -61 -11l-116 64l-108 -61q-20 -11 -36.5 -8t-24.5 20q-16 36 29 61z" />
<glyph unicode="&#x15d;" horiz-adv-x="433" d="M238 500q86 0 143 -33q46 -26 28 -66q-16 -34 -63 -19q-69 27 -104 27q-67 0 -67 -45q0 -25 26 -41.5t63 -28t74 -26.5t63 -47t26 -79q0 -73 -49.5 -112.5t-148.5 -39.5q-98 0 -156 38q-42 30 -23 69q18 37 73 12q63 -28 116 -28q74 0 74 51q0 26 -26 42.5t-63 28.5 t-74 27t-63 48t-26 82q0 68 48 104t129 36zM343 557l-102 75l-92 -71q-38 -28 -59 1q-21 31 16 58l105 77q33 25 68 0l110 -79q18 -13 20 -31t-8 -28q-22 -28 -58 -2z" />
<glyph unicode="&#x15e;" horiz-adv-x="551" d="M203 -164q36 -9 53 -9q43 0 43 32q0 18 -13.5 26.5t-45.5 13.5q-16 2 -21.5 12t-2.5 23l13 59q-80 8 -134 36q-34 18 -45.5 44t2.5 52q20 39 86 12q80 -37 150 -37q56 0 88.5 22t32.5 65q0 42 -36 68t-87 42t-102.5 36.5t-87.5 65.5t-36 115q0 86 58.5 136t170.5 50 q103 0 174 -41q62 -33 35 -85q-22 -43 -95 -11q-64 27 -123 27q-99 0 -99 -72q0 -32 26 -54.5t64.5 -34.5t84 -30t84 -38t64.5 -61t26 -98q0 -94 -57 -151t-173 -61l-6 -33q103 -9 103 -94q0 -44 -31 -73.5t-94 -29.5q-58 0 -90 17q-14 7 -19 20t1 25q9 22 39 14z" />
<glyph unicode="&#x15f;" horiz-adv-x="433" d="M238 500q86 0 143 -33q46 -26 28 -66q-16 -34 -63 -19q-69 27 -104 27q-67 0 -67 -45q0 -25 26 -41.5t63 -28t74 -26.5t63 -47t26 -79q0 -141 -172 -151l-6 -34q55 -3 79 -31t24 -66q0 -43 -31 -71.5t-94 -28.5q-58 0 -90 17q-14 7 -19 20t1 25q9 22 39 14q36 -9 53 -9 q43 0 43 32q0 18 -13.5 26.5t-45.5 13.5q-16 2 -21.5 12t-2.5 23l13 59q-71 9 -111 35q-42 30 -23 69q18 37 73 12q63 -28 116 -28q74 0 74 51q0 26 -26 42.5t-63 28.5t-74 27t-63 48t-26 82q0 68 48 104t129 36z" />
<glyph unicode="&#x160;" horiz-adv-x="551" d="M280 590q-99 0 -99 -72q0 -32 26 -54.5t64.5 -34.5t84 -30t84 -38t64.5 -61t26 -98q0 -97 -61 -154.5t-184 -57.5q-110 0 -190 41q-34 18 -45.5 43t2.5 51q20 39 86 12q80 -37 150 -37q56 0 88.5 22t32.5 65q0 42 -36 68t-87 42t-102.5 36.5t-87.5 65.5t-36 115 q0 86 58.5 136t170.5 50q101 0 174 -42q61 -33 35 -84q-22 -43 -95 -11q-64 27 -123 27zM438 801l-109 -62q-32 -18 -65 0l-120 65q-21 11 -27.5 29t4.5 35q19 32 61 9l118 -66l106 63q20 11 36.5 8t24.5 -20q18 -35 -29 -61z" />
<glyph unicode="&#x161;" horiz-adv-x="433" d="M238 500q86 0 143 -33q46 -26 28 -66q-16 -34 -63 -19q-69 27 -104 27q-67 0 -67 -45q0 -25 26 -41.5t63 -28t74 -26.5t63 -47t26 -79q0 -73 -49.5 -112.5t-148.5 -39.5q-98 0 -156 38q-42 30 -23 69q18 37 73 12q63 -28 116 -28q74 0 74 51q0 26 -26 42.5t-63 28.5 t-74 27t-63 48t-26 82q0 68 48 104t129 36zM153 699l101 -75l93 70q37 27 59 -1q10 -11 6 -27.5t-22 -29.5l-105 -78q-33 -25 -68 0l-108 78q-38 28 -15 59q11 14 28 14.5t31 -10.5z" />
<glyph unicode="&#x162;" horiz-adv-x="599" d="M261 -216q34 34 34 63q0 23 -30 35q-37 19 -23 55q13 34 62 24q37 -7 58 -33.5t21 -63.5q0 -72 -62 -120q-20 -14 -40 -19t-35 8q-14 18 15 51zM62 690h474q27 0 42.5 -14t15.5 -39q0 -24 -15.5 -39t-42.5 -15h-177v-522q0 -27 -15.5 -44t-44.5 -17t-44.5 17t-15.5 44 v522h-177q-26 0 -41.5 15t-15.5 39q0 25 15.5 39t41.5 14z" />
<glyph unicode="&#x163;" horiz-adv-x="337" d="M157 -213q35 33 35 63q0 22 -31 34q-36 19 -23 53q14 35 63 23q35 -8 55.5 -32.5t20.5 -60.5q0 -71 -62 -117q-19 -15 -39.5 -19.5t-33.5 9.5q-13 19 15 47zM60 164v393q0 25 14.5 41.5t41.5 16.5t42 -16.5t15 -41.5v-62h85q54 0 54 -48t-54 -48h-85v-223q0 -43 13 -62 t44 -19q24 0 53 12q19 8 36 3t24 -22q17 -42 -31 -70q-40 -23 -100 -23q-152 0 -152 169z" />
<glyph unicode="&#x164;" horiz-adv-x="599" d="M445 801l-109 -62q-32 -18 -65 0l-120 65q-21 11 -27.5 29t4.5 35q19 32 61 9l118 -66l106 63q20 11 36.5 8t24.5 -20q18 -35 -29 -61zM62 690h474q27 0 42.5 -14t15.5 -39q0 -24 -15.5 -39t-42.5 -15h-177v-522q0 -27 -15.5 -44t-44.5 -17t-44.5 17t-15.5 44v522h-177 q-26 0 -41.5 15t-15.5 39q0 25 15.5 39t41.5 14z" />
<glyph unicode="&#x165;" horiz-adv-x="355" d="M249 557q22 23 22 47q0 18 -23 28q-32 14 -17 47q12 27 56 19q30 -5 48 -28t18 -51q0 -58 -49 -97q-17 -12 -35 -15.5t-29 8.5q-14 18 9 42zM55 159v393q0 25 14.5 41.5t41.5 16.5t42 -16.5t15 -41.5v-62h85q54 0 54 -48t-54 -48h-85v-223q0 -43 13 -62t44 -19 q24 0 53 12q19 8 36 3t24 -22q17 -42 -31 -70q-40 -23 -100 -23q-152 0 -152 169z" />
<glyph unicode="&#x16a;" horiz-adv-x="679" d="M489 276v352q0 27 14.5 44.5t42.5 17.5t43 -17.5t15 -44.5v-347q0 -62 -13 -112t-42 -91.5t-82 -64.5t-126 -23q-141 0 -203.5 79.5t-62.5 209.5v349q0 27 15.5 44.5t43.5 17.5q29 0 45 -17.5t16 -44.5v-354q0 -177 147 -177t147 179zM468 748h-245q-48 0 -48 39 q0 40 48 40h245q48 0 48 -40q0 -39 -48 -39z" />
<glyph unicode="&#x16b;" horiz-adv-x="552" d="M492 432v-374q0 -25 -14.5 -41.5t-41.5 -16.5t-42 16.5t-15 41.5v15q-22 -41 -61.5 -62t-86.5 -21q-93 0 -132 54t-39 160v228q0 25 15 41.5t42 16.5t41.5 -16.5t14.5 -41.5v-230q0 -112 85 -112q35 0 59.5 17t37 48.5t18 66.5t6.5 81v129q0 25 15 41.5t42 16.5 t41.5 -16.5t14.5 -41.5zM391 568h-229q-47 0 -47 40t47 40h229q47 0 47 -40t-47 -40z" />
<glyph unicode="&#x16c;" horiz-adv-x="679" d="M489 276v352q0 27 14.5 44.5t42.5 17.5t43 -17.5t15 -44.5v-347q0 -62 -13 -112t-42 -91.5t-82 -64.5t-126 -23q-141 0 -203.5 79.5t-62.5 209.5v349q0 27 15.5 44.5t43.5 17.5q29 0 45 -17.5t16 -44.5v-354q0 -177 147 -177t147 179zM346 734q-54 0 -96 18.5t-62 45.5 q-27 36 0 61q27 26 65 -10q39 -38 93 -38t92 37q36 36 65 11q27 -23 -1 -61q-20 -28 -61 -46t-95 -18z" />
<glyph unicode="&#x16d;" horiz-adv-x="552" d="M492 432v-374q0 -25 -14.5 -41.5t-41.5 -16.5t-42 16.5t-15 41.5v15q-22 -41 -61.5 -62t-86.5 -21q-93 0 -132 54t-39 160v228q0 25 15 41.5t42 16.5t41.5 -16.5t14.5 -41.5v-230q0 -112 85 -112q35 0 59.5 17t37 48.5t18 66.5t6.5 81v129q0 25 15 41.5t42 16.5 t41.5 -16.5t14.5 -41.5zM276 548q-52 0 -89 21t-55 52q-9 16 -7 33t15 26q32 21 62 -16q34 -41 74 -41q24 0 40.5 10.5t34.5 31.5q29 36 62 15q28 -19 6 -58q-44 -74 -143 -74z" />
<glyph unicode="&#x16e;" horiz-adv-x="679" d="M357 875q57 0 88 -25t31 -68t-31 -68.5t-88 -25.5t-88 25.5t-31 68.5t31 68t88 25zM312 782q0 -19 12 -31.5t33 -12.5t33.5 12.5t12.5 31.5q0 18 -13 30.5t-33 12.5q-21 0 -33 -12t-12 -31zM489 276v352q0 27 14.5 44.5t42.5 17.5t43 -17.5t15 -44.5v-347q0 -62 -13 -112 t-42 -91.5t-82 -64.5t-126 -23q-141 0 -203.5 79.5t-62.5 209.5v349q0 27 15.5 44.5t43.5 17.5q29 0 45 -17.5t16 -44.5v-354q0 -177 147 -177t147 179z" />
<glyph unicode="&#x16f;" horiz-adv-x="552" d="M492 432v-374q0 -25 -14.5 -41.5t-41.5 -16.5t-42 16.5t-15 41.5v15q-22 -41 -61.5 -62t-86.5 -21q-93 0 -132 54t-39 160v228q0 25 15 41.5t42 16.5t41.5 -16.5t14.5 -41.5v-230q0 -112 85 -112q35 0 59.5 17t37 48.5t18 66.5t6.5 81v129q0 25 15 41.5t42 16.5 t41.5 -16.5t14.5 -41.5zM277 729q50 0 79.5 -26.5t29.5 -70.5q0 -45 -29.5 -71t-79.5 -26t-79.5 26t-29.5 71q0 44 29.5 70.5t79.5 26.5zM230 632q0 -20 13.5 -32.5t33.5 -12.5t33.5 12.5t13.5 32.5t-13.5 32.5t-33.5 12.5t-33.5 -12.5t-13.5 -32.5z" />
<glyph unicode="&#x170;" horiz-adv-x="679" d="M390 805l-139 -64q-53 -24 -69 10q-21 40 31 64l143 67q50 23 67 -12q20 -41 -33 -65zM616 805l-139 -64q-53 -24 -69 10q-21 40 31 64l143 67q50 23 67 -12q20 -41 -33 -65zM489 276v352q0 27 14.5 44.5t42.5 17.5t43 -17.5t15 -44.5v-347q0 -62 -13 -112t-42 -91.5 t-82 -64.5t-126 -23q-141 0 -203.5 79.5t-62.5 209.5v349q0 27 15.5 44.5t43.5 17.5q29 0 45 -17.5t16 -44.5v-354q0 -177 147 -177t147 179z" />
<glyph unicode="&#x171;" horiz-adv-x="552" d="M316 643l-108 -72q-40 -27 -62 1q-11 13 -7 30t26 31l112 75q42 27 63 -4q20 -31 -24 -61zM483 643l-108 -72q-40 -27 -62 1q-11 13 -7 30t26 31l112 75q42 27 63 -4q20 -31 -24 -61zM492 432v-374q0 -25 -14.5 -41.5t-41.5 -16.5t-42 16.5t-15 41.5v15 q-22 -41 -61.5 -62t-86.5 -21q-93 0 -132 54t-39 160v228q0 25 15 41.5t42 16.5t41.5 -16.5t14.5 -41.5v-230q0 -112 85 -112q35 0 59.5 17t37 48.5t18 66.5t6.5 81v129q0 25 15 41.5t42 16.5t41.5 -16.5t14.5 -41.5z" />
<glyph unicode="&#x172;" horiz-adv-x="679" d="M489 276v352q0 27 14.5 44.5t42.5 17.5t43 -17.5t15 -44.5v-348q0 -94 -27.5 -158.5t-95.5 -102.5q-55 -29 -80 -58q-38 -44 -38 -82q0 -41 39 -41q12 0 35 7q25 8 36 -11q8 -12 2.5 -28.5t-21.5 -26.5q-30 -19 -75 -19q-54 0 -88 29.5t-34 78.5q0 70 61 123 q-128 7 -185.5 86.5t-57.5 203.5v347q0 27 15.5 44.5t43.5 17.5q29 0 45 -17.5t16 -44.5v-352q0 -80 34.5 -129.5t112.5 -49.5q147 0 147 179z" />
<glyph unicode="&#x173;" horiz-adv-x="552" d="M492 432v-386q0 -35 -23 -59q-59 -65 -59 -109q0 -40 39 -40q12 0 35 7q25 8 36 -11q8 -12 2.5 -28.5t-21.5 -26.5q-30 -19 -75 -19q-56 0 -89 28t-33 80q0 85 75 149v56q-22 -41 -62.5 -62t-87.5 -21q-93 0 -131 54t-38 160v228q0 25 15 41.5t42 16.5t41.5 -16.5 t14.5 -41.5v-230q0 -112 83 -112q119 0 123 213v129q0 25 15 41.5t42 16.5t41.5 -16.5t14.5 -41.5z" />
<glyph unicode="&#x178;" horiz-adv-x="566" d="M267 62v237l-197 282q-42 65 6 99q30 17 53 7t41 -38l161 -242l156 242q17 26 38 36t51 -5q22 -18 21.5 -40t-16.5 -46l-194 -290v-242q0 -27 -16 -44t-44 -17q-29 0 -44.5 17t-15.5 44zM152 796q0 28 20.5 44t51.5 16q33 0 53.5 -16t20.5 -44t-20.5 -43t-53.5 -15 q-32 0 -52 15t-20 43zM360 796q0 28 20 44t53 16q32 0 52.5 -16t20.5 -44t-20.5 -43t-52.5 -15q-33 0 -53 15t-20 43z" />
<glyph unicode="&#x179;" horiz-adv-x="574" d="M96 0q-46 0 -57.5 35.5t12.5 64.5l350 483h-293q-27 0 -42.5 15t-15.5 39q0 25 15.5 39t42.5 14h384q45 0 58 -32.5t-12 -64.5l-350 -486h316q27 0 42 -14.5t15 -39.5q0 -24 -15.5 -38.5t-41.5 -14.5h-408zM452 805l-139 -64q-53 -24 -69 10q-21 40 31 64l143 67 q50 23 67 -12q19 -39 -33 -65z" />
<glyph unicode="&#x17a;" horiz-adv-x="453" d="M102 490h274q44 0 55 -32t-14 -61l-242 -301h213q53 0 53 -48t-53 -48h-296q-41 0 -52 31.5t13 60.5l246 302h-197q-53 0 -53 48t53 48zM360 636l-116 -76q-43 -31 -66 2q-26 36 21 67l120 78q43 28 65 -5q21 -35 -24 -66z" />
<glyph unicode="&#x17b;" horiz-adv-x="574" d="M96 0q-46 0 -57.5 35.5t12.5 64.5l350 483h-293q-27 0 -42.5 15t-15.5 39q0 25 15.5 39t42.5 14h384q45 0 58 -32.5t-12 -64.5l-350 -486h316q27 0 42 -14.5t15 -39.5q0 -24 -15.5 -38.5t-41.5 -14.5h-408zM230 804q0 32 22.5 48t57.5 16q34 0 57 -16t23 -48t-23 -47.5 t-57 -15.5q-35 0 -57.5 15.5t-22.5 47.5z" />
<glyph unicode="&#x17c;" horiz-adv-x="453" d="M102 490h274q44 0 55 -32t-14 -61l-242 -301h213q53 0 53 -48t-53 -48h-296q-41 0 -52 31.5t13 60.5l246 302h-197q-53 0 -53 48t53 48zM173 619q0 28 18 44.5t48 16.5t48 -16.5t18 -44.5q0 -29 -18 -45t-48 -16q-31 0 -48.5 16t-17.5 45z" />
<glyph unicode="&#x17d;" horiz-adv-x="574" d="M448 801l-109 -62q-32 -18 -65 0l-120 65q-21 11 -27.5 29t4.5 35q19 32 61 9l118 -66l106 63q20 11 36.5 8t24.5 -20q18 -35 -29 -61zM96 0q-46 0 -57.5 35.5t12.5 64.5l350 483h-293q-27 0 -42.5 15t-15.5 39q0 25 15.5 39t42.5 14h384q45 0 58 -32.5t-12 -64.5 l-350 -486h316q27 0 42 -14.5t15 -39.5q0 -24 -15.5 -38.5t-41.5 -14.5h-408z" />
<glyph unicode="&#x17e;" horiz-adv-x="453" d="M149 699l101 -75l93 70q37 27 59 -1q10 -11 6 -27.5t-22 -29.5l-105 -78q-33 -25 -68 0l-108 78q-38 28 -15 59q11 14 28 14.5t31 -10.5zM102 490h274q44 0 55 -32t-14 -61l-242 -301h213q53 0 53 -48t-53 -48h-296q-41 0 -52 31.5t13 60.5l246 302h-197q-53 0 -53 48 t53 48z" />
<glyph unicode="&#x18f;" horiz-adv-x="656" d="M312 593q-58 0 -141 -30q-60 -21 -77 14q-23 47 35 80q77 43 187 43q295 0 295 -354q0 -54 -8.5 -102.5t-29 -96t-53 -81t-83.5 -54.5t-116 -21q-140 0 -208 82.5t-68 214.5q0 45 6.5 71.5t25 38.5t36.5 14.5t54 2.5h322q-5 84 -49 131t-128 47zM324 95q164 0 166 220 h-324q-4 -35 -1 -60q4 -76 46.5 -118t112.5 -42z" />
<glyph unicode="&#x192;" d="M326 519l-4 -29h79q54 0 54 -48t-54 -48h-93l-53 -373q-19 -130 -64.5 -180.5t-131.5 -50.5q-65 0 -103 25t-21 63q13 30 47 24q1 0 29 -6.5t45 -7.5q42 0 58 23.5t24 82.5l67 474q15 124 61 178t139 54q66 0 104 -27q35 -26 19 -62q-12 -27 -46 -23q-8 1 -37 7.5 t-44 6.5q-35 0 -52 -20t-23 -63z" />
<glyph unicode="&#x1cf;" horiz-adv-x="274" d="M288 801l-109 -62q-32 -18 -65 0l-120 65q-21 11 -27.5 29t4.5 35q19 32 61 9l118 -66l106 63q20 11 36.5 8t24.5 -20q18 -35 -29 -61zM84 61v567q0 27 15.5 44.5t44.5 17.5q28 0 44 -17.5t16 -44.5v-567q0 -27 -16 -44t-44 -17q-29 0 -44.5 17t-15.5 44z" />
<glyph unicode="&#x1d0;" horiz-adv-x="237" d="M45 699l101 -75l93 70q37 27 59 -1q10 -11 6 -27.5t-22 -29.5l-105 -78q-33 -25 -68 0l-108 78q-38 28 -15 59q11 14 28 14.5t31 -10.5zM85 58v374q0 25 14.5 41.5t41.5 16.5t42 -16.5t15 -41.5v-374q0 -25 -15 -41.5t-42 -16.5t-41.5 16.5t-14.5 41.5z" />
<glyph unicode="&#x1dd;" horiz-adv-x="497" d="M35 203q0 46 17 67t56 21h242q-6 118 -114 118q-44 0 -101 -20q-52 -18 -66 14q-19 43 33 69q55 28 139 28q111 0 166 -68.5t55 -184.5q0 -117 -57 -187t-165 -70q-97 0 -151 56.5t-54 156.5zM244 81q54 0 80 36.5t27 98.5h-212q-4 -135 105 -135z" />
<glyph unicode="&#x1e6;" horiz-adv-x="667" d="M373 700q118 0 183 -44q47 -32 25 -73q-20 -37 -77 -16q-68 26 -130 26q-97 0 -150 -68.5t-53 -181.5q0 -118 53.5 -182t151.5 -64q92 0 148 39v134h-113q-53 0 -53 46t53 46h151q60 0 60 -52v-190q0 -43 -32 -66q-36 -27 -95.5 -45.5t-126.5 -18.5q-164 0 -243.5 94.5 t-79.5 261.5q0 161 88 257.5t240 96.5zM511 801l-109 -62q-32 -18 -65 0l-120 65q-21 11 -27.5 29t4.5 35q19 32 61 9l118 -66l106 63q20 11 36.5 8t24.5 -20q18 -35 -29 -61z" />
<glyph unicode="&#x1e7;" horiz-adv-x="513" d="M50 331q0 77 52 123t148 46q40 0 78 -10h138q46 0 46 -40q0 -39 -46 -39h-35q20 -40 20 -80q0 -75 -52.5 -121t-148.5 -46q-54 0 -95 15q-27 -17 -27 -41q0 -22 33 -34t120 -16q101 -4 155.5 -32.5t54.5 -94.5q0 -76 -65 -123.5t-186 -47.5t-173 40.5t-52 100.5 q0 70 72 111q-47 26 -47 79q0 52 54 96q-44 44 -44 114zM249 4q-43 3 -78 9q-54 -25 -54 -69q0 -28 29.5 -47.5t92.5 -19.5q73 0 108.5 21t35.5 54q0 25 -29.5 36t-104.5 16zM151 331q0 -37 26.5 -59t72.5 -22t72.5 22t26.5 59t-26.5 60t-72.5 23t-72.5 -23t-26.5 -60z M158 699l101 -75l93 70q37 27 59 -1q10 -11 6 -27.5t-22 -29.5l-105 -78q-33 -25 -68 0l-108 78q-38 28 -15 59q11 14 28 14.5t31 -10.5z" />
<glyph unicode="&#x218;" horiz-adv-x="551" d="M247 -216q34 34 34 63q0 23 -30 35q-38 20 -24 55q15 34 62 24q37 -7 58 -33.5t21 -63.5t-18 -68.5t-44 -51.5q-19 -14 -39.5 -19t-34.5 8q-15 19 15 51zM280 590q-99 0 -99 -72q0 -32 26 -54.5t64.5 -34.5t84 -30t84 -38t64.5 -61t26 -98q0 -97 -61 -154.5t-184 -57.5 q-110 0 -190 41q-34 18 -45.5 43t2.5 51q20 39 86 12q80 -37 150 -37q56 0 88.5 22t32.5 65q0 42 -36 68t-87 42t-102.5 36.5t-87.5 65.5t-36 115q0 86 58.5 136t170.5 50q101 0 174 -42q61 -33 35 -84q-22 -43 -95 -11q-64 27 -123 27z" />
<glyph unicode="&#x219;" horiz-adv-x="433" d="M204 -213q36 34 36 63q0 22 -32 34q-35 19 -23 53q15 34 63 23q36 -8 56.5 -32.5t20.5 -60.5q0 -72 -63 -117q-19 -15 -39 -19.5t-33 9.5q-13 18 14 47zM238 500q86 0 143 -33q46 -26 28 -66q-16 -34 -63 -19q-69 27 -104 27q-67 0 -67 -45q0 -25 26 -41.5t63 -28 t74 -26.5t63 -47t26 -79q0 -73 -49.5 -112.5t-148.5 -39.5q-98 0 -156 38q-42 30 -23 69q18 37 73 12q63 -28 116 -28q74 0 74 51q0 26 -26 42.5t-63 28.5t-74 27t-63 48t-26 82q0 68 48 104t129 36z" />
<glyph unicode="&#x21a;" horiz-adv-x="599" d="M259 -216q34 34 34 63q0 23 -30 35q-37 19 -23 55q13 34 62 24q37 -7 58 -33.5t21 -63.5q0 -72 -62 -120q-20 -14 -40 -19t-35 8q-14 18 15 51zM62 690h474q27 0 42.5 -14t15.5 -39q0 -24 -15.5 -39t-42.5 -15h-177v-522q0 -27 -15.5 -44t-44.5 -17t-44.5 17t-15.5 44 v522h-177q-26 0 -41.5 15t-15.5 39q0 25 15.5 39t41.5 14z" />
<glyph unicode="&#x21b;" horiz-adv-x="337" d="M157 -213q35 33 35 63q0 22 -31 34q-36 19 -23 53q14 35 63 23q35 -8 55.5 -32.5t20.5 -60.5q0 -71 -62 -117q-19 -15 -39.5 -19.5t-33.5 9.5q-13 19 15 47zM60 164v393q0 25 14.5 41.5t41.5 16.5t42 -16.5t15 -41.5v-62h85q54 0 54 -48t-54 -48h-85v-223q0 -43 13 -62 t44 -19q24 0 53 12q19 8 36 3t24 -22q17 -42 -31 -70q-40 -23 -100 -23q-152 0 -152 169z" />
<glyph unicode="&#x2c6;" horiz-adv-x="519" d="M378 557l-102 75l-92 -71q-38 -28 -59 1q-21 31 16 58l105 77q33 25 68 0l110 -79q18 -13 20 -31t-8 -28q-22 -28 -58 -2z" />
<glyph unicode="&#x2c7;" horiz-adv-x="519" d="M186 699l101 -75l93 70q37 27 59 -1q10 -11 6 -27.5t-22 -29.5l-105 -78q-33 -25 -68 0l-108 78q-38 28 -15 59q11 14 28 14.5t31 -10.5z" />
<glyph unicode="&#x2d8;" horiz-adv-x="519" d="M261 548q-52 0 -89 21t-55 52q-9 16 -7 33t15 26q32 21 62 -16q34 -41 74 -41q24 0 40.5 10.5t34.5 31.5q29 36 62 15q28 -19 6 -58q-44 -74 -143 -74z" />
<glyph unicode="&#x2d9;" horiz-adv-x="519" d="M193 619q0 28 18 44.5t48 16.5t48 -16.5t18 -44.5q0 -29 -18 -45t-48 -16q-31 0 -48.5 16t-17.5 45z" />
<glyph unicode="&#x2da;" horiz-adv-x="519" d="M259 729q50 0 79.5 -26.5t29.5 -70.5q0 -45 -29.5 -71t-79.5 -26t-79.5 26t-29.5 71q0 44 29.5 70.5t79.5 26.5zM212 632q0 -20 13.5 -32.5t33.5 -12.5t33.5 12.5t13.5 32.5t-13.5 32.5t-33.5 12.5t-33.5 -12.5t-13.5 -32.5z" />
<glyph unicode="&#x2db;" horiz-adv-x="386" d="M244 -22q-55 -55 -55 -99q0 -41 39 -41q15 0 35 6q26 8 36 -10q8 -11 3.5 -27.5t-22.5 -27.5q-31 -19 -75 -19q-54 0 -88 29.5t-34 78.5q0 47 28 90.5t72 68.5q18 10 36.5 12t31.5 -10q21 -23 -7 -51z" />
<glyph unicode="&#x2dc;" horiz-adv-x="519" d="M322 633q14 0 39 21q31 27 58 4q12 -12 10.5 -29t-14.5 -33q-38 -48 -94 -48q-31 0 -69.5 21.5t-53.5 21.5q-17 0 -42 -22q-30 -24 -54 -4q-13 11 -11.5 29t15.5 35q42 47 92 47q32 0 72 -21.5t52 -21.5z" />
<glyph unicode="&#x2dd;" horiz-adv-x="519" d="M254 643l-108 -72q-40 -27 -62 1q-11 13 -7 30t26 31l112 75q42 27 63 -4q20 -31 -24 -61zM421 643l-108 -72q-40 -27 -62 1q-11 13 -7 30t26 31l112 75q42 27 63 -4q20 -31 -24 -61z" />
<glyph unicode="&#x3c0;" horiz-adv-x="568" d="M70 490h427q54 0 54 -51q0 -49 -54 -49h-9v-332q0 -25 -15 -41.5t-42 -16.5t-41.5 16.5t-14.5 41.5v332h-182v-332q0 -25 -15 -41.5t-42 -16.5t-41.5 16.5t-14.5 41.5v332h-10q-53 0 -53 49q0 51 53 51z" />
<glyph unicode="&#x401;" horiz-adv-x="561" d="M75 62v566q0 27 16 44.5t45 17.5h338q26 0 41.5 -14.5t15.5 -39.5q0 -24 -15.5 -38.5t-41.5 -14.5h-279v-175h223q27 0 42.5 -14t15.5 -39q0 -24 -15.5 -39t-42.5 -15h-223v-194h289q26 0 41.5 -14.5t15.5 -39.5q0 -24 -15.5 -38.5t-41.5 -14.5h-347q-29 0 -45.5 17.5 t-16.5 44.5zM121 796q0 28 20.5 44t51.5 16q33 0 53.5 -16t20.5 -44t-20.5 -43t-53.5 -15q-32 0 -52 15t-20 43zM329 796q0 28 20 44t53 16q32 0 52.5 -16t20.5 -44t-20.5 -43t-52.5 -15q-33 0 -53 15t-20 43z" />
<glyph unicode="&#x402;" horiz-adv-x="764" d="M516 93q87 0 87 120q0 121 -140 121q-56 0 -104 -10v-263q0 -27 -15.5 -44t-44.5 -17t-44.5 17t-15.5 44v522h-177q-26 0 -41.5 15t-15.5 39q0 25 15.5 39t41.5 14h474q27 0 42.5 -14t15.5 -39q0 -24 -15.5 -39t-42.5 -15h-177v-155q54 13 118 13q113 0 182.5 -53.5 t69.5 -168.5q0 -109 -53.5 -169t-158.5 -60q-72 0 -106 22q-33 21 -24 61q10 40 54 32q67 -12 75 -12z" />
<glyph unicode="&#x403;" horiz-adv-x="494" d="M380 805l-139 -64q-53 -24 -69 10q-21 40 31 64l143 67q50 23 67 -12q19 -39 -33 -65zM75 61v567q0 27 15.5 44.5t44.5 17.5h297q26 0 41.5 -14.5t15.5 -39.5q0 -24 -15.5 -38.5t-41.5 -14.5h-237v-522q0 -27 -16 -44t-44 -17q-29 0 -44.5 17t-15.5 44z" />
<glyph unicode="&#x404;" horiz-adv-x="634" d="M368 593q-81 0 -131.5 -51.5t-62.5 -141.5h273q24 0 38 -12.5t14 -34.5q0 -23 -14 -36.5t-38 -13.5h-274q10 -98 64.5 -152t133.5 -54q69 0 142 43q51 29 76 -7q13 -17 7.5 -41t-30.5 -43q-80 -59 -204 -59q-157 0 -237 95.5t-80 259.5q0 161 85.5 258t235.5 97 q118 0 185 -47q46 -32 24 -72q-20 -37 -76 -16q-73 28 -131 28z" />
<glyph unicode="&#x405;" horiz-adv-x="551" d="M280 590q-99 0 -99 -72q0 -32 26 -54.5t64.5 -34.5t84 -30t84 -38t64.5 -61t26 -98q0 -97 -61 -154.5t-184 -57.5q-110 0 -190 41q-34 18 -45.5 43t2.5 51q20 39 86 12q80 -37 150 -37q56 0 88.5 22t32.5 65q0 42 -36 68t-87 42t-102.5 36.5t-87.5 65.5t-36 115 q0 86 58.5 136t170.5 50q101 0 174 -42q61 -33 35 -84q-22 -43 -95 -11q-64 27 -123 27z" />
<glyph unicode="&#x406;" horiz-adv-x="270" d="M75 61v567q0 27 15.5 44.5t44.5 17.5q28 0 44 -17.5t16 -44.5v-567q0 -27 -16 -44t-44 -17q-29 0 -44.5 17t-15.5 44z" />
<glyph unicode="&#x407;" horiz-adv-x="270" d="M75 61v567q0 27 15.5 44.5t44.5 17.5q28 0 44 -17.5t16 -44.5v-567q0 -27 -16 -44t-44 -17q-29 0 -44.5 17t-15.5 44zM-42 796q0 28 20.5 44t51.5 16q33 0 53.5 -16t20.5 -44t-20.5 -43t-53.5 -15q-32 0 -52 15t-20 43zM166 796q0 28 20 44t53 16q32 0 52.5 -16t20.5 -44 t-20.5 -43t-52.5 -15q-33 0 -53 15t-20 43z" />
<glyph unicode="&#x408;" horiz-adv-x="388" d="M2 97q17 39 70 19q46 -19 73 -19q69 0 69 74v457q0 27 15.5 44.5t44.5 17.5q28 0 44 -17.5t16 -44.5v-459q0 -85 -43 -132t-127 -47q-81 0 -125 25q-58 32 -37 82z" />
<glyph unicode="&#x409;" horiz-adv-x="933" d="M204 690h294q29 0 44.5 -17.5t15.5 -44.5v-195q40 8 90 8q127 0 195 -51t68 -172q0 -109 -72 -166t-192 -57q-97 0 -153 12q-56 13 -56 69v507h-181q-5 -282 -47 -433q-19 -67 -58.5 -111t-95.5 -44q-42 0 -62 22.5t-12 55.5q9 36 58 36q44 0 64 67q38 123 43 452 q1 29 16 45.5t41 16.5zM637 334q-35 0 -79 -6v-220q44 -6 86 -6q141 0 141 118q0 64 -39.5 89t-108.5 25z" />
<glyph unicode="&#x40a;" horiz-adv-x="1014" d="M511 76v223h-316v-238q0 -27 -16 -44t-44 -17q-29 0 -44.5 17t-15.5 44v567q0 27 15.5 44.5t44.5 17.5q28 0 44 -17.5t16 -44.5v-222h316v223q0 27 15.5 44t44.5 17q28 0 44 -17t16 -44v-196q40 8 90 8q127 0 195 -51t68 -172q0 -109 -72 -166t-192 -57q-97 0 -153 12 q-56 13 -56 69zM710 334q-35 0 -79 -6v-220q44 -6 86 -6q141 0 141 118q0 64 -39.5 89t-108.5 25z" />
<glyph unicode="&#x40b;" horiz-adv-x="768" d="M359 301v-239q0 -27 -15.5 -44.5t-44.5 -17.5t-44.5 17.5t-15.5 44.5v521h-177q-26 0 -41.5 15t-15.5 39q0 25 15.5 39t41.5 14h472q27 0 42.5 -14t15.5 -39q0 -24 -15.5 -39t-42.5 -15h-175v-175q70 48 159 48q107 0 161 -54t54 -185v-155q0 -26 -16 -44t-44 -18 q-29 0 -44.5 18t-15.5 44v149q0 78 -26.5 109.5t-85.5 31.5q-68 0 -142 -51z" />
<glyph unicode="&#x40c;" horiz-adv-x="571" d="M75 61v567q0 27 15.5 44.5t44.5 17.5q28 0 44 -17.5t16 -44.5v-252l245 281q48 55 89 18q20 -20 16.5 -44t-23.5 -45l-213 -230l228 -241q23 -24 27 -49.5t-15 -46.5q-44 -43 -97 13l-257 283v-254q0 -27 -16 -44t-44 -17q-29 0 -44.5 17t-15.5 44zM448 805l-139 -64 q-53 -24 -69 10q-21 40 31 64l143 67q50 23 67 -12q19 -39 -33 -65z" />
<glyph unicode="&#x40e;" horiz-adv-x="585" d="M269 181l-235 402q-17 28 -15 56.5t27 42.5q27 14 50 3.5t40 -42.5l189 -349l141 342q28 68 80 49q49 -19 22 -84l-172 -402q-47 -110 -89.5 -159.5t-108.5 -49.5q-60 0 -96 20q-53 29 -35 77q16 42 65 26q5 -1 17.5 -6t22 -7t20.5 -2q25 0 43 20.5t34 62.5zM292 734 q-54 0 -96 18.5t-62 45.5q-27 36 0 61q27 26 65 -10q39 -38 93 -38t92 37q36 36 65 11q27 -23 -1 -61q-20 -28 -61 -46t-95 -18z" />
<glyph unicode="&#x40f;" horiz-adv-x="686" d="M75 62v567q0 27 15.5 44t44.5 17q28 0 44 -17t16 -44v-522h296v522q0 27 15.5 44t44.5 17t44.5 -17t15.5 -44v-567q0 -27 -15.5 -44.5t-44.5 -17.5h-152v-85q0 -27 -14 -44t-42 -17t-42.5 17t-14.5 44v85h-152q-28 0 -43.5 17.5t-15.5 44.5z" />
<glyph unicode="&#x410;" horiz-adv-x="611" d="M509 47l-56 148h-257l-52 -141q-25 -72 -82 -49q-44 19 -20 82l225 564q19 49 61 49q40 0 58 -43l232 -569q11 -22 4.5 -48t-31.5 -35q-28 -10 -49.5 1.5t-32.5 40.5zM322 541l-94 -252h191z" />
<glyph unicode="&#x411;" horiz-adv-x="597" d="M134 690h314q26 0 41 -14.5t15 -39.5q0 -24 -15 -38.5t-41 -14.5h-253v-166q48 8 102 8q250 0 250 -205q0 -111 -67 -168t-197 -57q-85 0 -151 10q-57 9 -57 65v559q0 26 16 43.5t43 17.5zM287 326q-54 0 -92 -7v-220q36 -5 85 -5q141 0 141 121q0 57 -36 84t-98 27z" />
<glyph unicode="&#x412;" horiz-adv-x="623" d="M75 70v546q0 57 57 67q71 12 161 12q252 0 252 -181q0 -46 -24.5 -86t-66.5 -59q58 -18 91 -60.5t33 -101.5q0 -212 -277 -212q-99 0 -170 11q-56 8 -56 64zM305 308h-115v-208q48 -6 116 -6q74 0 111.5 25t37.5 83q0 106 -150 106zM282 595q-44 0 -92 -5v-192h102 q130 0 130 104q0 93 -140 93z" />
<glyph unicode="&#x413;" horiz-adv-x="494" d="M75 61v567q0 27 15.5 44.5t44.5 17.5h297q26 0 41.5 -14.5t15.5 -39.5q0 -24 -15.5 -38.5t-41.5 -14.5h-237v-522q0 -27 -16 -44t-44 -17q-29 0 -44.5 17t-15.5 44z" />
<glyph unicode="&#x414;" horiz-adv-x="722" d="M574 -85v85h-446v-85q0 -27 -14.5 -44t-42.5 -17t-42 17t-14 44v133q0 26 14 42.5t40 16.5h29q65 126 75 521q1 62 57 62h308q30 0 45 -18t15 -43v-522h35q26 0 40 -16.5t14 -42.5v-133q0 -27 -14 -44t-42 -17t-42.5 17t-14.5 44zM217 107h261v476h-193q-5 -315 -68 -476 z" />
<glyph unicode="&#x415;" horiz-adv-x="561" d="M75 62v566q0 27 16 44.5t45 17.5h338q26 0 41.5 -14.5t15.5 -39.5q0 -24 -15.5 -38.5t-41.5 -14.5h-279v-175h223q27 0 42.5 -14t15.5 -39q0 -24 -15.5 -39t-42.5 -15h-223v-194h289q26 0 41.5 -14.5t15.5 -39.5q0 -24 -15.5 -38.5t-41.5 -14.5h-347q-29 0 -45.5 17.5 t-16.5 44.5z" />
<glyph unicode="&#x416;" horiz-adv-x="840" d="M367 61v262l-246 -289q-52 -59 -96 -15q-18 21 -15 43.5t21 42.5l227 245l-201 238q-18 20 -20.5 44t15.5 43q20 20 46 14t48 -35l221 -281v255q0 27 14 44.5t42 17.5t42 -17.5t14 -44.5v-258l223 283q47 61 91 22q36 -33 -5 -84l-199 -237l226 -248q18 -20 21 -44.5 t-14 -43.5q-22 -21 -47 -17.5t-46 28.5l-250 295v-263q0 -27 -14 -44t-42 -17q-56 0 -56 61z" />
<glyph unicode="&#x417;" horiz-adv-x="580" d="M275 97q68 0 106 28t38 81q0 96 -144 99h-75q-22 0 -35.5 12.5t-13.5 34.5q0 21 13.5 34t35.5 13h62q64 0 99.5 26t35.5 76q0 42 -29.5 67t-88.5 25q-52 0 -125 -25q-62 -21 -79 14q-11 22 -2 42.5t35 34.5q76 41 183 41t169.5 -46.5t62.5 -134.5q0 -49 -26 -91.5 t-77 -62.5q60 -16 92.5 -57t32.5 -99q0 -112 -75.5 -165.5t-193.5 -53.5q-113 0 -184 37q-26 14 -36 35t0 47q18 40 85 15q71 -27 134 -27z" />
<glyph unicode="&#x418;" horiz-adv-x="708" d="M195 628v-419l323 447q25 34 58 34q57 0 57 -62v-567q0 -27 -15 -44t-44 -17q-30 0 -45.5 17.5t-15.5 43.5v418l-325 -444q-27 -35 -56 -35q-27 0 -42 16t-15 45v567q0 27 15 44.5t45 17.5q29 0 44.5 -17.5t15.5 -44.5z" />
<glyph unicode="&#x419;" horiz-adv-x="708" d="M195 628v-419l323 447q25 34 58 34q57 0 57 -62v-567q0 -27 -15 -44t-44 -17q-30 0 -45.5 17.5t-15.5 43.5v418l-325 -444q-27 -35 -56 -35q-27 0 -42 16t-15 45v567q0 27 15 44.5t45 17.5q29 0 44.5 -17.5t15.5 -44.5zM350 734q-54 0 -96 18.5t-62 45.5q-27 36 0 61 q27 26 65 -10q39 -38 93 -38t92 37q36 36 65 11q27 -23 -1 -61q-20 -28 -61 -46t-95 -18z" />
<glyph unicode="&#x41a;" horiz-adv-x="571" d="M75 61v567q0 27 15.5 44.5t44.5 17.5q28 0 44 -17.5t16 -44.5v-252l245 281q48 55 89 18q20 -20 16.5 -44t-23.5 -45l-213 -230l228 -241q23 -24 27 -49.5t-15 -46.5q-44 -43 -97 13l-257 283v-254q0 -27 -16 -44t-44 -17q-29 0 -44.5 17t-15.5 44z" />
<glyph unicode="&#x41b;" horiz-adv-x="627" d="M202 690h298q29 0 44.5 -17.5t15.5 -44.5v-567q0 -27 -15.5 -44t-44.5 -17t-44.5 17t-15.5 44v522h-185q-5 -288 -46 -435q-19 -67 -58 -110t-95 -43q-42 0 -62 22.5t-12 55.5q9 36 58 36q43 0 63 67q37 119 42 452q1 29 16 45.5t41 16.5z" />
<glyph unicode="&#x41c;" horiz-adv-x="787" d="M193 651l204 -322l200 323q24 38 59 38q27 0 41.5 -17t14.5 -45v-567q0 -27 -15.5 -44t-44.5 -17q-28 0 -44 17t-16 44v407l-146 -236q-22 -36 -55 -36q-34 0 -56 35l-148 232v-402q0 -61 -56 -61t-56 61v566q0 32 15.5 47.5t40.5 15.5q38 0 62 -39z" />
<glyph unicode="&#x41d;" horiz-adv-x="708" d="M513 61v238h-318v-238q0 -27 -16 -44t-44 -17q-29 0 -44.5 17t-15.5 44v567q0 27 15.5 44.5t44.5 17.5q28 0 44 -17.5t16 -44.5v-222h318v222q0 27 15.5 44.5t44.5 17.5q28 0 44 -17.5t16 -44.5v-567q0 -27 -16 -44t-44 -17q-29 0 -44.5 17t-15.5 44z" />
<glyph unicode="&#x41e;" horiz-adv-x="747" d="M45 345q0 155 85.5 255t242.5 100t243 -100t86 -255q0 -156 -86 -255.5t-243 -99.5t-242.5 99.5t-85.5 255.5zM171 345q0 -109 52.5 -178.5t149.5 -69.5q98 0 150.5 69.5t52.5 178.5t-52.5 178.5t-150.5 69.5q-97 0 -149.5 -69.5t-52.5 -178.5z" />
<glyph unicode="&#x41f;" horiz-adv-x="686" d="M75 61v567q0 27 15.5 44.5t43.5 17.5h417q29 0 44.5 -17.5t15.5 -44.5v-567q0 -27 -15.5 -44t-44.5 -17t-44.5 17t-15.5 44v522h-296v-522q0 -27 -16 -44t-44 -17q-29 0 -44.5 17t-15.5 44z" />
<glyph unicode="&#x420;" horiz-adv-x="579" d="M75 61v551q0 59 56 70q66 13 154 13q123 0 193.5 -53.5t70.5 -167.5q0 -116 -74 -175t-193 -59q-57 0 -87 5v-184q0 -27 -16 -44t-44 -17q-29 0 -44.5 17t-15.5 44zM275 344q148 0 148 127q0 119 -141 119q-43 0 -87 -6v-236q29 -4 80 -4z" />
<glyph unicode="&#x421;" horiz-adv-x="629" d="M368 593q-92 0 -144.5 -67.5t-52.5 -179.5q0 -116 56.5 -182.5t143.5 -66.5q69 0 142 43q51 29 76 -7q13 -17 7.5 -41t-30.5 -43q-80 -59 -204 -59q-157 0 -237 95.5t-80 259.5q0 162 85 258.5t236 96.5q119 0 185 -46q44 -30 24 -73q-17 -38 -76 -16q-73 28 -131 28z " />
<glyph unicode="&#x422;" horiz-adv-x="599" d="M62 690h474q27 0 42.5 -14t15.5 -39q0 -24 -15.5 -39t-42.5 -15h-177v-522q0 -27 -15.5 -44t-44.5 -17t-44.5 17t-15.5 44v522h-177q-26 0 -41.5 15t-15.5 39q0 25 15.5 39t41.5 14z" />
<glyph unicode="&#x423;" horiz-adv-x="585" d="M269 181l-235 402q-17 28 -15 56.5t27 42.5q27 14 50 3.5t40 -42.5l189 -349l141 342q28 68 80 49q49 -19 22 -84l-172 -402q-47 -110 -89.5 -159.5t-108.5 -49.5q-60 0 -96 20q-53 29 -35 77q16 42 65 26q5 -1 17.5 -6t22 -7t20.5 -2q25 0 43 20.5t34 62.5z" />
<glyph unicode="&#x424;" horiz-adv-x="787" d="M45 364q0 130 77 200.5t212 70.5v38q0 27 15.5 44t44.5 17q28 0 44 -17t16 -44v-38q134 0 211 -70.5t77 -200.5q0 -129 -77 -199.5t-211 -70.5v-50q0 -27 -16 -44.5t-44 -17.5q-29 0 -44.5 17.5t-15.5 44.5v50q-134 0 -211.5 70.5t-77.5 199.5zM625 364q0 86 -50 132 t-130 46v-354q81 0 130.5 44t49.5 132zM163 364q0 -88 49.5 -132t130.5 -44v354q-81 0 -130.5 -46t-49.5 -132z" />
<glyph unicode="&#x425;" horiz-adv-x="603" d="M150 655l155 -213l154 212q39 56 84 24q41 -29 3 -83l-176 -233l197 -261q16 -21 15 -47t-22 -42q-25 -16 -47.5 -10t-39.5 29l-178 242l-168 -236q-40 -58 -86 -27q-21 18 -21 40t16 43l194 262l-177 232q-16 22 -16 47.5t21 42.5q29 18 52 10.5t40 -32.5z" />
<glyph unicode="&#x426;" horiz-adv-x="730" d="M606 628v-521h35q26 0 40 -16.5t14 -42.5v-133q0 -27 -14 -44t-42 -17t-42.5 17t-14.5 44v85h-448q-28 0 -43.5 17t-15.5 44v567q0 27 15.5 44.5t43.5 17.5q29 0 45 -17.5t16 -44.5v-521h291v521q0 27 15.5 44.5t44.5 17.5q28 0 44 -17.5t16 -44.5z" />
<glyph unicode="&#x427;" horiz-adv-x="606" d="M411 389v239q0 27 15.5 44.5t44.5 17.5t44.5 -17.5t15.5 -44.5v-567q0 -27 -15.5 -44t-44.5 -17t-44.5 17t-15.5 44v221q-70 -48 -160 -48q-107 0 -161.5 52.5t-54.5 186.5v155q0 26 16 44t44 18q29 0 44.5 -18t15.5 -44v-149q0 -78 27 -109.5t86 -31.5q69 0 143 51z" />
<glyph unicode="&#x428;" horiz-adv-x="921" d="M846 628v-566q0 -28 -16 -45t-46 -17h-650q-28 0 -43.5 17t-15.5 44v567q0 27 15.5 44.5t43.5 17.5q29 0 45 -17.5t16 -44.5v-521h205v521q0 27 15.5 44.5t44.5 17.5t44.5 -17.5t15.5 -44.5v-521h206v521q0 27 15.5 44.5t44.5 17.5q28 0 44 -17.5t16 -44.5z" />
<glyph unicode="&#x429;" horiz-adv-x="970" d="M846 628v-521h35q26 0 40 -16.5t14 -42.5v-133q0 -27 -14 -44t-42 -17t-42.5 17t-14.5 44v85h-688q-28 0 -43.5 17t-15.5 44v567q0 27 15.5 44.5t43.5 17.5q29 0 45 -17.5t16 -44.5v-521h205v521q0 27 15.5 44.5t44.5 17.5t44.5 -17.5t15.5 -44.5v-521h206v521 q0 27 15.5 44.5t44.5 17.5q28 0 44 -17.5t16 -44.5z" />
<glyph unicode="&#x42a;" horiz-adv-x="679" d="M168 76v507h-115q-26 0 -41.5 14.5t-15.5 38.5q0 25 15.5 39.5t41.5 14.5h175q28 0 44 -17t16 -44v-196q40 8 92 8q127 0 195 -51.5t68 -171.5q0 -109 -72 -166t-192 -57q-99 0 -155 12q-56 13 -56 69zM369 334q-37 0 -81 -6v-220q43 -6 88 -6q141 0 141 118 q0 64 -39.5 89t-108.5 25z" />
<glyph unicode="&#x42b;" horiz-adv-x="822" d="M75 76v553q0 27 15.5 44t44.5 17q28 0 44 -17t16 -44v-195q34 7 90 7q124 0 187 -52t63 -171q0 -107 -68 -165t-186 -58q-94 0 -150 12q-56 13 -56 69zM271 334q-32 0 -76 -6v-220q44 -6 83 -6q131 0 131 118q0 62 -36 88t-102 26zM627 61v567q0 27 15.5 44.5t44.5 17.5 q28 0 44 -17.5t16 -44.5v-567q0 -27 -16 -44t-44 -17q-29 0 -44.5 17t-15.5 44z" />
<glyph unicode="&#x42c;" horiz-adv-x="581" d="M75 76v553q0 27 15.5 44t44.5 17q28 0 44 -17t16 -44v-196q40 8 92 8q127 0 195 -51t68 -172q0 -109 -72 -166t-192 -57q-99 0 -155 12q-56 13 -56 69zM276 334q-37 0 -81 -6v-220q44 -6 88 -6q141 0 141 118q0 64 -39.5 89t-108.5 25z" />
<glyph unicode="&#x42d;" horiz-adv-x="642" d="M298 593q-59 0 -137 -31q-61 -21 -79 14q-25 51 45 86q76 38 175 38q158 0 233 -92t75 -253q0 -166 -80 -265.5t-241 -99.5q-121 0 -186 39q-55 34 -36 80q16 40 70 22q4 -1 21.5 -7.5t24 -8.5t22.5 -6.5t26.5 -6.5t25.5 -3.5t30 -1.5q98 0 146 55.5t52 149.5h-280 q-55 0 -55 49q0 48 55 48h281q-5 90 -54 142t-134 52z" />
<glyph unicode="&#x42e;" horiz-adv-x="980" d="M75 61v567q0 27 15.5 44.5t44.5 17.5q28 0 44 -17.5t16 -44.5v-225h104q13 134 94 215.5t222 81.5q156 0 238 -99t82 -256t-82 -256t-238 -99q-144 0 -225 84t-93 222h-102v-235q0 -27 -16 -44t-44 -17q-29 0 -44.5 17t-15.5 44zM421 345q0 -110 49 -179t145 -69t145 69 t49 179t-49.5 179t-144.5 69t-144.5 -69t-49.5 -179z" />
<glyph unicode="&#x42f;" horiz-adv-x="613" d="M356 695q80 0 130 -14q56 -16 56 -70v-550q0 -27 -15.5 -44t-44.5 -17q-28 0 -44 17t-16 44v198q-21 -4 -55 -4q-28 0 -49 3l-126 -212q-19 -31 -43 -42t-55 5q-20 13 -24 37t16 58l114 174q-120 46 -120 190q0 109 72 168t204 59zM350 588q-67 0 -105.5 -30t-38.5 -92 q0 -120 151 -120q44 0 65 3v235q-42 4 -72 4z" />
<glyph unicode="&#x430;" horiz-adv-x="503" d="M335 58v18q-49 -86 -160 -86q-75 0 -117.5 40t-42.5 107q0 85 61.5 124.5t153.5 39.5q63 0 105 -7v11q0 48 -21 74.5t-81 26.5q-13 0 -25 -1t-24.5 -4t-20.5 -6l-24 -7q-16 -5 -24 -7q-18 -6 -34.5 0t-22.5 23q-12 35 25 59q55 37 163 37q197 0 197 -186v-256 q0 -26 -13.5 -42t-40.5 -16t-40.5 16.5t-13.5 41.5zM205 78q60 0 95 39.5t35 90.5v17q-32 5 -89 5q-120 0 -120 -84q0 -31 21 -49.5t58 -18.5z" />
<glyph unicode="&#x431;" horiz-adv-x="543" d="M305 560q-82 -31 -115 -57q-64 -51 -67 -136q27 48 75 71.5t99 23.5q99 0 155 -63.5t56 -168.5q0 -104 -64 -172t-171 -68q-118 0 -178 75.5t-60 216.5q0 155 50 234.5t184 131.5l116 43q64 23 79 -19q15 -43 -37 -67q-15 -7 -56 -21t-66 -24zM392 226q0 66 -31 103 t-88 37q-54 0 -86 -38t-32 -104q0 -65 31 -101.5t86 -36.5q57 0 88.5 37t31.5 103z" />
<glyph unicode="&#x432;" horiz-adv-x="507" d="M60 65v355q0 55 51 65q48 9 133 9q101 0 149.5 -36.5t48.5 -96.5q0 -36 -18 -65t-51 -42q43 -8 68.5 -36.5t25.5 -71.5q0 -151 -220 -151q-84 0 -134 9q-53 8 -53 61zM260 210h-90v-121q35 -4 83 -4q100 0 100 66q0 59 -93 59zM244 404q-43 0 -74 -4v-119h74q89 0 89 62 q0 61 -89 61z" />
<glyph unicode="&#x433;" horiz-adv-x="390" d="M116 490h224q54 0 54 -51q0 -49 -54 -49h-167v-332q0 -25 -15 -41.5t-42 -16.5t-41.5 16.5t-14.5 41.5v374q0 24 15 41t41 17z" />
<glyph unicode="&#x434;" d="M438 0h-340v-62q0 -24 -12.5 -39t-36.5 -15q-48 0 -48 54v100q0 23 12 37.5t35 14.5h5q9 0 17 9.5t14 27t11 38t8 48.5l5 51q3 23 5 52.5t3 47.5t2 41t1 27q3 58 59 58h226q27 0 42 -16t15 -42v-342h26q24 0 36 -15t12 -37v-100q0 -54 -48 -54q-24 0 -36.5 15t-12.5 39 v62zM177 90h173v304h-133q-5 -211 -40 -304z" />
<glyph unicode="&#x435;" horiz-adv-x="506" d="M402 204h-255q2 -57 37 -90t93 -33q44 0 106 26q44 18 62 -14q9 -15 3.5 -33.5t-24.5 -30.5q-58 -39 -158 -39q-112 0 -171.5 66t-59.5 187q0 117 63 187t170 70q96 0 150.5 -54.5t54.5 -144.5q0 -29 -5 -47q-7 -26 -22 -38t-44 -12zM268 409q-53 0 -84.5 -32.5 t-36.5 -93.5h221q1 10 1 25q0 45 -25.5 73t-75.5 28z" />
<glyph unicode="&#x436;" horiz-adv-x="643" d="M276 58v160l-169 -191q-21 -23 -43.5 -26t-42.5 18q-14 16 -10.5 37.5t22.5 41.5l145 150l-134 151q-37 43 -4 76q17 18 39 14t42 -29l155 -192v164q0 58 49 58t49 -58v-165l155 192q20 25 42.5 28.5t37.5 -13.5q31 -31 -7 -75l-129 -148l145 -155q18 -19 21 -40t-11 -38 q-17 -19 -40 -17.5t-43 24.5l-171 193v-160q0 -58 -49 -58t-49 58z" />
<glyph unicode="&#x437;" horiz-adv-x="451" d="M227 404q-39 0 -97 -22q-49 -18 -66 15q-18 40 25 66q60 37 152 37q85 0 129.5 -36.5t44.5 -95.5q0 -38 -22 -69.5t-58 -42.5q42 -9 67 -38.5t25 -73.5q0 -71 -49.5 -112.5t-143.5 -41.5q-105 0 -159 32q-40 25 -24 65q14 35 61 20q69 -21 111 -21q90 0 90 63 q0 62 -99 62h-40q-48 0 -48 38q0 39 48 39h36q91 0 91 61q0 55 -74 55z" />
<glyph unicode="&#x438;" d="M381 58v253l-216 -283q-21 -28 -51 -28q-27 0 -40.5 16t-13.5 42v374q0 25 15 41.5t42 16.5t41.5 -16.5t14.5 -41.5v-255l212 280q23 33 55 33q27 0 40.5 -16t13.5 -42v-374q0 -26 -14.5 -42t-42.5 -16q-27 0 -41.5 16t-14.5 42z" />
<glyph unicode="&#x439;" d="M381 58v253l-216 -283q-21 -28 -51 -28q-27 0 -40.5 16t-13.5 42v374q0 25 15 41.5t42 16.5t41.5 -16.5t14.5 -41.5v-255l212 280q23 33 55 33q27 0 40.5 -16t13.5 -42v-374q0 -26 -14.5 -42t-42.5 -16q-27 0 -41.5 16t-14.5 42zM278 548q-52 0 -89 21t-55 52 q-9 16 -7 33t15 26q32 21 62 -16q34 -41 74 -41q24 0 40.5 10.5t34.5 31.5q29 36 62 15q28 -19 6 -58q-44 -74 -143 -74z" />
<glyph unicode="&#x43a;" horiz-adv-x="463" d="M60 58v374q0 25 14.5 41.5t40.5 16.5q27 0 41.5 -16.5t14.5 -41.5v-164l170 193q45 51 84 14q15 -15 13 -36t-21 -41l-142 -151l159 -149q19 -18 21.5 -40.5t-12.5 -38.5q-39 -42 -87 8l-185 188v-157q0 -25 -14.5 -41.5t-41.5 -16.5t-41 16.5t-14 41.5z" />
<glyph unicode="&#x43b;" horiz-adv-x="504" d="M332 58v332h-120q-6 -190 -36 -285q-33 -108 -126 -108q-30 0 -49 14t-18 42q1 46 49 46q34 0 47 46q21 74 30 287q1 29 18 43.5t41 14.5h220q27 0 42 -17t15 -41v-374q0 -25 -15 -41.5t-42 -16.5t-41.5 16.5t-14.5 41.5z" />
<glyph unicode="&#x43c;" horiz-adv-x="611" d="M60 58v373q0 59 50 59q33 0 58 -36l134 -191l144 194q23 33 56 33q49 0 49 -59v-373q0 -26 -14 -42t-41 -16t-40.5 16.5t-13.5 41.5v250l-78 -107q-32 -43 -65 -43q-34 0 -65 41l-73 101v-242q0 -58 -51 -58q-50 0 -50 58z" />
<glyph unicode="&#x43d;" horiz-adv-x="550" d="M377 58v145h-204v-145q0 -25 -15 -41.5t-42 -16.5t-41.5 16.5t-14.5 41.5v374q0 25 14.5 41.5t41.5 16.5t42 -16.5t15 -41.5v-129h204v129q0 25 14.5 41.5t41.5 16.5t42 -16.5t15 -41.5v-374q0 -25 -15 -41.5t-42 -16.5t-41.5 16.5t-14.5 41.5z" />
<glyph unicode="&#x43e;" horiz-adv-x="549" d="M35 245q0 113 63 184t176 71t176.5 -71.5t63.5 -183.5t-63.5 -183.5t-176.5 -71.5t-176 71t-63 184zM151 245q0 -71 32 -115t91 -44q60 0 92 44t32 115t-32 115t-92 44q-59 0 -91 -44.5t-32 -114.5z" />
<glyph unicode="&#x43f;" horiz-adv-x="538" d="M365 58v332h-192v-332q0 -25 -15 -41.5t-42 -16.5t-41.5 16.5t-14.5 41.5v374q0 24 15 41t41 17h305q27 0 42 -17t15 -41v-374q0 -25 -15 -41.5t-42 -16.5t-41.5 16.5t-14.5 41.5z" />
<glyph unicode="&#x440;" horiz-adv-x="544" d="M60 -142v574q0 25 14.5 41.5t41.5 16.5t42 -16.5t15 -41.5v-8q45 76 146 76q92 0 141 -65.5t49 -174.5q0 -122 -56.5 -196t-168.5 -74q-64 0 -111 19v-151q0 -25 -15 -41.5t-42 -16.5t-41.5 16.5t-14.5 41.5zM296 404q-123 0 -123 -217v-78q40 -23 99 -23q121 0 121 176 q0 142 -97 142z" />
<glyph unicode="&#x441;" horiz-adv-x="461" d="M420 36q-58 -46 -155 -46q-108 0 -169 66t-61 185q0 120 63.5 189.5t173.5 69.5q85 0 129 -28q43 -27 25 -67q-17 -36 -66 -21q-51 15 -85 15q-58 0 -91 -42t-33 -116q0 -70 34.5 -110t90.5 -40q40 0 96 28q48 23 68 -10q23 -38 -20 -73z" />
<glyph unicode="&#x442;" horiz-adv-x="439" d="M49 490h340q54 0 54 -51q0 -49 -54 -49h-111v-331q0 -26 -15.5 -42.5t-43.5 -16.5q-27 0 -43 16.5t-16 42.5v331h-111q-53 0 -53 49q0 51 53 51z" />
<glyph unicode="&#x443;" horiz-adv-x="465" d="M210 0l-170 401q-12 23 -6 48.5t32 35.5q55 21 79 -41l117 -310l103 306q21 65 74 46q45 -15 22 -78l-156 -413q-44 -118 -84.5 -161.5t-105.5 -43.5q-48 0 -81 18q-50 28 -31 70q15 33 59 20q38 -12 54 -12q32 0 52 28.5t42 85.5z" />
<glyph unicode="&#x444;" horiz-adv-x="674" d="M296 75v339h-18q-67 0 -102.5 -44.5t-35.5 -124.5t36 -125t102 -45h18zM376 414v-339h19q66 0 102 45t36 125t-35.5 124.5t-102.5 44.5h-19zM273 500h9v132q0 25 14 41.5t40 16.5q27 0 40.5 -16t13.5 -42v-132h10q110 0 175.5 -67t65.5 -188t-65.5 -188t-175.5 -67h-10 v-132q0 -26 -13.5 -42t-40.5 -16t-40.5 16.5t-13.5 41.5v132h-9q-110 0 -175 67t-65 188q0 122 65 188.5t175 66.5z" />
<glyph unicode="&#x445;" horiz-adv-x="464" d="M143 458l99 -133l105 134q15 22 35.5 28.5t42.5 -9.5q34 -29 -5 -78l-115 -142l134 -163q17 -21 17 -43.5t-19 -38.5q-44 -36 -85 18l-119 149l-113 -149q-41 -54 -83 -17q-16 17 -13 37.5t19 40.5l129 156l-115 143q-41 51 0 86q23 17 46 11t40 -30z" />
<glyph unicode="&#x446;" horiz-adv-x="569" d="M364 100v332q0 25 14.5 41.5t41.5 16.5t42 -16.5t15 -41.5v-332h19q24 0 36 -15t12 -37v-110q0 -54 -48 -54q-24 0 -36.5 15t-12.5 39v62h-331q-26 0 -41 17t-15 41v374q0 25 14.5 41.5t41.5 16.5t42 -16.5t15 -41.5v-332h191z" />
<glyph unicode="&#x447;" horiz-adv-x="478" d="M305 58v124q-51 -31 -112 -31q-85 0 -126.5 43t-41.5 151v87q0 25 14.5 41.5t41.5 16.5t42 -16.5t15 -41.5v-70q0 -58 15.5 -86.5t59.5 -28.5q52 0 92 28v157q0 25 14.5 41.5t41.5 16.5t42 -16.5t15 -41.5v-374q0 -25 -15 -41.5t-42 -16.5t-41.5 16.5t-14.5 41.5z" />
<glyph unicode="&#x448;" horiz-adv-x="743" d="M60 59v373q0 25 14.5 41.5t40.5 16.5q27 0 41.5 -16.5t14.5 -41.5v-336h145v336q0 25 14.5 41.5t40.5 16.5q27 0 41.5 -16.5t14.5 -41.5v-336h145v336q0 25 14.5 41.5t40.5 16.5q27 0 41.5 -16.5t14.5 -41.5v-373q0 -26 -15 -42.5t-43 -16.5h-509q-27 0 -41.5 16 t-14.5 43z" />
<glyph unicode="&#x449;" horiz-adv-x="775" d="M116 0q-27 0 -41.5 16t-14.5 43v373q0 25 14.5 41.5t40.5 16.5q27 0 41.5 -16.5t14.5 -41.5v-336h145v336q0 25 14.5 41.5t40.5 16.5q27 0 41.5 -16.5t14.5 -41.5v-336h145v336q0 25 14.5 41.5t40.5 16.5q27 0 41.5 -16.5t14.5 -41.5v-336h19q24 0 36 -15t12 -37v-106 q0 -54 -48 -54q-24 0 -36.5 15t-12.5 39v62h-537z" />
<glyph unicode="&#x44a;" horiz-adv-x="536" d="M118 69v321h-69q-53 0 -53 49q0 51 53 51h125q25 0 41 -15.5t16 -42.5v-108q38 6 78 6q97 0 146.5 -42t49.5 -122q0 -171 -238 -171q-66 0 -102 9q-47 12 -47 65zM286 88q105 0 105 79q0 40 -24 58t-73 18q-23 0 -63 -5v-147q24 -3 55 -3z" />
<glyph unicode="&#x44b;" horiz-adv-x="653" d="M226 88q95 0 95 79q0 39 -20 57.5t-67 18.5q-21 0 -61 -5v-147q24 -3 53 -3zM60 69v364q0 27 16 42t40 15q25 0 41 -15.5t16 -42.5v-108q38 6 76 6q186 0 186 -164q0 -39 -12.5 -69t-33.5 -49t-51 -31t-62 -17t-69 -5q-64 0 -100 9q-47 12 -47 65zM480 58v374 q0 25 14.5 41.5t41.5 16.5t42 -16.5t15 -41.5v-374q0 -25 -15 -41.5t-42 -16.5t-41.5 16.5t-14.5 41.5z" />
<glyph unicode="&#x44c;" horiz-adv-x="478" d="M228 88q105 0 105 79q0 40 -24 58t-73 18q-23 0 -63 -5v-147q24 -3 55 -3zM60 69v364q0 27 16 42t40 15q25 0 41 -15.5t16 -42.5v-108q38 6 78 6q97 0 146.5 -42t49.5 -122q0 -171 -238 -171q-66 0 -102 9q-47 12 -47 65z" />
<glyph unicode="&#x44d;" horiz-adv-x="483" d="M173 288h170q-5 54 -35.5 85t-85.5 31q-45 0 -96 -19q-49 -18 -66 15q-9 19 -2 36.5t27 29.5q58 34 154 34q107 0 165.5 -69.5t58.5 -181.5q0 -119 -62 -189t-177 -70q-102 0 -151 33q-39 25 -24 64q14 36 63 20q61 -21 105 -21q58 0 90.5 32.5t35.5 89.5h-170 q-49 0 -49 40t49 40z" />
<glyph unicode="&#x44e;" horiz-adv-x="730" d="M60 58v374q0 25 14.5 41.5t40.5 16.5q27 0 41.5 -16.5t14.5 -41.5v-136h72q12 93 68.5 148.5t155.5 55.5q112 0 170 -70.5t58 -184.5t-58 -184.5t-170 -70.5q-100 0 -157.5 57.5t-67.5 152.5h-71v-142q0 -25 -14.5 -41.5t-41.5 -16.5t-41 16.5t-14 41.5zM351 245 q0 -72 28.5 -115.5t86.5 -43.5t86 43t28 116q0 72 -28 115.5t-86 43.5t-86.5 -43.5t-28.5 -115.5z" />
<glyph unicode="&#x44f;" horiz-adv-x="495" d="M323 58v104q-41 -4 -79 0l-81 -122q-19 -29 -44 -37t-52 11q-15 13 -16 35t16 45l69 90q-77 38 -77 144q0 28 8.5 53.5t29.5 53t66 43.5t110 16q72 0 114 -10q28 -6 38.5 -22.5t10.5 -44.5v-359q0 -25 -15 -41.5t-42 -16.5t-41.5 16.5t-14.5 41.5zM272 393q-99 0 -99 -76 q0 -70 87 -73q29 -2 63 2v143q-30 4 -51 4z" />
<glyph unicode="&#x451;" horiz-adv-x="506" d="M402 204h-255q2 -57 37 -90t93 -33q44 0 106 26q44 18 62 -14q9 -15 3.5 -33.5t-24.5 -30.5q-58 -39 -158 -39q-112 0 -171.5 66t-59.5 187q0 117 63 187t170 70q96 0 150.5 -54.5t54.5 -144.5q0 -29 -5 -47q-7 -26 -22 -38t-44 -12zM268 409q-53 0 -84.5 -32.5 t-36.5 -93.5h221q1 10 1 25q0 45 -25.5 73t-75.5 28zM109 618q0 28 16.5 44.5t46.5 16.5q29 0 46 -17t17 -44q0 -28 -17 -44.5t-46 -16.5q-30 0 -46.5 16t-16.5 45zM300 618q0 28 16.5 44.5t45.5 16.5t46 -17t17 -44q0 -28 -17 -44.5t-46 -16.5q-30 0 -46 16t-16 45z" />
<glyph unicode="&#x452;" horiz-adv-x="590" d="M340 421h-129v-133q22 41 61.5 62t86.5 21q93 0 132 -54.5t39 -159.5v-182q0 -185 -158 -185q-56 0 -89 20q-39 23 -29 65q4 18 19.5 26t34.5 4q47 -9 51 -9q35 0 46.5 19.5t11.5 64.5v178q0 113 -85 113q-35 0 -59.5 -16.5t-37 -47t-18 -65.5t-6.5 -81v-4q0 -25 -15 -41 t-42 -16t-41.5 16.5t-14.5 41.5v363h-61q-41 0 -41 34q0 35 41 35h61v142q0 25 14.5 41.5t41.5 16.5t42 -16.5t15 -41.5v-142h129q42 0 42 -35q0 -34 -42 -34z" />
<glyph unicode="&#x453;" horiz-adv-x="390" d="M340 490h-224q-26 0 -41 -17t-15 -41v-374q0 -25 14.5 -41.5t41.5 -16.5t42 16.5t15 41.5v332h167q54 0 54 49q0 51 -54 51zM340 636l-116 -76q-43 -31 -66 2q-26 36 21 67l120 78q43 28 65 -5q21 -35 -24 -66z" />
<glyph unicode="&#x454;" horiz-adv-x="469" d="M420 37q-59 -47 -155 -47q-108 0 -169 66t-61 185q0 120 63.5 189.5t173.5 69.5q81 0 129 -28q44 -26 25 -67q-17 -36 -66 -21q-51 15 -85 15q-49 0 -81.5 -30.5t-39.5 -84.5h174q46 0 46 -38q0 -37 -46 -37h-175q6 -56 39.5 -87t83.5 -31q40 0 96 28q48 23 68 -10 q23 -37 -20 -72z" />
<glyph unicode="&#x455;" horiz-adv-x="433" d="M238 500q86 0 143 -33q46 -26 28 -66q-16 -34 -63 -19q-69 27 -104 27q-67 0 -67 -45q0 -25 26 -41.5t63 -28t74 -26.5t63 -47t26 -79q0 -73 -49.5 -112.5t-148.5 -39.5q-98 0 -156 38q-42 30 -23 69q18 37 73 12q63 -28 116 -28q74 0 74 51q0 26 -26 42.5t-63 28.5 t-74 27t-63 48t-26 82q0 68 48 104t129 36z" />
<glyph unicode="&#x456;" horiz-adv-x="233" d="M60 58v374q0 25 14.5 41.5t41.5 16.5t42 -16.5t15 -41.5v-374q0 -25 -15 -41.5t-42 -16.5t-41.5 16.5t-14.5 41.5zM51 619q0 28 17.5 44.5t47.5 16.5t48 -16.5t18 -44.5q0 -29 -18 -45t-48 -16t-47.5 15.5t-17.5 45.5z" />
<glyph unicode="&#x457;" horiz-adv-x="233" d="M-41 618q0 28 16.5 44.5t46.5 16.5q29 0 46 -17t17 -44q0 -28 -17 -44.5t-46 -16.5q-30 0 -46.5 16t-16.5 45zM150 618q0 28 16.5 44.5t45.5 16.5t46 -17t17 -44q0 -28 -17 -44.5t-46 -16.5q-30 0 -46 16t-16 45zM60 58v374q0 25 14.5 41.5t41.5 16.5t42 -16.5t15 -41.5 v-374q0 -25 -15 -41.5t-42 -16.5t-41.5 16.5t-14.5 41.5z" />
<glyph unicode="&#x458;" horiz-adv-x="237" d="M78 -23v455q0 24 15 41t42 17t41.5 -16.5t14.5 -41.5v-466q0 -176 -155 -176q-65 0 -103 19q-46 22 -32 66q11 35 57 26q44 -10 61 -10q35 0 47 21t12 65zM69 619q0 28 17.5 44.5t47.5 16.5t48 -16.5t18 -44.5q0 -29 -18 -45t-48 -16t-47.5 15.5t-17.5 45.5z" />
<glyph unicode="&#x459;" horiz-adv-x="745" d="M330 69v321h-116q-6 -186 -37 -285q-33 -108 -127 -108q-31 0 -49.5 14t-17.5 42q3 46 49 46q35 0 48 46q22 78 31 287q1 29 18 43.5t41 14.5h216q27 0 42 -17t15 -41v-108q38 6 76 6q97 0 146.5 -42t49.5 -122q0 -171 -238 -171q-64 0 -100 9q-47 12 -47 65zM496 88 q105 0 105 79q0 40 -24 58t-73 18q-21 0 -61 -5v-147q24 -3 53 -3z" />
<glyph unicode="&#x45a;" horiz-adv-x="791" d="M376 69v134h-203v-145q0 -25 -15 -41.5t-42 -16.5t-41.5 16.5t-14.5 41.5v374q0 25 14.5 41.5t41.5 16.5t42 -16.5t15 -41.5v-129h203v130q0 27 16 42t40 15q25 0 41 -15.5t16 -42.5v-108q38 6 76 6q97 0 146 -42t49 -122q0 -171 -237 -171q-64 0 -100 9q-47 12 -47 65z M542 88q104 0 104 79q0 40 -23.5 58t-72.5 18q-21 0 -61 -5v-147q24 -3 53 -3z" />
<glyph unicode="&#x45b;" horiz-adv-x="590" d="M340 421h-129v-133q22 41 61.5 62t86.5 21q93 0 132 -54t39 -160v-99q0 -25 -15 -41.5t-42 -16.5t-41.5 16.5t-14.5 41.5v101q0 112 -85 112q-35 0 -59.5 -16.5t-37 -47t-18 -65.5t-6.5 -81v-4q0 -25 -15 -41t-42 -16t-41.5 16.5t-14.5 41.5v363h-61q-41 0 -41 34 q0 35 41 35h61v142q0 25 14.5 41.5t41.5 16.5t42 -16.5t15 -41.5v-142h129q42 0 42 -35q0 -34 -42 -34z" />
<glyph unicode="&#x45c;" horiz-adv-x="463" d="M60 58v374q0 25 14.5 41.5t40.5 16.5q27 0 41.5 -16.5t14.5 -41.5v-164l170 193q45 51 84 14q15 -15 13 -36t-21 -41l-142 -151l159 -149q19 -18 21.5 -40.5t-12.5 -38.5q-39 -42 -87 8l-185 188v-157q0 -25 -14.5 -41.5t-41.5 -16.5t-41 16.5t-14 41.5zM370 636 l-116 -76q-43 -31 -66 2q-26 36 21 67l120 78q43 28 65 -5q21 -35 -24 -66z" />
<glyph unicode="&#x45e;" horiz-adv-x="465" d="M210 0l-170 401q-12 23 -6 48.5t32 35.5q55 21 79 -41l117 -310l103 306q21 65 74 46q45 -15 22 -78l-156 -413q-44 -118 -84.5 -161.5t-105.5 -43.5q-48 0 -81 18q-50 28 -31 70q15 33 59 20q38 -12 54 -12q32 0 52 28.5t42 85.5zM254 548q-52 0 -89 21t-55 52 q-9 16 -7 33t15 26q32 21 62 -16q34 -41 74 -41q24 0 40.5 10.5t34.5 31.5q29 36 62 15q28 -19 6 -58q-44 -74 -143 -74z" />
<glyph unicode="&#x45f;" horiz-adv-x="538" d="M365 100v332q0 25 14.5 41.5t41.5 16.5t42 -16.5t15 -41.5v-374q0 -24 -15 -41t-42 -17h-104v-62q0 -54 -48 -54q-24 0 -36.5 15t-12.5 39v62h-104q-26 0 -41 17t-15 41v374q0 25 14.5 41.5t41.5 16.5t42 -16.5t15 -41.5v-332h192z" />
<glyph unicode="&#x462;" horiz-adv-x="679" d="M51 492q-55 0 -55 48t55 48h117v41q0 27 15.5 44t44.5 17q28 0 44 -17t16 -44v-41h137q56 0 56 -48t-56 -48h-137v-59q40 8 92 8q127 0 195 -51t68 -172q0 -109 -72 -166t-192 -57q-99 0 -155 12q-56 13 -56 69v416h-117zM369 334q-37 0 -81 -6v-220q43 -6 88 -6 q141 0 141 118q0 64 -39.5 89t-108.5 25z" />
<glyph unicode="&#x463;" horiz-adv-x="541" d="M231 490h93q53 0 53 -48q0 -46 -53 -46h-93v-72q38 6 78 6q97 0 146.5 -42t49.5 -122q0 -171 -238 -171q-66 0 -102 9q-47 12 -47 65v327h-69q-53 0 -53 46q0 48 53 48h69v142q0 25 14.5 41.5t41.5 16.5t42 -16.5t15 -41.5v-142zM286 88q105 0 105 79q0 40 -24 58t-73 18 q-23 0 -63 -5v-147q24 -3 55 -3z" />
<glyph unicode="&#x472;" horiz-adv-x="747" d="M45 345q0 155 85.5 255t242.5 100t243 -100t86 -255q0 -156 -86 -255.5t-243 -99.5t-242.5 99.5t-85.5 255.5zM373 97q87 0 139.5 56t60.5 146h-400q8 -90 60.5 -146t139.5 -56zM373 593q-84 0 -136.5 -53.5t-61.5 -138.5h397q-10 86 -62 139t-137 53z" />
<glyph unicode="&#x473;" horiz-adv-x="549" d="M35 245q0 113 63 184t176 71t176.5 -71.5t63.5 -183.5t-63.5 -183.5t-176.5 -71.5t-176 71t-63 184zM274 86q53 0 85.5 32t37.5 86h-245q5 -53 37.5 -85.5t84.5 -32.5zM274 404q-51 0 -83.5 -31.5t-38.5 -82.5h244q-5 51 -37.5 82.5t-84.5 31.5z" />
<glyph unicode="&#x474;" horiz-adv-x="646" d="M543 490l-176 -454q-17 -46 -60 -46q-41 0 -59 42l-225 550q-15 30 -10 61t36 42q57 21 88 -60l178 -455l143 385q31 83 67 114t90 31q51 0 82 -25q30 -25 17 -61q-12 -33 -46 -28q-4 0 -19 3.5t-27 3.5q-25 0 -41 -22t-38 -81z" />
<glyph unicode="&#x475;" horiz-adv-x="497" d="M405 321l-112 -275q-8 -19 -13.5 -28.5t-17.5 -18.5t-29 -9q-39 0 -62 54l-152 345q-7 16 -9.5 32.5t3.5 35t24 26.5q58 25 88 -54l113 -276l85 218q23 59 52 91t78 32q53 0 79 -29q21 -23 10 -50q-12 -32 -45 -24q-2 0 -12.5 3t-18.5 3q-18 0 -29.5 -15.5t-31.5 -60.5z " />
<glyph unicode="&#x490;" horiz-adv-x="489" d="M133 690h247v60q0 25 13 41t39 16t39 -16t13 -41v-113q0 -25 -15.5 -39.5t-43.5 -14.5h-230v-522q0 -27 -16 -44t-44 -17q-29 0 -44.5 17t-15.5 44v567q0 26 15.5 44t42.5 18z" />
<glyph unicode="&#x491;" horiz-adv-x="383" d="M60 59v372q0 25 16 42t43 17h173v51q0 53 48 53q47 0 47 -53v-98q0 -25 -14.5 -39t-41.5 -14h-153v-331q0 -26 -16 -42.5t-43 -16.5t-43 16.5t-16 42.5z" />
<glyph unicode="&#x492;" horiz-adv-x="512" d="M92 61v264h-50q-41 0 -41 39q0 40 41 40h50v224q0 27 15.5 44.5t44.5 17.5h297q26 0 41.5 -14.5t15.5 -39.5q0 -24 -15.5 -38.5t-41.5 -14.5h-237v-179h198q41 0 41 -40q0 -39 -41 -39h-198v-264q0 -27 -16 -44t-44 -17q-29 0 -44.5 17t-15.5 44z" />
<glyph unicode="&#x493;" horiz-adv-x="406" d="M132 490h224q54 0 54 -51q0 -49 -54 -49h-167v-119h143q42 0 42 -37q0 -36 -42 -36h-143v-140q0 -25 -15 -41.5t-42 -16.5t-41.5 16.5t-14.5 41.5v140h-39q-41 0 -41 36q0 37 41 37h39v161q0 24 15 41t41 17z" />
<glyph unicode="&#x494;" horiz-adv-x="597" d="M343 -4q97 0 97 143q0 65 -38.5 100t-105.5 35q-56 0 -101 -10v-200q0 -27 -16 -45.5t-44 -18.5q-29 0 -44.5 17t-15.5 44v567q0 26 15.5 44t42.5 18h299q26 0 41.5 -14.5t15.5 -39.5q0 -24 -15.5 -38.5t-41.5 -14.5h-237v-214q55 12 112 12q122 0 190.5 -58t68.5 -177 q0 -116 -53.5 -184.5t-162.5 -68.5q-64 0 -104 22q-17 9 -26 27.5t-2 38.5q13 36 55 27q54 -12 70 -12z" />
<glyph unicode="&#x495;" horiz-adv-x="515" d="M254 163q-36 0 -76 -10v-96q0 -25 -15.5 -41t-43.5 -16q-27 0 -43 16.5t-16 42.5v372q0 25 16 42t43 17h222q54 0 54 -51q0 -50 -54 -50h-163v-141q46 14 95 14q211 0 211 -229q0 -49 -9 -89.5t-29.5 -76.5t-59 -56.5t-92.5 -20.5q-55 0 -90 16q-52 24 -36 70 q12 38 58 26q40 -11 63 -11q81 0 81 141q0 71 -27.5 101t-88.5 30z" />
<glyph unicode="&#x496;" horiz-adv-x="896" d="M813 107h41q27 0 41.5 -15.5t14.5 -41.5v-135q0 -27 -14 -44t-42 -17t-42.5 17t-14.5 44v85h-16q-26 0 -52 29l-250 295v-263q0 -27 -14 -44t-42 -17q-56 0 -56 61v262l-246 -289q-52 -59 -96 -15q-18 21 -15 43.5t21 42.5l228 245l-202 238q-18 20 -20.5 44t15.5 43 q20 20 45.5 14t47.5 -35l222 -281v255q0 27 14 44.5t42 17.5t42 -17.5t14 -44.5v-258l224 283q47 61 90 22q36 -33 -5 -84l-200 -237z" />
<glyph unicode="&#x497;" horiz-adv-x="668" d="M613 100h35q24 0 36 -15t12 -37v-110q0 -54 -48 -54q-24 0 -36.5 15t-12.5 39v62h-7q-26 0 -47 25l-171 193v-160q0 -58 -49 -58t-49 58v160l-169 -191q-21 -23 -43.5 -26t-42.5 18q-14 16 -10.5 37.5t22.5 41.5l145 151l-134 151q-36 43 -4 75q17 18 39 14t42 -29 l155 -192v164q0 58 49 58t49 -58v-165l155 192q20 25 42.5 28.5t37.5 -13.5q30 -30 -7 -74l-129 -148z" />
<glyph unicode="&#x498;" horiz-adv-x="580" d="M275 97q68 0 106 28t38 81q0 96 -144 99h-75q-22 0 -35.5 12.5t-13.5 34.5q0 21 13.5 34t35.5 13h62q64 0 99.5 26t35.5 76q0 42 -29.5 67t-88.5 25q-52 0 -125 -25q-62 -21 -79 14q-11 22 -2 42.5t35 34.5q76 41 183 41t169.5 -46.5t62.5 -134.5q0 -49 -26 -91.5 t-77 -62.5q60 -16 92.5 -57t32.5 -99q0 -95 -54.5 -147.5t-144.5 -66.5v-80q0 -27 -14 -44t-42 -17t-42.5 17t-14.5 44v77q-88 6 -141 35q-26 14 -36 35t0 47q18 40 85 15q71 -27 134 -27z" />
<glyph unicode="&#x499;" horiz-adv-x="451" d="M227 404q-39 0 -97 -22q-49 -18 -66 15q-18 40 25 66q60 37 152 37q85 0 129.5 -36.5t44.5 -95.5q0 -38 -22 -69.5t-58 -42.5q42 -9 67 -38.5t25 -73.5q0 -61 -37 -100.5t-108 -49.5v-56q0 -54 -48 -54q-24 0 -36.5 15t-12.5 39v54q-72 7 -110 30q-40 25 -24 65 q14 35 61 20q69 -21 111 -21q90 0 90 63q0 62 -99 62h-40q-48 0 -48 38q0 39 48 39h36q91 0 91 61q0 55 -74 55z" />
<glyph unicode="&#x49a;" horiz-adv-x="624" d="M543 107h36q27 0 41.5 -15.5t14.5 -41.5v-135q0 -27 -14 -44t-42 -17t-42.5 17t-14.5 44v85h-16q-24 0 -54 32l-257 283v-254q0 -27 -16 -44t-44 -17q-29 0 -44.5 17t-15.5 44v567q0 27 15.5 44.5t44.5 17.5q28 0 44 -17.5t16 -44.5v-252l245 281q48 55 89 18 q20 -20 16.5 -44t-23.5 -45l-215 -230z" />
<glyph unicode="&#x49b;" horiz-adv-x="482" d="M432 100h27q24 0 36 -15t12 -37v-110q0 -54 -48 -54q-24 0 -36.5 15t-12.5 39v62h-10q-17 0 -44 27l-185 188v-157q0 -25 -14.5 -41.5t-41.5 -16.5t-41 16.5t-14 41.5v374q0 25 14.5 41.5t40.5 16.5q27 0 41.5 -16.5t14.5 -41.5v-164l170 193q45 51 84 14q15 -15 13 -36 t-21 -41l-142 -151z" />
<glyph unicode="&#x49c;" horiz-adv-x="641" d="M236 194v105h-41v-238q0 -27 -16 -44t-44 -17q-29 0 -44.5 17t-15.5 44v567q0 27 15.5 44.5t44.5 17.5q28 0 44 -17.5t16 -44.5v-241h41v79q0 42 35 42q37 0 37 -42v-79h30l165 261q39 61 84 32q43 -28 4 -86l-160 -237l186 -257q19 -29 17 -52t-19 -35q-49 -35 -87 21 l-184 265h-36v-105q0 -42 -37 -42q-35 0 -35 42z" />
<glyph unicode="&#x49d;" horiz-adv-x="515" d="M60 58v374q0 25 14.5 41.5t40.5 16.5q27 0 41.5 -16.5t14.5 -41.5v-150h33v79q0 33 29 33t29 -33v-79h23l116 175q35 52 73 23q33 -25 4 -69l-108 -159l126 -165q12 -16 12.5 -38t-17.5 -38q-42 -28 -82 26l-121 165h-26v-74q0 -34 -29 -34t-29 34v74h-33v-144 q0 -25 -14.5 -41.5t-41.5 -16.5t-41 16.5t-14 41.5z" />
<glyph unicode="&#x4a0;" horiz-adv-x="664" d="M168 61v522h-115q-26 0 -41.5 14.5t-15.5 38.5q0 25 15.5 39.5t41.5 14.5h175q28 0 44 -17.5t16 -44.5v-252l245 281q48 55 89 18q20 -20 16.5 -44t-23.5 -45l-215 -230l230 -241q23 -24 27 -49.5t-15 -46.5q-44 -43 -97 14l-257 282v-254q0 -27 -16 -44t-44 -17 q-29 0 -44.5 17t-15.5 44z" />
<glyph unicode="&#x4a1;" horiz-adv-x="521" d="M119 58v332h-70q-53 0 -53 49q0 51 53 51h125q27 0 41.5 -16.5t14.5 -41.5v-164l171 193q45 51 83 14q15 -15 13 -36t-21 -41l-142 -151l159 -149q19 -18 21.5 -40.5t-12.5 -38.5q-39 -42 -87 8l-185 188v-157q0 -25 -14.5 -41.5t-41.5 -16.5t-41 16.5t-14 41.5z" />
<glyph unicode="&#x4a2;" horiz-adv-x="757" d="M513 61v238h-318v-238q0 -27 -16 -44t-44 -17q-29 0 -44.5 17t-15.5 44v567q0 27 15.5 44.5t44.5 17.5q28 0 44 -17.5t16 -44.5v-222h318v222q0 27 15.5 44.5t44.5 17.5q28 0 44 -17.5t16 -44.5v-521h35q26 0 40 -16.5t14 -42.5v-133q0 -27 -14 -44t-42 -17t-42.5 17 t-14.5 44v85h-36q-29 0 -44.5 17t-15.5 44z" />
<glyph unicode="&#x4a3;" horiz-adv-x="582" d="M377 58v145h-204v-145q0 -25 -15 -41.5t-42 -16.5t-41.5 16.5t-14.5 41.5v374q0 25 14.5 41.5t41.5 16.5t42 -16.5t15 -41.5v-129h204v129q0 25 14.5 41.5t41.5 16.5t42 -16.5t15 -41.5v-332h19q24 0 36 -15t12 -37v-110q0 -54 -48 -54q-24 0 -36.5 15t-12.5 39v62h-27 q-27 0 -41.5 16.5t-14.5 41.5z" />
<glyph unicode="&#x4a4;" horiz-adv-x="928" d="M511 61v238h-316v-238q0 -27 -16 -44t-44 -17q-29 0 -44.5 17t-15.5 44v567q0 27 15.5 44.5t44.5 17.5q28 0 44 -17.5t16 -44.5v-222h316v222q0 27 15.5 44.5t44.5 17.5h295q26 0 41.5 -14.5t15.5 -39.5q0 -24 -15.5 -38.5t-41.5 -14.5h-235v-522q0 -27 -16 -44t-44 -17 q-29 0 -44.5 17t-15.5 44z" />
<glyph unicode="&#x4a5;" horiz-adv-x="703" d="M431 490h222q54 0 54 -51q0 -49 -54 -49h-165v-332q0 -25 -15 -41.5t-42 -16.5t-41.5 16.5t-14.5 41.5v145h-202v-145q0 -25 -15 -41.5t-42 -16.5t-41.5 16.5t-14.5 41.5v374q0 25 14.5 41.5t41.5 16.5t42 -16.5t15 -41.5v-129h202v129q0 24 15 41t41 17z" />
<glyph unicode="&#x4aa;" horiz-adv-x="634" d="M368 593q-92 0 -144.5 -67.5t-52.5 -179.5q0 -116 56.5 -182.5t143.5 -66.5q69 0 142 43q51 29 76 -7q13 -17 7.5 -41t-30.5 -43q-64 -47 -158 -57v-77q0 -27 -14 -44t-42 -17t-42.5 17t-14.5 44v80q-124 20 -187 112t-63 238q0 162 85 258.5t236 96.5q119 0 185 -46 q44 -30 24 -73q-17 -38 -76 -16q-73 28 -131 28z" />
<glyph unicode="&#x4ab;" horiz-adv-x="461" d="M420 37q-43 -35 -111 -44v-55q0 -54 -48 -54q-24 0 -36.5 15t-12.5 39v57q-84 15 -130.5 79t-46.5 167q0 120 63.5 189.5t173.5 69.5q81 0 129 -28q44 -26 25 -67q-17 -36 -66 -21q-51 15 -85 15q-58 0 -91 -42t-33 -116q0 -70 34.5 -110t90.5 -40q40 0 96 28 q48 23 68 -10q23 -37 -20 -72z" />
<glyph unicode="&#x4ae;" horiz-adv-x="566" d="M267 62v237l-197 282q-42 65 6 99q30 17 53 7t41 -38l161 -242l156 242q17 26 38 36t51 -5q22 -18 21.5 -40t-16.5 -46l-194 -290v-242q0 -27 -16 -44t-44 -17q-29 0 -44.5 17t-15.5 44z" />
<glyph unicode="&#x4af;" horiz-adv-x="466" d="M447 408l-152 -375v-175q0 -25 -15 -41.5t-42 -16.5t-41.5 16.5t-14.5 41.5v174l-153 368q-12 22 -6.5 48.5t31.5 36.5t46.5 -1.5t30.5 -38.5l109 -298l111 296q22 62 74 42q48 -19 22 -77z" />
<glyph unicode="&#x4b0;" horiz-adv-x="566" d="M226 62v153h-77q-54 0 -54 44q0 45 54 45h73l-191 274q-18 28 -19 54.5t23 47.5q27 16 51.5 7.5t43.5 -37.5l160 -246l156 245q17 26 38 36t51 -5q22 -15 22 -39.5t-16 -47.5l-195 -289h76q56 0 56 -45q0 -44 -56 -44h-76v-153q0 -27 -16 -44t-44 -17q-29 0 -44.5 17 t-15.5 44z" />
<glyph unicode="&#x4b1;" horiz-adv-x="466" d="M447 408l-140 -339h71q42 0 42 -35q0 -34 -42 -34h-83v-142q0 -25 -15 -41.5t-42 -16.5t-41.5 16.5t-14.5 41.5v142h-85q-41 0 -41 34q0 35 41 35h72l-140 331q-12 22 -6.5 48.5t31.5 36.5t46.5 -1.5t30.5 -38.5l109 -300l111 298q22 62 74 42q48 -19 22 -77z" />
<glyph unicode="&#x4b2;" horiz-adv-x="649" d="M150 655l155 -213l154 212q39 56 84 24q41 -29 3 -83l-176 -233l192 -255h42q27 0 41.5 -15.5t14.5 -41.5v-135q0 -27 -14 -44t-42 -17t-42.5 17t-14.5 44v85h-16q-37 0 -58 31l-178 242l-168 -236q-40 -58 -86 -27q-21 18 -21 40t16 43l194 262l-177 232 q-16 22 -16 47.5t21 42.5q29 18 52 10.5t40 -32.5z" />
<glyph unicode="&#x4b3;" horiz-adv-x="482" d="M143 457l99 -133l106 134q15 22 34.5 28.5t42.5 -9.5q34 -29 -5 -78l-115 -142l129 -157h33q24 0 36 -15t12 -37v-110q0 -54 -48 -54q-24 0 -36.5 15t-12.5 39v62h-13q-28 0 -53 31l-119 148l-113 -149q-41 -54 -83 -17q-16 17 -13 37.5t19 40.5l129 156l-115 143 q-41 51 0 86q23 17 46 11t40 -30z" />
<glyph unicode="&#x4b6;" horiz-adv-x="655" d="M411 389v239q0 27 15.5 44.5t44.5 17.5t44.5 -17.5t15.5 -44.5v-521h35q26 0 40 -16.5t14 -42.5v-133q0 -27 -14 -44t-42 -17t-42.5 17t-14.5 44v85h-36q-29 0 -44.5 17t-15.5 44v221q-70 -48 -160 -48q-108 0 -162 52.5t-54 186.5v155q0 26 16 44t44 18q29 0 44.5 -18 t15.5 -44v-149q0 -78 27 -109.5t86 -31.5q69 0 143 51z" />
<glyph unicode="&#x4b7;" horiz-adv-x="510" d="M305 58v124q-51 -31 -112 -31q-81 0 -124.5 44.5t-43.5 149.5v87q0 25 14.5 41.5t41.5 16.5t42 -16.5t15 -41.5v-70q0 -58 15.5 -86.5t59.5 -28.5q52 0 92 28v157q0 25 14.5 41.5t41.5 16.5t42 -16.5t15 -41.5v-332h19q24 0 36 -15t12 -37v-110q0 -54 -48 -54 q-24 0 -36.5 15t-12.5 39v62h-27q-27 0 -41.5 16.5t-14.5 41.5z" />
<glyph unicode="&#x4b8;" horiz-adv-x="634" d="M255 164v70q-109 1 -164.5 53.5t-55.5 184.5v156q0 26 16 44t44 18q29 0 44.5 -18t15.5 -44v-154q0 -70 24.5 -102t75.5 -37v101q0 18 10 30t29 12q40 0 40 -42v-93q63 18 105 55v230q0 27 15.5 44.5t44.5 17.5t44.5 -17.5t15.5 -44.5v-567q0 -27 -15.5 -44t-44.5 -17 t-44.5 17t-15.5 44v230q-41 -31 -105 -47v-80q0 -43 -40 -43q-19 0 -29 12t-10 31z" />
<glyph unicode="&#x4b9;" horiz-adv-x="503" d="M210 100v51h-14q-83 0 -127 39.5t-44 139.5v102q0 25 14.5 41.5t41.5 16.5t42 -16.5t15 -41.5v-105q0 -44 17 -64t55 -21v78q0 35 31 35q30 0 30 -35v-69q34 12 59 35v146q0 25 14.5 41.5t41.5 16.5t42 -16.5t15 -41.5v-374q0 -25 -15 -41.5t-42 -16.5t-41.5 16.5 t-14.5 41.5v136q-25 -17 -59 -30v-64q0 -35 -30 -35q-31 0 -31 35z" />
<glyph unicode="&#x4ba;" horiz-adv-x="606" d="M189 301v-239q0 -27 -15.5 -44.5t-44.5 -17.5t-44.5 17.5t-15.5 44.5v567q0 27 15.5 44t44.5 17t44.5 -17t15.5 -44v-221q70 48 160 48q107 0 161.5 -52.5t54.5 -186.5v-155q0 -26 -16 -44t-44 -18q-29 0 -44.5 18t-15.5 44v149q0 78 -27 109.5t-86 31.5q-69 0 -143 -51z " />
<glyph unicode="&#x4bb;" horiz-adv-x="552" d="M60 58v574q0 25 14.5 41.5t41.5 16.5t42 -16.5t15 -41.5v-215q22 41 61.5 62t86.5 21q93 0 132 -54t39 -160v-228q0 -25 -15 -41.5t-42 -16.5t-41.5 16.5t-14.5 41.5v230q0 112 -85 112q-35 0 -59.5 -17t-37 -48.5t-18 -66.5t-6.5 -81v-129q0 -25 -15 -41.5t-42 -16.5 t-41.5 16.5t-14.5 41.5z" />
<glyph unicode="&#x4c0;" horiz-adv-x="270" d="M75 61v567q0 27 15.5 44.5t44.5 17.5q28 0 44 -17.5t16 -44.5v-567q0 -27 -16 -44t-44 -17q-29 0 -44.5 17t-15.5 44z" />
<glyph unicode="&#x4c3;" horiz-adv-x="600" d="M75 61v567q0 27 15.5 44.5t44.5 17.5q28 0 44 -17.5t16 -44.5v-245h55l204 270q43 59 89 23q19 -18 17 -41.5t-21 -46.5l-180 -219q97 -29 158.5 -111t61.5 -192q0 -119 -58.5 -197.5t-170.5 -78.5q-66 0 -101 17q-23 12 -33 32.5t-1 43.5q15 36 60 27q53 -11 74 -11 q114 0 114 163q0 97 -63.5 162t-160.5 65h-44v-228q0 -27 -16 -44t-44 -17q-29 0 -44.5 17t-15.5 44z" />
<glyph unicode="&#x4c4;" horiz-adv-x="504" d="M62 58v374q0 25 14 41.5t40 16.5t40 -16.5t14 -41.5v-154h49l127 178q37 52 77 23q37 -27 -2 -77l-107 -139q78 -22 122 -89.5t44 -160.5q0 -98 -47 -160.5t-142 -62.5q-59 0 -94 17q-51 25 -35 69q14 37 60 25q37 -10 61 -10q83 0 83 124q0 68 -40.5 122t-110.5 55h-45 v-134q0 -25 -13.5 -41.5t-40.5 -16.5t-40.5 16.5t-13.5 41.5z" />
<glyph unicode="&#x4c7;" horiz-adv-x="708" d="M513 -17v316h-318v-238q0 -27 -16 -44t-44 -17q-29 0 -44.5 17t-15.5 44v567q0 27 15.5 44.5t44.5 17.5q28 0 44 -17.5t16 -44.5v-222h318v222q0 27 15.5 44.5t44.5 17.5q28 0 44 -17.5t16 -44.5v-613q0 -112 -35 -168.5t-126 -56.5q-54 0 -88 15q-54 23 -41 71 q11 40 55 33q42 -10 58 -10q35 0 46 20t11 64z" />
<glyph unicode="&#x4c8;" horiz-adv-x="550" d="M377 -31v234h-204v-145q0 -25 -15 -41.5t-42 -16.5t-41.5 16.5t-14.5 41.5v374q0 25 14.5 41.5t41.5 16.5t42 -16.5t15 -41.5v-129h204v129q0 25 14.5 41.5t41.5 16.5t42 -16.5t15 -41.5v-429q0 -106 -33 -159.5t-119 -53.5q-49 0 -81 13q-48 22 -37 67q4 17 18 25t32 4 q42 -8 52 -8q34 0 44.5 18t10.5 60z" />
<glyph unicode="&#x4d0;" horiz-adv-x="611" d="M509 47l-56 148h-257l-52 -141q-25 -72 -82 -49q-44 19 -20 82l225 564q19 49 61 49q40 0 58 -43l232 -569q11 -22 4.5 -48t-31.5 -35q-28 -10 -49.5 1.5t-32.5 40.5zM322 541l-94 -252h191zM327 734q-54 0 -96 18.5t-62 45.5q-27 36 0 61q27 26 65 -10q39 -38 93 -38 t92 37q36 36 65 11q27 -23 -1 -61q-20 -28 -61 -46t-95 -18z" />
<glyph unicode="&#x4d1;" horiz-adv-x="503" d="M335 58v18q-49 -86 -160 -86q-75 0 -117.5 40t-42.5 107q0 85 61.5 124.5t153.5 39.5q63 0 105 -7v11q0 48 -21 74.5t-81 26.5q-13 0 -25 -1t-24.5 -4t-20.5 -6l-24 -7q-16 -5 -24 -7q-18 -6 -34.5 0t-22.5 23q-12 35 25 59q55 37 163 37q197 0 197 -186v-256 q0 -26 -13.5 -42t-40.5 -16t-40.5 16.5t-13.5 41.5zM205 78q60 0 95 39.5t35 90.5v17q-32 5 -89 5q-120 0 -120 -84q0 -31 21 -49.5t58 -18.5zM245 548q-52 0 -89 21t-55 52q-9 16 -7 33t15 26q32 21 62 -16q34 -41 74 -41q24 0 40.5 10.5t34.5 31.5q29 36 62 15 q28 -19 6 -58q-44 -74 -143 -74z" />
<glyph unicode="&#x4d2;" horiz-adv-x="611" d="M509 47l-56 148h-257l-52 -141q-25 -72 -82 -49q-44 19 -20 82l225 564q19 49 61 49q40 0 58 -43l232 -569q11 -22 4.5 -48t-31.5 -35q-28 -10 -49.5 1.5t-32.5 40.5zM322 541l-94 -252h191zM149 796q0 28 20.5 44t51.5 16q33 0 53.5 -16t20.5 -44t-20.5 -43t-53.5 -15 q-32 0 -52 15t-20 43zM357 796q0 28 20 44t53 16q32 0 52.5 -16t20.5 -44t-20.5 -43t-52.5 -15q-33 0 -53 15t-20 43z" />
<glyph unicode="&#x4d3;" horiz-adv-x="503" d="M335 58v18q-49 -86 -160 -86q-75 0 -117.5 40t-42.5 107q0 85 61.5 124.5t153.5 39.5q63 0 105 -7v11q0 48 -21 74.5t-81 26.5q-13 0 -25 -1t-24.5 -4t-20.5 -6l-24 -7q-16 -5 -24 -7q-18 -6 -34.5 0t-22.5 23q-12 35 25 59q55 37 163 37q197 0 197 -186v-256 q0 -26 -13.5 -42t-40.5 -16t-40.5 16.5t-13.5 41.5zM205 78q60 0 95 39.5t35 90.5v17q-32 5 -89 5q-120 0 -120 -84q0 -31 21 -49.5t58 -18.5zM85 618q0 28 16.5 44.5t46.5 16.5q29 0 46 -17t17 -44q0 -28 -17 -44.5t-46 -16.5q-30 0 -46.5 16t-16.5 45zM276 618 q0 28 16.5 44.5t45.5 16.5t46 -17t17 -44q0 -28 -17 -44.5t-46 -16.5q-30 0 -46 16t-16 45z" />
<glyph unicode="&#x4d4;" horiz-adv-x="872" d="M401 63v112h-201l-86 -133q-10 -16 -23.5 -27.5t-32.5 -14.5t-37 11q-21 19 -19.5 41.5t16.5 45.5l380 554q24 38 65 38h323q26 0 41.5 -14.5t15.5 -39.5q0 -24 -15.5 -38.5t-41.5 -14.5h-271v-175h215q27 0 42.5 -14t15.5 -39q0 -24 -15.5 -39t-42.5 -15h-215v-194h281 q26 0 41.5 -14.5t15.5 -39.5q0 -24 -15.5 -38.5t-41.5 -14.5h-331q-28 0 -46 18t-18 45zM401 490l-145 -223h145v223z" />
<glyph unicode="&#x4d5;" horiz-adv-x="788" d="M10 133q0 158 219 158h99v27q0 40 -24 64t-76 24q-15 0 -31.5 -2t-26.5 -4.5l-30 -7.5l-29 -9q-47 -11 -58 21q-14 43 40 68q63 28 148 28q123 0 152 -84q57 84 174 84q88 0 138 -51.5t50 -129.5q0 -49 -15.5 -74t-63.5 -25h-247q4 -139 130 -139q47 0 111 26 q40 16 56 -15q10 -18 2.5 -36.5t-28.5 -31.5q-56 -34 -146 -34q-136 0 -189 112q-56 -112 -195 -112q-75 0 -117.5 38.5t-42.5 104.5zM201 78q60 0 93.5 38.5t33.5 90.5v13h-88q-58 0 -88.5 -16.5t-30.5 -60.5q0 -31 22 -48t58 -17zM552 409q-50 0 -82.5 -30t-37.5 -88h217 q3 16 3 37q0 36 -25.5 58.5t-74.5 22.5z" />
<glyph unicode="&#x4d6;" horiz-adv-x="561" d="M75 62v566q0 27 16 44.5t45 17.5h338q26 0 41.5 -14.5t15.5 -39.5q0 -24 -15.5 -38.5t-41.5 -14.5h-279v-175h223q27 0 42.5 -14t15.5 -39q0 -24 -15.5 -39t-42.5 -15h-223v-194h289q26 0 41.5 -14.5t15.5 -39.5q0 -24 -15.5 -38.5t-41.5 -14.5h-347q-29 0 -45.5 17.5 t-16.5 44.5zM301 734q-54 0 -96 18.5t-62 45.5q-27 36 0 61q27 26 65 -10q39 -38 93 -38t92 37q36 36 65 11q27 -23 -1 -61q-20 -28 -61 -46t-95 -18z" />
<glyph unicode="&#x4d7;" horiz-adv-x="506" d="M402 204h-255q2 -57 37 -90t93 -33q44 0 106 26q44 18 62 -14q9 -15 3.5 -33.5t-24.5 -30.5q-58 -39 -158 -39q-112 0 -171.5 66t-59.5 187q0 117 63 187t170 70q96 0 150.5 -54.5t54.5 -144.5q0 -29 -5 -47q-7 -26 -22 -38t-44 -12zM268 409q-53 0 -84.5 -32.5 t-36.5 -93.5h221q1 10 1 25q0 45 -25.5 73t-75.5 28zM264 548q-52 0 -89 21t-55 52q-9 16 -7 33t15 26q32 21 62 -16q34 -41 74 -41q24 0 40.5 10.5t34.5 31.5q29 36 62 15q28 -19 6 -58q-44 -74 -143 -74z" />
<glyph unicode="&#x4d8;" horiz-adv-x="656" d="M312 593q-58 0 -141 -30q-60 -21 -77 14q-23 47 35 80q77 43 187 43q295 0 295 -354q0 -54 -8.5 -102.5t-29 -96t-53 -81t-83.5 -54.5t-116 -21q-140 0 -208 82.5t-68 214.5q0 45 6.5 71.5t25 38.5t36.5 14.5t54 2.5h322q-5 84 -49 131t-128 47zM324 95q164 0 166 220 h-324q-4 -35 -1 -60q4 -76 46.5 -118t112.5 -42z" />
<glyph unicode="&#x4d9;" horiz-adv-x="497" d="M35 203q0 46 17 67t56 21h242q-6 118 -114 118q-44 0 -101 -20q-52 -18 -66 14q-19 43 33 69q55 28 139 28q111 0 166 -68.5t55 -184.5q0 -117 -57 -187t-165 -70q-97 0 -151 56.5t-54 156.5zM244 81q54 0 80 36.5t27 98.5h-212q-4 -135 105 -135z" />
<glyph unicode="&#x4da;" horiz-adv-x="656" d="M312 593q-58 0 -141 -30q-60 -21 -77 14q-23 47 35 80q77 43 187 43q295 0 295 -354q0 -54 -8.5 -102.5t-29 -96t-53 -81t-83.5 -54.5t-116 -21q-140 0 -208 82.5t-68 214.5q0 45 6.5 71.5t25 38.5t36.5 14.5t54 2.5h322q-5 84 -49 131t-128 47zM324 95q164 0 166 220 h-324q-4 -35 -1 -60q4 -76 46.5 -118t112.5 -42zM138 796q0 28 20.5 44t51.5 16q33 0 53.5 -16t20.5 -44t-20.5 -43t-53.5 -15q-32 0 -52 15t-20 43zM346 796q0 28 20 44t53 16q32 0 52.5 -16t20.5 -44t-20.5 -43t-52.5 -15q-33 0 -53 15t-20 43z" />
<glyph unicode="&#x4db;" horiz-adv-x="497" d="M35 203q0 46 17 67t56 21h242q-6 118 -114 118q-44 0 -101 -20q-52 -18 -66 14q-19 43 33 69q55 28 139 28q111 0 166 -68.5t55 -184.5q0 -117 -57 -187t-165 -70q-97 0 -151 56.5t-54 156.5zM244 81q54 0 80 36.5t27 98.5h-212q-4 -135 105 -135zM86 618q0 28 17 44.5 t46 16.5t46 -17t17 -44q0 -28 -17 -44.5t-46 -16.5q-30 0 -46.5 16t-16.5 45zM277 618q0 28 16.5 44.5t45.5 16.5t46 -17t17 -44q0 -28 -17 -44.5t-46 -16.5q-30 0 -46 16t-16 45z" />
<glyph unicode="&#x4dc;" horiz-adv-x="840" d="M367 61v262l-246 -289q-52 -59 -96 -15q-18 21 -15 43.5t21 42.5l227 245l-201 238q-18 20 -20.5 44t15.5 43q20 20 46 14t48 -35l221 -281v255q0 27 14 44.5t42 17.5t42 -17.5t14 -44.5v-258l223 283q47 61 91 22q36 -33 -5 -84l-199 -237l226 -248q18 -20 21 -44.5 t-14 -43.5q-22 -21 -47 -17.5t-46 28.5l-250 295v-263q0 -27 -14 -44t-42 -17q-56 0 -56 61zM247 796q0 28 20.5 44t51.5 16q33 0 53.5 -16t20.5 -44t-20.5 -43t-53.5 -15q-32 0 -52 15t-20 43zM455 796q0 28 20 44t53 16q32 0 52.5 -16t20.5 -44t-20.5 -43t-52.5 -15 q-33 0 -53 15t-20 43z" />
<glyph unicode="&#x4dd;" horiz-adv-x="643" d="M276 58v160l-169 -191q-21 -23 -43.5 -26t-42.5 18q-14 16 -10.5 37.5t22.5 41.5l145 150l-134 151q-37 43 -4 76q17 18 39 14t42 -29l155 -192v164q0 58 49 58t49 -58v-165l155 192q20 25 42.5 28.5t37.5 -13.5q31 -31 -7 -75l-129 -148l145 -155q18 -19 21 -40t-11 -38 q-17 -19 -40 -17.5t-43 24.5l-171 193v-160q0 -58 -49 -58t-49 58zM169 618q0 28 17 44.5t46 16.5t46 -17t17 -44q0 -28 -17 -44.5t-46 -16.5q-30 0 -46.5 16t-16.5 45zM360 618q0 28 16.5 44.5t45.5 16.5t46 -17t17 -44q0 -28 -17 -44.5t-46 -16.5q-30 0 -46 16t-16 45z " />
<glyph unicode="&#x4de;" horiz-adv-x="580" d="M275 97q68 0 106 28t38 81q0 96 -144 99h-75q-22 0 -35.5 12.5t-13.5 34.5q0 21 13.5 34t35.5 13h62q64 0 99.5 26t35.5 76q0 42 -29.5 67t-88.5 25q-52 0 -125 -25q-62 -21 -79 14q-11 22 -2 42.5t35 34.5q76 41 183 41t169.5 -46.5t62.5 -134.5q0 -49 -26 -91.5 t-77 -62.5q60 -16 92.5 -57t32.5 -99q0 -112 -75.5 -165.5t-193.5 -53.5q-113 0 -184 37q-26 14 -36 35t0 47q18 40 85 15q71 -27 134 -27zM114 796q0 28 20.5 44t51.5 16q33 0 53.5 -16t20.5 -44t-20.5 -43t-53.5 -15q-32 0 -52 15t-20 43zM322 796q0 28 20 44t53 16 q32 0 52.5 -16t20.5 -44t-20.5 -43t-52.5 -15q-33 0 -53 15t-20 43z" />
<glyph unicode="&#x4df;" horiz-adv-x="451" d="M227 404q-39 0 -97 -22q-49 -18 -66 15q-18 40 25 66q60 37 152 37q85 0 129.5 -36.5t44.5 -95.5q0 -38 -22 -69.5t-58 -42.5q42 -9 67 -38.5t25 -73.5q0 -71 -49.5 -112.5t-143.5 -41.5q-105 0 -159 32q-40 25 -24 65q14 35 61 20q69 -21 111 -21q90 0 90 63 q0 62 -99 62h-40q-48 0 -48 38q0 39 48 39h36q91 0 91 61q0 55 -74 55zM77 618q0 28 16.5 44.5t46.5 16.5q29 0 46 -17t17 -44q0 -28 -17 -44.5t-46 -16.5q-30 0 -46.5 16t-16.5 45zM268 618q0 28 16.5 44.5t45.5 16.5t46 -17t17 -44q0 -28 -17 -44.5t-46 -16.5 q-30 0 -46 16t-16 45z" />
<glyph unicode="&#x4e2;" horiz-adv-x="708" d="M195 628v-419l323 447q25 34 58 34q57 0 57 -62v-567q0 -27 -15 -44t-44 -17q-30 0 -45.5 17.5t-15.5 43.5v418l-325 -444q-27 -35 -56 -35q-27 0 -42 16t-15 45v567q0 27 15 44.5t45 17.5q29 0 44.5 -17.5t15.5 -44.5zM473 748h-245q-48 0 -48 39q0 40 48 40h245 q48 0 48 -40q0 -39 -48 -39z" />
<glyph unicode="&#x4e3;" d="M381 58v253l-216 -283q-21 -28 -51 -28q-27 0 -40.5 16t-13.5 42v374q0 25 15 41.5t42 16.5t41.5 -16.5t14.5 -41.5v-255l212 280q23 33 55 33q27 0 40.5 -16t13.5 -42v-374q0 -26 -14.5 -42t-42.5 -16q-27 0 -41.5 16t-14.5 42zM392 568h-229q-47 0 -47 40t47 40h229 q47 0 47 -40t-47 -40z" />
<glyph unicode="&#x4e4;" horiz-adv-x="708" d="M195 628v-419l323 447q25 34 58 34q57 0 57 -62v-567q0 -27 -15 -44t-44 -17q-30 0 -45.5 17.5t-15.5 43.5v418l-325 -444q-27 -35 -56 -35q-27 0 -42 16t-15 45v567q0 27 15 44.5t45 17.5q29 0 44.5 -17.5t15.5 -44.5zM173 796q0 28 20.5 44t51.5 16q33 0 53.5 -16 t20.5 -44t-20.5 -43t-53.5 -15q-32 0 -52 15t-20 43zM381 796q0 28 20 44t53 16q32 0 52.5 -16t20.5 -44t-20.5 -43t-52.5 -15q-33 0 -53 15t-20 43z" />
<glyph unicode="&#x4e5;" d="M381 58v253l-216 -283q-21 -28 -51 -28q-27 0 -40.5 16t-13.5 42v374q0 25 15 41.5t42 16.5t41.5 -16.5t14.5 -41.5v-255l212 280q23 33 55 33q27 0 40.5 -16t13.5 -42v-374q0 -26 -14.5 -42t-42.5 -16q-27 0 -41.5 16t-14.5 42zM120 618q0 28 17 44.5t46 16.5t46 -17 t17 -44q0 -28 -17 -44.5t-46 -16.5q-30 0 -46.5 16t-16.5 45zM311 618q0 28 16.5 44.5t45.5 16.5t46 -17t17 -44q0 -28 -17 -44.5t-46 -16.5q-30 0 -46 16t-16 45z" />
<glyph unicode="&#x4e6;" horiz-adv-x="747" d="M45 345q0 155 85.5 255t242.5 100t243 -100t86 -255q0 -156 -86 -255.5t-243 -99.5t-242.5 99.5t-85.5 255.5zM171 345q0 -109 52.5 -178.5t149.5 -69.5q98 0 150.5 69.5t52.5 178.5t-52.5 178.5t-150.5 69.5q-97 0 -149.5 -69.5t-52.5 -178.5zM192 796q0 28 20.5 44 t51.5 16q33 0 53.5 -16t20.5 -44t-20.5 -43t-53.5 -15q-32 0 -52 15t-20 43zM400 796q0 28 20 44t53 16q32 0 52.5 -16t20.5 -44t-20.5 -43t-52.5 -15q-33 0 -53 15t-20 43z" />
<glyph unicode="&#x4e7;" horiz-adv-x="549" d="M35 245q0 113 63 184t176 71t176.5 -71.5t63.5 -183.5t-63.5 -183.5t-176.5 -71.5t-176 71t-63 184zM151 245q0 -71 32 -115t91 -44q60 0 92 44t32 115t-32 115t-92 44q-59 0 -91 -44.5t-32 -114.5zM116 618q0 28 17 44.5t46 16.5t46 -17t17 -44q0 -28 -17 -44.5 t-46 -16.5q-30 0 -46.5 16t-16.5 45zM307 618q0 28 16.5 44.5t45.5 16.5t46 -17t17 -44q0 -28 -17 -44.5t-46 -16.5q-30 0 -46 16t-16 45z" />
<glyph unicode="&#x4e8;" horiz-adv-x="747" d="M45 345q0 155 85.5 255t242.5 100t243 -100t86 -255q0 -156 -86 -255.5t-243 -99.5t-242.5 99.5t-85.5 255.5zM373 97q87 0 139.5 56t60.5 146h-400q8 -90 60.5 -146t139.5 -56zM373 593q-84 0 -136.5 -53.5t-61.5 -138.5h397q-10 86 -62 139t-137 53z" />
<glyph unicode="&#x4e9;" horiz-adv-x="549" d="M35 245q0 113 63 184t176 71t176.5 -71.5t63.5 -183.5t-63.5 -183.5t-176.5 -71.5t-176 71t-63 184zM274 86q53 0 85.5 32t37.5 86h-245q5 -53 37.5 -85.5t84.5 -32.5zM274 404q-51 0 -83.5 -31.5t-38.5 -82.5h244q-5 51 -37.5 82.5t-84.5 31.5z" />
<glyph unicode="&#x4ea;" horiz-adv-x="747" d="M45 345q0 155 85.5 255t242.5 100t243 -100t86 -255q0 -156 -86 -255.5t-243 -99.5t-242.5 99.5t-85.5 255.5zM373 97q87 0 139.5 56t60.5 146h-400q8 -90 60.5 -146t139.5 -56zM373 593q-84 0 -136.5 -53.5t-61.5 -138.5h397q-10 86 -62 139t-137 53zM196 796 q0 28 20.5 44t51.5 16q33 0 53.5 -16t20.5 -44t-20.5 -43t-53.5 -15q-32 0 -52 15t-20 43zM404 796q0 28 20 44t53 16q32 0 52.5 -16t20.5 -44t-20.5 -43t-52.5 -15q-33 0 -53 15t-20 43z" />
<glyph unicode="&#x4eb;" horiz-adv-x="549" d="M116 618q0 28 17 44.5t46 16.5t46 -17t17 -44q0 -28 -17 -44.5t-46 -16.5q-30 0 -46.5 16t-16.5 45zM307 618q0 28 16.5 44.5t45.5 16.5t46 -17t17 -44q0 -28 -17 -44.5t-46 -16.5q-30 0 -46 16t-16 45zM35 245q0 113 63 184t176 71t176.5 -71.5t63.5 -183.5 t-63.5 -183.5t-176.5 -71.5t-176 71t-63 184zM274 86q53 0 85.5 32t37.5 86h-245q5 -53 37.5 -85.5t84.5 -32.5zM274 404q-51 0 -83.5 -31.5t-38.5 -82.5h244q-5 51 -37.5 82.5t-84.5 31.5z" />
<glyph unicode="&#x4ee;" horiz-adv-x="585" d="M269 181l-235 402q-17 28 -15 56.5t27 42.5q27 14 50 3.5t40 -42.5l189 -349l141 342q28 68 80 49q49 -19 22 -84l-172 -402q-47 -110 -89.5 -159.5t-108.5 -49.5q-60 0 -96 20q-53 29 -35 77q16 42 65 26q5 -1 17.5 -6t22 -7t20.5 -2q25 0 43 20.5t34 62.5zM424 748 h-245q-48 0 -48 39q0 40 48 40h245q48 0 48 -40q0 -39 -48 -39z" />
<glyph unicode="&#x4ef;" horiz-adv-x="465" d="M210 0l-170 401q-12 23 -6 48.5t32 35.5q55 21 79 -41l117 -310l103 306q21 65 74 46q45 -15 22 -78l-156 -413q-44 -118 -84.5 -161.5t-105.5 -43.5q-48 0 -81 18q-50 28 -31 70q15 33 59 20q38 -12 54 -12q32 0 52 28.5t42 85.5zM366 568h-229q-47 0 -47 40t47 40h229 q47 0 47 -40t-47 -40z" />
<glyph unicode="&#x4f0;" horiz-adv-x="585" d="M269 181l-235 402q-17 28 -15 56.5t27 42.5q27 14 50 3.5t40 -42.5l189 -349l141 342q28 68 80 49q49 -19 22 -84l-172 -402q-47 -110 -89.5 -159.5t-108.5 -49.5q-60 0 -96 20q-53 29 -35 77q16 42 65 26q5 -1 17.5 -6t22 -7t20.5 -2q25 0 43 20.5t34 62.5zM123 796 q0 28 20.5 44t51.5 16q33 0 53.5 -16t20.5 -44t-20.5 -43t-53.5 -15q-32 0 -52 15t-20 43zM331 796q0 28 20 44t53 16q32 0 52.5 -16t20.5 -44t-20.5 -43t-52.5 -15q-33 0 -53 15t-20 43z" />
<glyph unicode="&#x4f1;" horiz-adv-x="465" d="M210 0l-170 401q-12 23 -6 48.5t32 35.5q55 21 79 -41l117 -310l103 306q21 65 74 46q45 -15 22 -78l-156 -413q-44 -118 -84.5 -161.5t-105.5 -43.5q-48 0 -81 18q-50 28 -31 70q15 33 59 20q38 -12 54 -12q32 0 52 28.5t42 85.5zM99 618q0 28 17 44.5t46 16.5t46 -17 t17 -44q0 -28 -17 -44.5t-46 -16.5q-30 0 -46.5 16t-16.5 45zM290 618q0 28 16.5 44.5t45.5 16.5t46 -17t17 -44q0 -28 -17 -44.5t-46 -16.5q-30 0 -46 16t-16 45z" />
<glyph unicode="&#x4f2;" horiz-adv-x="585" d="M269 181l-235 402q-17 28 -15 56.5t27 42.5q27 14 50 3.5t40 -42.5l189 -349l141 342q28 68 80 49q49 -19 22 -84l-172 -402q-47 -110 -89.5 -159.5t-108.5 -49.5q-60 0 -96 20q-53 29 -35 77q16 42 65 26q5 -1 17.5 -6t22 -7t20.5 -2q25 0 43 20.5t34 62.5zM332 805 l-139 -64q-53 -24 -69 10q-21 40 31 64l143 67q50 23 67 -12q20 -41 -33 -65zM558 805l-139 -64q-53 -24 -69 10q-21 40 31 64l143 67q50 23 67 -12q20 -41 -33 -65z" />
<glyph unicode="&#x4f3;" horiz-adv-x="465" d="M210 0l-170 401q-12 23 -6 48.5t32 35.5q55 21 79 -41l117 -310l103 306q21 65 74 46q45 -15 22 -78l-156 -413q-44 -118 -84.5 -161.5t-105.5 -43.5q-48 0 -81 18q-50 28 -31 70q15 33 59 20q38 -12 54 -12q32 0 52 28.5t42 85.5zM293 643l-108 -72q-40 -27 -62 1 q-11 13 -7 30t26 31l112 75q42 27 63 -4q20 -31 -24 -61zM460 643l-108 -72q-40 -27 -62 1q-11 13 -7 30t26 31l112 75q42 27 63 -4q20 -31 -24 -61z" />
<glyph unicode="&#x4f4;" horiz-adv-x="606" d="M411 389v239q0 27 15.5 44.5t44.5 17.5t44.5 -17.5t15.5 -44.5v-567q0 -27 -15.5 -44t-44.5 -17t-44.5 17t-15.5 44v221q-70 -48 -160 -48q-107 0 -161.5 52.5t-54.5 186.5v155q0 26 16 44t44 18q29 0 44.5 -18t15.5 -44v-149q0 -78 27 -109.5t86 -31.5q69 0 143 51z M106 796q0 28 20.5 44t51.5 16q33 0 53.5 -16t20.5 -44t-20.5 -43t-53.5 -15q-32 0 -52 15t-20 43zM314 796q0 28 20 44t53 16q32 0 52.5 -16t20.5 -44t-20.5 -43t-52.5 -15q-33 0 -53 15t-20 43z" />
<glyph unicode="&#x4f5;" horiz-adv-x="478" d="M305 58v124q-51 -31 -112 -31q-85 0 -126.5 43t-41.5 151v87q0 25 14.5 41.5t41.5 16.5t42 -16.5t15 -41.5v-70q0 -58 15.5 -86.5t59.5 -28.5q52 0 92 28v157q0 25 14.5 41.5t41.5 16.5t42 -16.5t15 -41.5v-374q0 -25 -15 -41.5t-42 -16.5t-41.5 16.5t-14.5 41.5zM63 618 q0 28 16.5 44.5t46.5 16.5q29 0 46 -17t17 -44q0 -28 -17 -44.5t-46 -16.5q-30 0 -46.5 16t-16.5 45zM254 618q0 28 16.5 44.5t45.5 16.5t46 -17t17 -44q0 -28 -17 -44.5t-46 -16.5q-30 0 -46 16t-16 45z" />
<glyph unicode="&#x4f8;" horiz-adv-x="822" d="M75 76v553q0 27 15.5 44t44.5 17q28 0 44 -17t16 -44v-195q34 7 90 7q124 0 187 -52t63 -171q0 -107 -68 -165t-186 -58q-94 0 -150 12q-56 13 -56 69zM271 334q-32 0 -76 -6v-220q44 -6 83 -6q131 0 131 118q0 62 -36 88t-102 26zM627 61v567q0 27 15.5 44.5t44.5 17.5 q28 0 44 -17.5t16 -44.5v-567q0 -27 -16 -44t-44 -17q-29 0 -44.5 17t-15.5 44zM234 796q0 28 20.5 44t51.5 16q33 0 53.5 -16t20.5 -44t-20.5 -43t-53.5 -15q-32 0 -52 15t-20 43zM442 796q0 28 20 44t53 16q32 0 52.5 -16t20.5 -44t-20.5 -43t-52.5 -15q-33 0 -53 15 t-20 43z" />
<glyph unicode="&#x4f9;" horiz-adv-x="653" d="M226 88q-29 0 -53 3v147q40 5 61 5q47 0 67 -18.5t20 -57.5q0 -79 -95 -79zM60 69q0 -53 47 -65q36 -9 100 -9q37 0 69 5t62 17t51 31t33.5 49t12.5 69q0 164 -186 164q-38 0 -76 -6v108q0 27 -16 42.5t-41 15.5q-24 0 -40 -15t-16 -42v-364zM480 58v374q0 25 14.5 41.5 t41.5 16.5t42 -16.5t15 -41.5v-374q0 -25 -15 -41.5t-42 -16.5t-41.5 16.5t-14.5 41.5zM168 618q0 28 17 44.5t46 16.5t46 -17t17 -44q0 -28 -17 -44.5t-46 -16.5q-30 0 -46.5 16t-16.5 45zM359 618q0 28 16.5 44.5t45.5 16.5t46 -17t17 -44q0 -28 -17 -44.5t-46 -16.5 q-30 0 -46 16t-16 45z" />
<glyph unicode="&#x2000;" horiz-adv-x="445" />
<glyph unicode="&#x2001;" horiz-adv-x="891" />
<glyph unicode="&#x2002;" horiz-adv-x="445" />
<glyph unicode="&#x2003;" horiz-adv-x="891" />
<glyph unicode="&#x2004;" horiz-adv-x="297" />
<glyph unicode="&#x2005;" horiz-adv-x="222" />
<glyph unicode="&#x2006;" horiz-adv-x="148" />
<glyph unicode="&#x2007;" horiz-adv-x="148" />
<glyph unicode="&#x2008;" horiz-adv-x="111" />
<glyph unicode="&#x2009;" horiz-adv-x="178" />
<glyph unicode="&#x200a;" horiz-adv-x="49" />
<glyph unicode="&#x2010;" horiz-adv-x="362" d="M303 217h-244q-24 0 -39 13t-15 37q0 23 15 36.5t39 13.5h244q24 0 39 -13.5t15 -36.5q0 -24 -15 -37t-39 -13z" />
<glyph unicode="&#x2011;" horiz-adv-x="362" d="M303 217h-244q-24 0 -39 13t-15 37q0 23 15 36.5t39 13.5h244q24 0 39 -13.5t15 -36.5q0 -24 -15 -37t-39 -13z" />
<glyph unicode="&#x2012;" horiz-adv-x="362" d="M303 217h-244q-24 0 -39 13t-15 37q0 23 15 36.5t39 13.5h244q24 0 39 -13.5t15 -36.5q0 -24 -15 -37t-39 -13z" />
<glyph unicode="&#x2013;" horiz-adv-x="362" d="M303 217h-244q-24 0 -39 13t-15 37q0 23 15 36.5t39 13.5h244q24 0 39 -13.5t15 -36.5q0 -24 -15 -37t-39 -13z" />
<glyph unicode="&#x2014;" horiz-adv-x="574" d="M515 217h-456q-24 0 -39 13t-15 37q0 23 15 36.5t39 13.5h456q24 0 39 -13.5t15 -36.5q0 -24 -15 -37t-39 -13z" />
<glyph unicode="&#x2018;" horiz-adv-x="234" d="M142 515l-80 151q-12 16 -9 39t24 34q44 23 71 -30l80 -150q28 -52 -13 -74q-45 -24 -73 30z" />
<glyph unicode="&#x2019;" horiz-adv-x="234" d="M201 666l-80 -151q-28 -54 -73 -30q-41 22 -13 74l80 150q27 53 71 30q21 -11 24 -34t-9 -39z" />
<glyph unicode="&#x201a;" horiz-adv-x="234" d="M201 55l-80 -151q-28 -54 -73 -30q-41 22 -13 74l80 150q27 53 71 30q21 -11 24 -34t-9 -39z" />
<glyph unicode="&#x201c;" horiz-adv-x="388" d="M296 515l-80 151q-12 16 -9 39t24 34q44 23 71 -30l80 -150q28 -52 -13 -74q-45 -24 -73 30zM142 515l-80 151q-12 16 -9 39t24 34q44 23 71 -30l80 -150q28 -52 -13 -74q-45 -24 -73 30z" />
<glyph unicode="&#x201d;" horiz-adv-x="388" d="M355 666l-80 -151q-28 -54 -73 -30q-41 22 -13 74l80 150q27 53 71 30q21 -11 24 -34t-9 -39zM201 666l-80 -151q-28 -54 -73 -30q-41 22 -13 74l80 150q27 53 71 30q21 -11 24 -34t-9 -39z" />
<glyph unicode="&#x201e;" horiz-adv-x="388" d="M355 55l-80 -151q-28 -54 -73 -30q-41 22 -13 74l80 150q27 53 71 30q21 -11 24 -34t-9 -39zM201 55l-80 -151q-28 -54 -73 -30q-41 22 -13 74l80 150q27 53 71 30q21 -11 24 -34t-9 -39z" />
<glyph unicode="&#x2020;" horiz-adv-x="380" d="M52 490h90v149q0 22 12.5 36.5t35.5 14.5t35 -14.5t12 -36.5v-149h90q23 0 35.5 -13t12.5 -34q0 -20 -12.5 -33t-35.5 -13h-90v-547q0 -22 -12 -36t-35 -14t-35.5 14t-12.5 36v547h-90q-23 0 -35 12.5t-12 33.5t12 34t35 13z" />
<glyph unicode="&#x2021;" horiz-adv-x="380" d="M52 490h90v149q0 22 12.5 36.5t35.5 14.5t35 -14.5t12 -36.5v-149h90q23 0 35.5 -13t12.5 -34q0 -20 -12.5 -33t-35.5 -13h-90v-287h90q23 0 35.5 -13t12.5 -34q0 -20 -12.5 -33t-35.5 -13h-90v-167q0 -22 -12 -36t-35 -14t-35.5 14t-12.5 36v167h-90q-23 0 -35 12.5 t-12 33.5t12 34t35 13h90v287h-90q-23 0 -35 12.5t-12 33.5t12 34t35 13z" />
<glyph unicode="&#x2022;" horiz-adv-x="426" d="M85 309q0 56 32.5 92.5t94.5 36.5t95.5 -37t33.5 -92q0 -56 -33.5 -91.5t-95.5 -35.5t-94.5 35t-32.5 92z" />
<glyph unicode="&#x2026;" horiz-adv-x="678" d="M50 68q0 30 18.5 50t50.5 20q33 0 51.5 -20t18.5 -50t-18.5 -49t-51.5 -19t-51 19t-18 49zM269 68q0 30 18.5 50t50.5 20q33 0 51.5 -20t18.5 -50t-18.5 -49t-51.5 -19t-51 19t-18 49zM489 68q0 30 18 50t51 20q32 0 50.5 -20t18.5 -50t-18 -49t-51 -19t-51 19t-18 49z " />
<glyph unicode="&#x202f;" horiz-adv-x="178" />
<glyph unicode="&#x2030;" horiz-adv-x="1189" d="M852 179q0 89 42.5 140t119.5 51t119.5 -51t42.5 -140q0 -88 -42.5 -138.5t-119.5 -50.5t-119.5 50.5t-42.5 138.5zM1078 179q0 108 -64 108t-64 -108q0 -106 64 -106t64 106zM23 509q0 89 42.5 140t119.5 51t119.5 -51t42.5 -140q0 -88 -42.5 -138.5t-119.5 -50.5 t-119.5 50.5t-42.5 138.5zM249 509q0 108 -64 108t-64 -108q0 -106 64 -106t64 106zM488 179q0 89 42.5 140t119.5 51t119.5 -51t42.5 -140q0 -88 -42.5 -138.5t-119.5 -50.5t-119.5 50.5t-42.5 138.5zM714 179q0 108 -64 108t-64 -108q0 -106 64 -106t64 106zM574 666 l-231 -662q-20 -56 -64 -41q-38 13 -18 71l233 661q19 58 62 42q38 -13 18 -71z" />
<glyph unicode="&#x2039;" horiz-adv-x="336" d="M108 295l137 138q19 20 40.5 22.5t39.5 -15.5q31 -35 -12 -78l-115 -113l118 -118q20 -20 22.5 -42t-14.5 -39q-18 -15 -39 -12t-39 20l-140 140q-48 49 2 97z" />
<glyph unicode="&#x203a;" horiz-adv-x="336" d="M291 198l-137 -138q-19 -20 -40.5 -22.5t-39.5 15.5q-31 35 12 78l115 113l-118 118q-20 20 -22.5 42t14.5 39q18 15 39 12t39 -20l140 -140q48 -49 -2 -97z" />
<glyph unicode="&#x2044;" horiz-adv-x="118" d="M235 666l-231 -662q-20 -56 -64 -41q-38 13 -18 71l233 661q19 58 62 42q38 -13 18 -71z" />
<glyph unicode="&#x205f;" horiz-adv-x="222" />
<glyph unicode="&#x20ac;" d="M38 458h48q24 114 99 178t195 64q87 0 141 -31q47 -25 30 -66q-14 -33 -67 -18q-59 18 -106 18q-145 0 -184 -145h213q40 0 40 -38t-40 -38h-225q-1 -13 -1 -39v-29h226q40 0 40 -38t-40 -38h-215q37 -151 185 -151q54 0 109 26q52 24 71 -9q11 -20 2 -40.5t-31 -34.5 q-64 -39 -159 -39q-245 0 -286 248h-45q-40 0 -40 38t40 38h37v30q0 25 1 38h-38q-40 0 -40 38t40 38z" />
<glyph unicode="&#x20b4;" horiz-adv-x="569" d="M93 312h382q45 0 45 -38t-45 -38h-248q-23 -30 -23 -66q0 -83 104 -83q47 0 106 33q58 33 81 -7q11 -18 0.5 -41.5t-39.5 -41.5q-64 -40 -158 -40q-103 0 -156 45t-53 115q0 47 24 86h-20q-46 0 -46 38t46 38zM93 444h232q50 45 50 93q0 66 -84 66q-50 0 -119 -28 q-55 -21 -70 16q-16 39 34 70q63 39 162 39q98 0 145 -43.5t47 -103.5q0 -62 -47 -109h32q45 0 45 -38t-45 -38h-382q-46 0 -46 38t46 38z" />
<glyph unicode="&#x20b6;" d="M203 223h140q41 0 41 -41q0 -18 -10.5 -29t-30.5 -11h-140v-81q0 -27 -14.5 -44t-43.5 -17q-28 0 -43 17t-15 44v81h-40q-20 0 -30.5 11t-10.5 29q0 41 41 41h40v53h-40q-20 0 -30.5 11t-10.5 29q0 41 41 41h40v252q0 33 13 50t42 23q62 13 145 13q118 0 181.5 -53.5 t63.5 -155.5q0 -106 -67.5 -158t-187.5 -52h-74v-53zM203 357h67q73 0 109.5 29t36.5 95q0 117 -131 117q-43 0 -82 -6v-235z" />
<glyph unicode="&#x20b8;" d="M56 544h441q20 0 31 -11.5t11 -29.5q0 -17 -11 -29t-31 -12h-160v-401q0 -27 -16 -44t-44 -17q-29 0 -44.5 17t-15.5 44v401h-161q-20 0 -30.5 11.5t-10.5 29.5q0 41 41 41zM56 690h441q20 0 31 -11.5t11 -29.5t-11 -29.5t-31 -11.5h-441q-41 0 -41 41t41 41z" />
<glyph unicode="&#x2122;" horiz-adv-x="850" d="M392 367v275q0 58 49 58q33 0 57 -34l105 -144l104 144q25 34 58 34q24 0 36.5 -16t12.5 -40v-277q0 -25 -14 -41t-41 -16t-41 16t-14 41v165l-56 -80q-24 -31 -52 -31t-52 30l-51 72v-156q0 -57 -51 -57q-25 0 -37.5 16t-12.5 41zM319 597h-76v-230q0 -25 -14 -41 t-41 -16t-41 16t-14 41v230h-76q-23 0 -36.5 12.5t-13.5 33.5q0 22 13.5 34.5t36.5 12.5h262q23 0 37 -12.5t14 -34.5q0 -21 -14 -33.5t-37 -12.5z" />
<glyph unicode="&#x2202;" horiz-adv-x="544" d="M238 86q70 0 109.5 63.5t47.5 157.5q-10 41 -40 63.5t-73 22.5q-68 0 -106 -50.5t-38 -125.5q0 -59 24 -95t76 -36zM332 574q-40 21 -120 38q-56 12 -48 55q7 36 60 33q90 -5 154 -39q67 -36 103.5 -98t36.5 -142t-15.5 -153t-48.5 -137.5t-91.5 -102.5t-136.5 -38 q-94 0 -147.5 56.5t-53.5 151.5q0 122 66.5 207t184.5 85q105 0 145 -70q-1 57 -23 93.5t-66 60.5z" />
<glyph unicode="&#x2206;" horiz-adv-x="607" d="M603 92q15 -32 1 -62t-51 -30h-471q-40 0 -53.5 27t3.5 64l225 561q19 48 61 48q41 0 58 -43zM313 533l-168 -430h335z" />
<glyph unicode="&#x220f;" horiz-adv-x="681" d="M75 -139v769q0 27 15 43.5t43 16.5h414q29 0 44 -17t15 -43v-769q0 -27 -15.5 -44t-44.5 -17t-44.5 17t-15.5 44v722h-291v-722q0 -27 -16 -44t-44 -17q-29 0 -44.5 17t-15.5 44z" />
<glyph unicode="&#x2211;" horiz-adv-x="543" d="M276 244l-239 347q-23 31 -9.5 65.5t55.5 33.5h395q58 0 58 -54t-58 -54h-298l202 -288q33 -48 0 -95l-205 -291h301q58 0 58 -54t-58 -54h-396q-33 0 -47.5 17.5t-12 39t14.5 39.5z" />
<glyph unicode="&#x221a;" horiz-adv-x="571" d="M607 594h-108l-137 -540q-10 -40 -24 -52t-37 -12q-25 0 -38 16t-26 49l-135 339h-58q-23 0 -36 13.5t-13 34.5t13 34.5t36 13.5h88q45 0 64 -51l100 -259l107 454q13 56 66 56h138q23 0 36 -13.5t13 -34.5t-13 -34.5t-36 -13.5z" />
<glyph unicode="&#x221e;" horiz-adv-x="729" d="M204 273q56 0 101 66q-53 71 -100 71q-33 0 -53 -18t-20 -51q0 -36 21.5 -52t50.5 -16zM695 339q0 -71 -44.5 -117t-117.5 -46q-47 0 -92.5 26t-77.5 65q-31 -39 -76.5 -65t-94.5 -26q-65 0 -112 39.5t-47 125.5q0 79 45.5 122t121.5 43q44 0 88 -26t76 -65q31 39 77 65 t98 26q67 0 111.5 -43t44.5 -124zM524 410q-56 0 -102 -66q53 -71 105 -71q32 0 50.5 18t18.5 49q0 70 -72 70z" />
<glyph unicode="&#x222b;" horiz-adv-x="322" d="M109 495q0 107 36 156t124 49q50 0 86 -21q38 -23 26 -58q-13 -38 -58 -25q-34 8 -49 8q-29 0 -40.5 -19.5t-11.5 -58.5v-521q0 -107 -36 -156t-124 -49q-51 0 -86 20q-17 10 -24 26t-2 33q13 38 58 25q34 -8 49 -8q29 0 40.5 19.5t11.5 58.5v521z" />
<glyph unicode="&#x2248;" horiz-adv-x="495" d="M331 252q27 0 51 19q41 33 68 6q14 -15 10.5 -35t-20.5 -38q-48 -48 -106 -48q-30 0 -87 21t-79 21q-28 0 -55 -20q-39 -30 -64 -6q-14 12 -11.5 34t20.5 40q50 48 106 48q34 0 93 -21t74 -21zM331 417q27 0 51 19q41 33 68 6q14 -15 10.5 -35t-20.5 -38 q-48 -48 -106 -48q-30 0 -87 21t-79 21q-28 0 -55 -20q-39 -30 -64 -6q-14 12 -11.5 34t20.5 40q50 48 106 48q34 0 93 -21t74 -21z" />
<glyph unicode="&#x2260;" horiz-adv-x="515" d="M417 171h-157l-35 -101q-20 -63 -65 -48q-42 14 -22 73l26 76h-66q-53 0 -53 48q0 23 14.5 35.5t38.5 12.5h99l17 49h-116q-53 0 -53 48q0 23 14.5 35.5t38.5 12.5h149l37 105q20 65 67 49q42 -14 20 -76l-27 -78h73q24 0 38.5 -12.5t14.5 -35.5q0 -48 -53 -48h-107 l-17 -49h124q24 0 38.5 -12.5t14.5 -35.5q0 -48 -53 -48z" />
<glyph unicode="&#x2264;" horiz-adv-x="515" d="M193 270l199 -157q21 -15 27.5 -36t-7.5 -43q-16 -18 -37.5 -17t-43.5 18l-201 157q-20 16 -25 36.5t10 40.5q29 37 78 1zM131 468l200 152q13 11 27.5 16.5t30 2t25.5 -18.5q24 -39 -29 -78l-161 -120l172 -136q45 -37 15 -75q-14 -16 -36 -16t-43 17l-202 157 q-26 21 -26 49.5t27 49.5z" />
<glyph unicode="&#x2265;" horiz-adv-x="515" d="M148 113l199 157q50 38 78 -1q14 -20 9 -39.5t-24 -35.5l-201 -159q-22 -17 -43.5 -18t-37.5 17q-14 23 -7.5 42.5t27.5 36.5zM410 366l-200 -152q-13 -11 -27.5 -16.5t-30 -2t-25.5 18.5q-24 39 29 78l161 120l-172 136q-45 37 -15 75q14 16 36 16t43 -17l202 -157 q26 -21 26 -49.5t-27 -49.5z" />
<glyph unicode="&#x25ca;" horiz-adv-x="556" d="M247 61l-165 242q-28 45 -2 85l165 242q23 36 57 36q32 0 57 -36l169 -241q24 -37 0 -77l-168 -251q-24 -35 -56 -35q-33 0 -57 35zM299 543l-133 -192l139 -203l134 194z" />
<glyph unicode="&#x25fc;" horiz-adv-x="490" d="M0 490h490v-490h-490v490z" />
</font>
</defs>
</svg>
